M48
; DRILL file {KiCad (5.1.10)-1} date 11/24/21 23:13:16
; FORMAT={-:-/ absolute / inch / decimal}
; #@! TF.CreationDate,2021-11-24T23:13:16+01:00
; #@! TF.GenerationSoftware,Kicad,Pcbnew,(5.1.10)-1
FMAT,2
INCH
T1C0.0320
T2C0.0354
T3C0.0394
T4C0.0400
T5C0.9449
T6C0.0354
T7C0.0984
%
G90
G05
T1
X4.478Y-4.6463
X4.578Y-4.8463
X4.628Y-4.7463
X4.778Y-4.6463
X4.778Y-4.8463
X4.803Y-4.1588
X4.803Y-4.4588
X4.828Y-4.4963
X4.878Y-4.6463
X4.878Y-4.8463
X4.928Y-4.1463
X4.928Y-4.1963
X4.928Y-4.3963
X4.928Y-4.7463
X4.978Y-4.6463
X4.978Y-4.8463
X5.128Y-4.4963
X5.128Y-4.6513
X5.128Y-4.8413
X5.228Y-4.1463
X5.6155Y-5.2338
X5.9155Y-5.2338
T2
X5.1905Y-4.0213
X5.428Y-3.7838
X5.453Y-3.6963
X5.778Y-3.6963
X5.803Y-3.7963
X5.853Y-3.9463
X5.9155Y-5.2088
T3
X4.353Y-4.4213
X4.353Y-4.7713
X4.4767Y-4.6476
X4.5155Y-5.1088
X4.5182Y-5.1065
X4.553Y-4.9963
X4.5792Y-4.8488
X4.6155Y-5.1088
X4.6182Y-5.1065
X4.6292Y-4.7463
X4.7155Y-5.1088
X4.7182Y-5.1065
X4.7742Y-4.6463
X4.778Y-4.9963
X4.803Y-4.4563
X4.8042Y-4.1576
X4.8155Y-5.1088
X4.8182Y-5.1065
X4.8292Y-4.4976
X4.8767Y-4.8463
X4.8805Y-4.6463
X4.9155Y-5.1088
X4.9182Y-5.1065
X4.9267Y-4.4013
X4.928Y-4.7451
X4.9305Y-4.1463
X4.9305Y-4.1988
X4.9705Y-4.8488
X5.003Y-3.5338
X5.003Y-3.6338
X5.0155Y-5.1088
X5.0182Y-5.1065
X5.1182Y-5.1065
X5.1305Y-4.4976
X5.1917Y-4.0226
X5.2182Y-5.1065
X5.253Y-4.6588
X5.253Y-4.7713
X5.253Y-4.9463
X5.278Y-5.0213
X5.3182Y-5.1065
X5.3405Y-4.7838
X5.4182Y-5.1065
X5.5155Y-5.1088
X5.5182Y-5.1065
X5.5655Y-4.7838
X5.6155Y-5.1088
X5.6182Y-5.1065
X5.628Y-4.8463
X5.7155Y-5.1088
X5.7182Y-5.1065
X5.803Y-3.4713
X5.803Y-3.5838
X5.8155Y-5.1088
X5.8182Y-5.1065
X5.9155Y-5.1088
X5.9182Y-5.1065
X6.0155Y-5.1088
X6.0182Y-5.1065
X6.1155Y-4.9463
X6.2155Y-4.9463
X6.3155Y-4.9463
X6.4155Y-4.9463
X6.928Y-4.1338
X6.928Y-4.8338
X7.028Y-4.1338
X7.128Y-4.1338
X7.228Y-4.1338
X7.328Y-4.1338
X7.528Y-4.1338
X7.528Y-4.8338
T4
X3.928Y-3.2588
X3.9405Y-3.5588
X4.0405Y-3.5588
X4.0905Y-3.2588
X4.1405Y-3.5588
X4.2405Y-3.5588
X4.2405Y-3.5588
X4.65Y-3.1073
X4.65Y-3.2853
X4.906Y-3.1073
X4.906Y-3.2853
X5.3Y-3.1073
X5.3Y-3.2853
X5.3155Y-3.7463
X5.556Y-3.1073
X5.556Y-3.2853
X5.903Y-4.9463
X5.95Y-3.1073
X5.95Y-3.2853
X6.003Y-4.9463
X6.103Y-4.9463
X6.203Y-4.9463
X6.206Y-3.1073
X6.206Y-3.2853
X6.303Y-4.9463
X6.403Y-4.9463
X6.503Y-4.9463
X6.6Y-3.1073
X6.6Y-3.2853
X6.603Y-4.9463
X6.703Y-4.9463
X6.803Y-4.9463
X6.856Y-3.1073
X6.856Y-3.2853
X6.928Y-4.1463
X6.928Y-4.8463
X7.028Y-4.1463
X7.028Y-4.8463
X7.128Y-4.1463
X7.128Y-4.8463
X7.228Y-4.1463
X7.228Y-4.8463
X7.328Y-4.1463
X7.328Y-4.8463
X7.428Y-4.1463
X7.428Y-4.8463
X7.528Y-4.1463
X7.528Y-4.8463
X7.628Y-4.1463
X7.628Y-4.8463
T5
X6.35Y-4.13
T6
X4.028Y-4.6597
X4.028Y-4.8329
T7
X4.3016Y-3.8861
X4.3016Y-5.1065
X7.2544Y-3.8861
X7.2544Y-5.1065
T0
M30
