%TF.GenerationSoftware,KiCad,Pcbnew,(5.1.10)-1*%
%TF.CreationDate,2021-11-24T23:11:51+01:00*%
%TF.ProjectId,Alarm-Clock,416c6172-6d2d-4436-9c6f-636b2e6b6963,rev?*%
%TF.SameCoordinates,Original*%
%TF.FileFunction,Legend,Top*%
%TF.FilePolarity,Positive*%
%FSLAX46Y46*%
G04 Gerber Fmt 4.6, Leading zero omitted, Abs format (unit mm)*
G04 Created by KiCad (PCBNEW (5.1.10)-1) date 2021-11-24 23:11:51*
%MOMM*%
%LPD*%
G01*
G04 APERTURE LIST*
%ADD10C,0.100000*%
%ADD11C,0.150000*%
%ADD12C,0.300000*%
%ADD13C,0.400000*%
%ADD14C,0.406400*%
%ADD15C,0.152400*%
%ADD16C,0.304800*%
%ADD17C,0.101600*%
%ADD18C,0.050800*%
%ADD19C,0.127000*%
%ADD20C,0.065024*%
%ADD21C,0.099060*%
G04 APERTURE END LIST*
D10*
D11*
X177002200Y-166007200D02*
X177002200Y-198007200D01*
X285002200Y-198007200D01*
X285002200Y-166007200D01*
X177002200Y-166007200D01*
D10*
D11*
X10000000Y-10000000D02*
X10000000Y-200007200D01*
X287002200Y-200007200D01*
X287002200Y-10000000D01*
X10000000Y-10000000D01*
D10*
D11*
X12000000Y-12000000D02*
X12000000Y-198007200D01*
X285002200Y-198007200D01*
X285002200Y-12000000D01*
X12000000Y-12000000D01*
D10*
D11*
X60000000Y-12000000D02*
X60000000Y-10000000D01*
D10*
D11*
X110000000Y-12000000D02*
X110000000Y-10000000D01*
D10*
D11*
X160000000Y-12000000D02*
X160000000Y-10000000D01*
D10*
D11*
X210000000Y-12000000D02*
X210000000Y-10000000D01*
D10*
D11*
X260000000Y-12000000D02*
X260000000Y-10000000D01*
D10*
D11*
X36065476Y-11588095D02*
X35322619Y-11588095D01*
X35694047Y-11588095D02*
X35694047Y-10288095D01*
X35570238Y-10473809D01*
X35446428Y-10597619D01*
X35322619Y-10659523D01*
D10*
D11*
X85322619Y-10411904D02*
X85384523Y-10350000D01*
X85508333Y-10288095D01*
X85817857Y-10288095D01*
X85941666Y-10350000D01*
X86003571Y-10411904D01*
X86065476Y-10535714D01*
X86065476Y-10659523D01*
X86003571Y-10845238D01*
X85260714Y-11588095D01*
X86065476Y-11588095D01*
D10*
D11*
X135260714Y-10288095D02*
X136065476Y-10288095D01*
X135632142Y-10783333D01*
X135817857Y-10783333D01*
X135941666Y-10845238D01*
X136003571Y-10907142D01*
X136065476Y-11030952D01*
X136065476Y-11340476D01*
X136003571Y-11464285D01*
X135941666Y-11526190D01*
X135817857Y-11588095D01*
X135446428Y-11588095D01*
X135322619Y-11526190D01*
X135260714Y-11464285D01*
D10*
D11*
X185941666Y-10721428D02*
X185941666Y-11588095D01*
X185632142Y-10226190D02*
X185322619Y-11154761D01*
X186127380Y-11154761D01*
D10*
D11*
X236003571Y-10288095D02*
X235384523Y-10288095D01*
X235322619Y-10907142D01*
X235384523Y-10845238D01*
X235508333Y-10783333D01*
X235817857Y-10783333D01*
X235941666Y-10845238D01*
X236003571Y-10907142D01*
X236065476Y-11030952D01*
X236065476Y-11340476D01*
X236003571Y-11464285D01*
X235941666Y-11526190D01*
X235817857Y-11588095D01*
X235508333Y-11588095D01*
X235384523Y-11526190D01*
X235322619Y-11464285D01*
D10*
D11*
X285941666Y-10288095D02*
X285694047Y-10288095D01*
X285570238Y-10350000D01*
X285508333Y-10411904D01*
X285384523Y-10597619D01*
X285322619Y-10845238D01*
X285322619Y-11340476D01*
X285384523Y-11464285D01*
X285446428Y-11526190D01*
X285570238Y-11588095D01*
X285817857Y-11588095D01*
X285941666Y-11526190D01*
X286003571Y-11464285D01*
X286065476Y-11340476D01*
X286065476Y-11030952D01*
X286003571Y-10907142D01*
X285941666Y-10845238D01*
X285817857Y-10783333D01*
X285570238Y-10783333D01*
X285446428Y-10845238D01*
X285384523Y-10907142D01*
X285322619Y-11030952D01*
D10*
D11*
X60000000Y-198007200D02*
X60000000Y-200007200D01*
D10*
D11*
X110000000Y-198007200D02*
X110000000Y-200007200D01*
D10*
D11*
X160000000Y-198007200D02*
X160000000Y-200007200D01*
D10*
D11*
X210000000Y-198007200D02*
X210000000Y-200007200D01*
D10*
D11*
X260000000Y-198007200D02*
X260000000Y-200007200D01*
D10*
D11*
X36065476Y-199595295D02*
X35322619Y-199595295D01*
X35694047Y-199595295D02*
X35694047Y-198295295D01*
X35570238Y-198481009D01*
X35446428Y-198604819D01*
X35322619Y-198666723D01*
D10*
D11*
X85322619Y-198419104D02*
X85384523Y-198357200D01*
X85508333Y-198295295D01*
X85817857Y-198295295D01*
X85941666Y-198357200D01*
X86003571Y-198419104D01*
X86065476Y-198542914D01*
X86065476Y-198666723D01*
X86003571Y-198852438D01*
X85260714Y-199595295D01*
X86065476Y-199595295D01*
D10*
D11*
X135260714Y-198295295D02*
X136065476Y-198295295D01*
X135632142Y-198790533D01*
X135817857Y-198790533D01*
X135941666Y-198852438D01*
X136003571Y-198914342D01*
X136065476Y-199038152D01*
X136065476Y-199347676D01*
X136003571Y-199471485D01*
X135941666Y-199533390D01*
X135817857Y-199595295D01*
X135446428Y-199595295D01*
X135322619Y-199533390D01*
X135260714Y-199471485D01*
D10*
D11*
X185941666Y-198728628D02*
X185941666Y-199595295D01*
X185632142Y-198233390D02*
X185322619Y-199161961D01*
X186127380Y-199161961D01*
D10*
D11*
X236003571Y-198295295D02*
X235384523Y-198295295D01*
X235322619Y-198914342D01*
X235384523Y-198852438D01*
X235508333Y-198790533D01*
X235817857Y-198790533D01*
X235941666Y-198852438D01*
X236003571Y-198914342D01*
X236065476Y-199038152D01*
X236065476Y-199347676D01*
X236003571Y-199471485D01*
X235941666Y-199533390D01*
X235817857Y-199595295D01*
X235508333Y-199595295D01*
X235384523Y-199533390D01*
X235322619Y-199471485D01*
D10*
D11*
X285941666Y-198295295D02*
X285694047Y-198295295D01*
X285570238Y-198357200D01*
X285508333Y-198419104D01*
X285384523Y-198604819D01*
X285322619Y-198852438D01*
X285322619Y-199347676D01*
X285384523Y-199471485D01*
X285446428Y-199533390D01*
X285570238Y-199595295D01*
X285817857Y-199595295D01*
X285941666Y-199533390D01*
X286003571Y-199471485D01*
X286065476Y-199347676D01*
X286065476Y-199038152D01*
X286003571Y-198914342D01*
X285941666Y-198852438D01*
X285817857Y-198790533D01*
X285570238Y-198790533D01*
X285446428Y-198852438D01*
X285384523Y-198914342D01*
X285322619Y-199038152D01*
D10*
D11*
X10000000Y-60000000D02*
X12000000Y-60000000D01*
D10*
D11*
X10000000Y-110000000D02*
X12000000Y-110000000D01*
D10*
D11*
X10000000Y-160000000D02*
X12000000Y-160000000D01*
D10*
D11*
X10690476Y-35216666D02*
X11309523Y-35216666D01*
X10566666Y-35588095D02*
X11000000Y-34288095D01*
X11433333Y-35588095D01*
D10*
D11*
X11092857Y-84907142D02*
X11278571Y-84969047D01*
X11340476Y-85030952D01*
X11402380Y-85154761D01*
X11402380Y-85340476D01*
X11340476Y-85464285D01*
X11278571Y-85526190D01*
X11154761Y-85588095D01*
X10659523Y-85588095D01*
X10659523Y-84288095D01*
X11092857Y-84288095D01*
X11216666Y-84350000D01*
X11278571Y-84411904D01*
X11340476Y-84535714D01*
X11340476Y-84659523D01*
X11278571Y-84783333D01*
X11216666Y-84845238D01*
X11092857Y-84907142D01*
X10659523Y-84907142D01*
D10*
D11*
X11402380Y-135464285D02*
X11340476Y-135526190D01*
X11154761Y-135588095D01*
X11030952Y-135588095D01*
X10845238Y-135526190D01*
X10721428Y-135402380D01*
X10659523Y-135278571D01*
X10597619Y-135030952D01*
X10597619Y-134845238D01*
X10659523Y-134597619D01*
X10721428Y-134473809D01*
X10845238Y-134350000D01*
X11030952Y-134288095D01*
X11154761Y-134288095D01*
X11340476Y-134350000D01*
X11402380Y-134411904D01*
D10*
D11*
X10659523Y-185588095D02*
X10659523Y-184288095D01*
X10969047Y-184288095D01*
X11154761Y-184350000D01*
X11278571Y-184473809D01*
X11340476Y-184597619D01*
X11402380Y-184845238D01*
X11402380Y-185030952D01*
X11340476Y-185278571D01*
X11278571Y-185402380D01*
X11154761Y-185526190D01*
X10969047Y-185588095D01*
X10659523Y-185588095D01*
D10*
D11*
X287002200Y-60000000D02*
X285002200Y-60000000D01*
D10*
D11*
X287002200Y-110000000D02*
X285002200Y-110000000D01*
D10*
D11*
X287002200Y-160000000D02*
X285002200Y-160000000D01*
D10*
D11*
X285692676Y-35216666D02*
X286311723Y-35216666D01*
X285568866Y-35588095D02*
X286002200Y-34288095D01*
X286435533Y-35588095D01*
D10*
D11*
X286095057Y-84907142D02*
X286280771Y-84969047D01*
X286342676Y-85030952D01*
X286404580Y-85154761D01*
X286404580Y-85340476D01*
X286342676Y-85464285D01*
X286280771Y-85526190D01*
X286156961Y-85588095D01*
X285661723Y-85588095D01*
X285661723Y-84288095D01*
X286095057Y-84288095D01*
X286218866Y-84350000D01*
X286280771Y-84411904D01*
X286342676Y-84535714D01*
X286342676Y-84659523D01*
X286280771Y-84783333D01*
X286218866Y-84845238D01*
X286095057Y-84907142D01*
X285661723Y-84907142D01*
D10*
D11*
X286404580Y-135464285D02*
X286342676Y-135526190D01*
X286156961Y-135588095D01*
X286033152Y-135588095D01*
X285847438Y-135526190D01*
X285723628Y-135402380D01*
X285661723Y-135278571D01*
X285599819Y-135030952D01*
X285599819Y-134845238D01*
X285661723Y-134597619D01*
X285723628Y-134473809D01*
X285847438Y-134350000D01*
X286033152Y-134288095D01*
X286156961Y-134288095D01*
X286342676Y-134350000D01*
X286404580Y-134411904D01*
D10*
D11*
X285661723Y-185588095D02*
X285661723Y-184288095D01*
X285971247Y-184288095D01*
X286156961Y-184350000D01*
X286280771Y-184473809D01*
X286342676Y-184597619D01*
X286404580Y-184845238D01*
X286404580Y-185030952D01*
X286342676Y-185278571D01*
X286280771Y-185402380D01*
X286156961Y-185526190D01*
X285971247Y-185588095D01*
X285661723Y-185588095D01*
D10*
D11*
X200434342Y-193785771D02*
X200434342Y-192285771D01*
X200791485Y-192285771D01*
X201005771Y-192357200D01*
X201148628Y-192500057D01*
X201220057Y-192642914D01*
X201291485Y-192928628D01*
X201291485Y-193142914D01*
X201220057Y-193428628D01*
X201148628Y-193571485D01*
X201005771Y-193714342D01*
X200791485Y-193785771D01*
X200434342Y-193785771D01*
X202577200Y-193785771D02*
X202577200Y-193000057D01*
X202505771Y-192857200D01*
X202362914Y-192785771D01*
X202077200Y-192785771D01*
X201934342Y-192857200D01*
X202577200Y-193714342D02*
X202434342Y-193785771D01*
X202077200Y-193785771D01*
X201934342Y-193714342D01*
X201862914Y-193571485D01*
X201862914Y-193428628D01*
X201934342Y-193285771D01*
X202077200Y-193214342D01*
X202434342Y-193214342D01*
X202577200Y-193142914D01*
X203077200Y-192785771D02*
X203648628Y-192785771D01*
X203291485Y-192285771D02*
X203291485Y-193571485D01*
X203362914Y-193714342D01*
X203505771Y-193785771D01*
X203648628Y-193785771D01*
X204720057Y-193714342D02*
X204577200Y-193785771D01*
X204291485Y-193785771D01*
X204148628Y-193714342D01*
X204077200Y-193571485D01*
X204077200Y-193000057D01*
X204148628Y-192857200D01*
X204291485Y-192785771D01*
X204577200Y-192785771D01*
X204720057Y-192857200D01*
X204791485Y-193000057D01*
X204791485Y-193142914D01*
X204077200Y-193285771D01*
X205434342Y-193642914D02*
X205505771Y-193714342D01*
X205434342Y-193785771D01*
X205362914Y-193714342D01*
X205434342Y-193642914D01*
X205434342Y-193785771D01*
X205434342Y-192857200D02*
X205505771Y-192928628D01*
X205434342Y-193000057D01*
X205362914Y-192928628D01*
X205434342Y-192857200D01*
X205434342Y-193000057D01*
D10*
D11*
X177002200Y-194507200D02*
X285002200Y-194507200D01*
D10*
D11*
X178434342Y-196585771D02*
X178434342Y-195085771D01*
X179291485Y-196585771D02*
X178648628Y-195728628D01*
X179291485Y-195085771D02*
X178434342Y-195942914D01*
X179934342Y-196585771D02*
X179934342Y-195585771D01*
X179934342Y-195085771D02*
X179862914Y-195157200D01*
X179934342Y-195228628D01*
X180005771Y-195157200D01*
X179934342Y-195085771D01*
X179934342Y-195228628D01*
X181505771Y-196442914D02*
X181434342Y-196514342D01*
X181220057Y-196585771D01*
X181077200Y-196585771D01*
X180862914Y-196514342D01*
X180720057Y-196371485D01*
X180648628Y-196228628D01*
X180577200Y-195942914D01*
X180577200Y-195728628D01*
X180648628Y-195442914D01*
X180720057Y-195300057D01*
X180862914Y-195157200D01*
X181077200Y-195085771D01*
X181220057Y-195085771D01*
X181434342Y-195157200D01*
X181505771Y-195228628D01*
X182791485Y-196585771D02*
X182791485Y-195800057D01*
X182720057Y-195657200D01*
X182577200Y-195585771D01*
X182291485Y-195585771D01*
X182148628Y-195657200D01*
X182791485Y-196514342D02*
X182648628Y-196585771D01*
X182291485Y-196585771D01*
X182148628Y-196514342D01*
X182077200Y-196371485D01*
X182077200Y-196228628D01*
X182148628Y-196085771D01*
X182291485Y-196014342D01*
X182648628Y-196014342D01*
X182791485Y-195942914D01*
X184148628Y-196585771D02*
X184148628Y-195085771D01*
X184148628Y-196514342D02*
X184005771Y-196585771D01*
X183720057Y-196585771D01*
X183577200Y-196514342D01*
X183505771Y-196442914D01*
X183434342Y-196300057D01*
X183434342Y-195871485D01*
X183505771Y-195728628D01*
X183577200Y-195657200D01*
X183720057Y-195585771D01*
X184005771Y-195585771D01*
X184148628Y-195657200D01*
X186005771Y-195800057D02*
X186505771Y-195800057D01*
X186720057Y-196585771D02*
X186005771Y-196585771D01*
X186005771Y-195085771D01*
X186720057Y-195085771D01*
X187362914Y-196442914D02*
X187434342Y-196514342D01*
X187362914Y-196585771D01*
X187291485Y-196514342D01*
X187362914Y-196442914D01*
X187362914Y-196585771D01*
X188077200Y-196585771D02*
X188077200Y-195085771D01*
X188434342Y-195085771D01*
X188648628Y-195157200D01*
X188791485Y-195300057D01*
X188862914Y-195442914D01*
X188934342Y-195728628D01*
X188934342Y-195942914D01*
X188862914Y-196228628D01*
X188791485Y-196371485D01*
X188648628Y-196514342D01*
X188434342Y-196585771D01*
X188077200Y-196585771D01*
X189577200Y-196442914D02*
X189648628Y-196514342D01*
X189577200Y-196585771D01*
X189505771Y-196514342D01*
X189577200Y-196442914D01*
X189577200Y-196585771D01*
X190220057Y-196157200D02*
X190934342Y-196157200D01*
X190077200Y-196585771D02*
X190577200Y-195085771D01*
X191077200Y-196585771D01*
X191577200Y-196442914D02*
X191648628Y-196514342D01*
X191577200Y-196585771D01*
X191505771Y-196514342D01*
X191577200Y-196442914D01*
X191577200Y-196585771D01*
X194577200Y-196585771D02*
X194577200Y-195085771D01*
X194720057Y-196014342D02*
X195148628Y-196585771D01*
X195148628Y-195585771D02*
X194577200Y-196157200D01*
X195791485Y-196585771D02*
X195791485Y-195585771D01*
X195791485Y-195085771D02*
X195720057Y-195157200D01*
X195791485Y-195228628D01*
X195862914Y-195157200D01*
X195791485Y-195085771D01*
X195791485Y-195228628D01*
X197148628Y-196514342D02*
X197005771Y-196585771D01*
X196720057Y-196585771D01*
X196577200Y-196514342D01*
X196505771Y-196442914D01*
X196434342Y-196300057D01*
X196434342Y-195871485D01*
X196505771Y-195728628D01*
X196577200Y-195657200D01*
X196720057Y-195585771D01*
X197005771Y-195585771D01*
X197148628Y-195657200D01*
X198434342Y-196585771D02*
X198434342Y-195800057D01*
X198362914Y-195657200D01*
X198220057Y-195585771D01*
X197934342Y-195585771D01*
X197791485Y-195657200D01*
X198434342Y-196514342D02*
X198291485Y-196585771D01*
X197934342Y-196585771D01*
X197791485Y-196514342D01*
X197720057Y-196371485D01*
X197720057Y-196228628D01*
X197791485Y-196085771D01*
X197934342Y-196014342D01*
X198291485Y-196014342D01*
X198434342Y-195942914D01*
X199791485Y-196585771D02*
X199791485Y-195085771D01*
X199791485Y-196514342D02*
X199648628Y-196585771D01*
X199362914Y-196585771D01*
X199220057Y-196514342D01*
X199148628Y-196442914D01*
X199077200Y-196300057D01*
X199077200Y-195871485D01*
X199148628Y-195728628D01*
X199220057Y-195657200D01*
X199362914Y-195585771D01*
X199648628Y-195585771D01*
X199791485Y-195657200D01*
X202077200Y-197157200D02*
X202005771Y-197085771D01*
X201862914Y-196871485D01*
X201791485Y-196728628D01*
X201720057Y-196514342D01*
X201648628Y-196157200D01*
X201648628Y-195871485D01*
X201720057Y-195514342D01*
X201791485Y-195300057D01*
X201862914Y-195157200D01*
X202005771Y-194942914D01*
X202077200Y-194871485D01*
X203362914Y-195085771D02*
X202648628Y-195085771D01*
X202577200Y-195800057D01*
X202648628Y-195728628D01*
X202791485Y-195657200D01*
X203148628Y-195657200D01*
X203291485Y-195728628D01*
X203362914Y-195800057D01*
X203434342Y-195942914D01*
X203434342Y-196300057D01*
X203362914Y-196442914D01*
X203291485Y-196514342D01*
X203148628Y-196585771D01*
X202791485Y-196585771D01*
X202648628Y-196514342D01*
X202577200Y-196442914D01*
X204077200Y-196442914D02*
X204148628Y-196514342D01*
X204077200Y-196585771D01*
X204005771Y-196514342D01*
X204077200Y-196442914D01*
X204077200Y-196585771D01*
X205577200Y-196585771D02*
X204720057Y-196585771D01*
X205148628Y-196585771D02*
X205148628Y-195085771D01*
X205005771Y-195300057D01*
X204862914Y-195442914D01*
X204720057Y-195514342D01*
X206220057Y-196442914D02*
X206291485Y-196514342D01*
X206220057Y-196585771D01*
X206148628Y-196514342D01*
X206220057Y-196442914D01*
X206220057Y-196585771D01*
X207720057Y-196585771D02*
X206862914Y-196585771D01*
X207291485Y-196585771D02*
X207291485Y-195085771D01*
X207148628Y-195300057D01*
X207005771Y-195442914D01*
X206862914Y-195514342D01*
X208648628Y-195085771D02*
X208791485Y-195085771D01*
X208934342Y-195157200D01*
X209005771Y-195228628D01*
X209077200Y-195371485D01*
X209148628Y-195657200D01*
X209148628Y-196014342D01*
X209077200Y-196300057D01*
X209005771Y-196442914D01*
X208934342Y-196514342D01*
X208791485Y-196585771D01*
X208648628Y-196585771D01*
X208505771Y-196514342D01*
X208434342Y-196442914D01*
X208362914Y-196300057D01*
X208291485Y-196014342D01*
X208291485Y-195657200D01*
X208362914Y-195371485D01*
X208434342Y-195228628D01*
X208505771Y-195157200D01*
X208648628Y-195085771D01*
X209648628Y-197157200D02*
X209720057Y-197085771D01*
X209862914Y-196871485D01*
X209934342Y-196728628D01*
X210005771Y-196514342D01*
X210077200Y-196157200D01*
X210077200Y-195871485D01*
X210005771Y-195514342D01*
X209934342Y-195300057D01*
X209862914Y-195157200D01*
X209720057Y-194942914D01*
X209648628Y-194871485D01*
X210791485Y-196014342D02*
X211934342Y-196014342D01*
X213434342Y-196585771D02*
X212577200Y-196585771D01*
X213005771Y-196585771D02*
X213005771Y-195085771D01*
X212862914Y-195300057D01*
X212720057Y-195442914D01*
X212577200Y-195514342D01*
D10*
D11*
X177002200Y-191507200D02*
X285002200Y-191507200D01*
D10*
D12*
X264411485Y-193785771D02*
X263911485Y-193071485D01*
X263554342Y-193785771D02*
X263554342Y-192285771D01*
X264125771Y-192285771D01*
X264268628Y-192357200D01*
X264340057Y-192428628D01*
X264411485Y-192571485D01*
X264411485Y-192785771D01*
X264340057Y-192928628D01*
X264268628Y-193000057D01*
X264125771Y-193071485D01*
X263554342Y-193071485D01*
X265625771Y-193714342D02*
X265482914Y-193785771D01*
X265197200Y-193785771D01*
X265054342Y-193714342D01*
X264982914Y-193571485D01*
X264982914Y-193000057D01*
X265054342Y-192857200D01*
X265197200Y-192785771D01*
X265482914Y-192785771D01*
X265625771Y-192857200D01*
X265697200Y-193000057D01*
X265697200Y-193142914D01*
X264982914Y-193285771D01*
X266197200Y-192785771D02*
X266554342Y-193785771D01*
X266911485Y-192785771D01*
X267482914Y-193642914D02*
X267554342Y-193714342D01*
X267482914Y-193785771D01*
X267411485Y-193714342D01*
X267482914Y-193642914D01*
X267482914Y-193785771D01*
X267482914Y-192857200D02*
X267554342Y-192928628D01*
X267482914Y-193000057D01*
X267411485Y-192928628D01*
X267482914Y-192857200D01*
X267482914Y-193000057D01*
D10*
D11*
X178362914Y-193714342D02*
X178577200Y-193785771D01*
X178934342Y-193785771D01*
X179077200Y-193714342D01*
X179148628Y-193642914D01*
X179220057Y-193500057D01*
X179220057Y-193357200D01*
X179148628Y-193214342D01*
X179077200Y-193142914D01*
X178934342Y-193071485D01*
X178648628Y-193000057D01*
X178505771Y-192928628D01*
X178434342Y-192857200D01*
X178362914Y-192714342D01*
X178362914Y-192571485D01*
X178434342Y-192428628D01*
X178505771Y-192357200D01*
X178648628Y-192285771D01*
X179005771Y-192285771D01*
X179220057Y-192357200D01*
X179862914Y-193785771D02*
X179862914Y-192785771D01*
X179862914Y-192285771D02*
X179791485Y-192357200D01*
X179862914Y-192428628D01*
X179934342Y-192357200D01*
X179862914Y-192285771D01*
X179862914Y-192428628D01*
X180434342Y-192785771D02*
X181220057Y-192785771D01*
X180434342Y-193785771D01*
X181220057Y-193785771D01*
X182362914Y-193714342D02*
X182220057Y-193785771D01*
X181934342Y-193785771D01*
X181791485Y-193714342D01*
X181720057Y-193571485D01*
X181720057Y-193000057D01*
X181791485Y-192857200D01*
X181934342Y-192785771D01*
X182220057Y-192785771D01*
X182362914Y-192857200D01*
X182434342Y-193000057D01*
X182434342Y-193142914D01*
X181720057Y-193285771D01*
X183077200Y-193642914D02*
X183148628Y-193714342D01*
X183077200Y-193785771D01*
X183005771Y-193714342D01*
X183077200Y-193642914D01*
X183077200Y-193785771D01*
X183077200Y-192857200D02*
X183148628Y-192928628D01*
X183077200Y-193000057D01*
X183005771Y-192928628D01*
X183077200Y-192857200D01*
X183077200Y-193000057D01*
X184862914Y-193357200D02*
X185577200Y-193357200D01*
X184720057Y-193785771D02*
X185220057Y-192285771D01*
X185720057Y-193785771D01*
X186862914Y-192785771D02*
X186862914Y-193785771D01*
X186505771Y-192214342D02*
X186148628Y-193285771D01*
X187077200Y-193285771D01*
D10*
D11*
X263434342Y-196585771D02*
X263434342Y-195085771D01*
X264791485Y-196585771D02*
X264791485Y-195085771D01*
X264791485Y-196514342D02*
X264648628Y-196585771D01*
X264362914Y-196585771D01*
X264220057Y-196514342D01*
X264148628Y-196442914D01*
X264077200Y-196300057D01*
X264077200Y-195871485D01*
X264148628Y-195728628D01*
X264220057Y-195657200D01*
X264362914Y-195585771D01*
X264648628Y-195585771D01*
X264791485Y-195657200D01*
X265505771Y-196442914D02*
X265577200Y-196514342D01*
X265505771Y-196585771D01*
X265434342Y-196514342D01*
X265505771Y-196442914D01*
X265505771Y-196585771D01*
X265505771Y-195657200D02*
X265577200Y-195728628D01*
X265505771Y-195800057D01*
X265434342Y-195728628D01*
X265505771Y-195657200D01*
X265505771Y-195800057D01*
X268148628Y-196585771D02*
X267291485Y-196585771D01*
X267720057Y-196585771D02*
X267720057Y-195085771D01*
X267577200Y-195300057D01*
X267434342Y-195442914D01*
X267291485Y-195514342D01*
X269862914Y-195014342D02*
X268577200Y-196942914D01*
X271148628Y-196585771D02*
X270291485Y-196585771D01*
X270720057Y-196585771D02*
X270720057Y-195085771D01*
X270577200Y-195300057D01*
X270434342Y-195442914D01*
X270291485Y-195514342D01*
D10*
D11*
X177002200Y-187507200D02*
X285002200Y-187507200D01*
D10*
D13*
X178714580Y-188211961D02*
X179857438Y-188211961D01*
X179036009Y-190211961D02*
X179286009Y-188211961D01*
X180274104Y-190211961D02*
X180440771Y-188878628D01*
X180524104Y-188211961D02*
X180416961Y-188307200D01*
X180500295Y-188402438D01*
X180607438Y-188307200D01*
X180524104Y-188211961D01*
X180500295Y-188402438D01*
X181107438Y-188878628D02*
X181869342Y-188878628D01*
X181476485Y-188211961D02*
X181262200Y-189926247D01*
X181333628Y-190116723D01*
X181512200Y-190211961D01*
X181702676Y-190211961D01*
X182655057Y-190211961D02*
X182476485Y-190116723D01*
X182405057Y-189926247D01*
X182619342Y-188211961D01*
X184190771Y-190116723D02*
X183988390Y-190211961D01*
X183607438Y-190211961D01*
X183428866Y-190116723D01*
X183357438Y-189926247D01*
X183452676Y-189164342D01*
X183571723Y-188973866D01*
X183774104Y-188878628D01*
X184155057Y-188878628D01*
X184333628Y-188973866D01*
X184405057Y-189164342D01*
X184381247Y-189354819D01*
X183405057Y-189545295D01*
X185155057Y-190021485D02*
X185238390Y-190116723D01*
X185131247Y-190211961D01*
X185047914Y-190116723D01*
X185155057Y-190021485D01*
X185131247Y-190211961D01*
X185286009Y-188973866D02*
X185369342Y-189069104D01*
X185262200Y-189164342D01*
X185178866Y-189069104D01*
X185286009Y-188973866D01*
X185262200Y-189164342D01*
D10*
D11*
X178934342Y-185600057D02*
X178434342Y-185600057D01*
X178434342Y-186385771D02*
X178434342Y-184885771D01*
X179148628Y-184885771D01*
X179720057Y-186385771D02*
X179720057Y-185385771D01*
X179720057Y-184885771D02*
X179648628Y-184957200D01*
X179720057Y-185028628D01*
X179791485Y-184957200D01*
X179720057Y-184885771D01*
X179720057Y-185028628D01*
X180648628Y-186385771D02*
X180505771Y-186314342D01*
X180434342Y-186171485D01*
X180434342Y-184885771D01*
X181791485Y-186314342D02*
X181648628Y-186385771D01*
X181362914Y-186385771D01*
X181220057Y-186314342D01*
X181148628Y-186171485D01*
X181148628Y-185600057D01*
X181220057Y-185457200D01*
X181362914Y-185385771D01*
X181648628Y-185385771D01*
X181791485Y-185457200D01*
X181862914Y-185600057D01*
X181862914Y-185742914D01*
X181148628Y-185885771D01*
X182505771Y-186242914D02*
X182577200Y-186314342D01*
X182505771Y-186385771D01*
X182434342Y-186314342D01*
X182505771Y-186242914D01*
X182505771Y-186385771D01*
X182505771Y-185457200D02*
X182577200Y-185528628D01*
X182505771Y-185600057D01*
X182434342Y-185528628D01*
X182505771Y-185457200D01*
X182505771Y-185600057D01*
X184291485Y-185957200D02*
X185005771Y-185957200D01*
X184148628Y-186385771D02*
X184648628Y-184885771D01*
X185148628Y-186385771D01*
X185862914Y-186385771D02*
X185720057Y-186314342D01*
X185648628Y-186171485D01*
X185648628Y-184885771D01*
X187077200Y-186385771D02*
X187077200Y-185600057D01*
X187005771Y-185457200D01*
X186862914Y-185385771D01*
X186577200Y-185385771D01*
X186434342Y-185457200D01*
X187077200Y-186314342D02*
X186934342Y-186385771D01*
X186577200Y-186385771D01*
X186434342Y-186314342D01*
X186362914Y-186171485D01*
X186362914Y-186028628D01*
X186434342Y-185885771D01*
X186577200Y-185814342D01*
X186934342Y-185814342D01*
X187077200Y-185742914D01*
X187791485Y-186385771D02*
X187791485Y-185385771D01*
X187791485Y-185671485D02*
X187862914Y-185528628D01*
X187934342Y-185457200D01*
X188077200Y-185385771D01*
X188220057Y-185385771D01*
X188720057Y-186385771D02*
X188720057Y-185385771D01*
X188720057Y-185528628D02*
X188791485Y-185457200D01*
X188934342Y-185385771D01*
X189148628Y-185385771D01*
X189291485Y-185457200D01*
X189362914Y-185600057D01*
X189362914Y-186385771D01*
X189362914Y-185600057D02*
X189434342Y-185457200D01*
X189577200Y-185385771D01*
X189791485Y-185385771D01*
X189934342Y-185457200D01*
X190005771Y-185600057D01*
X190005771Y-186385771D01*
X190720057Y-185814342D02*
X191862914Y-185814342D01*
X193434342Y-186242914D02*
X193362914Y-186314342D01*
X193148628Y-186385771D01*
X193005771Y-186385771D01*
X192791485Y-186314342D01*
X192648628Y-186171485D01*
X192577200Y-186028628D01*
X192505771Y-185742914D01*
X192505771Y-185528628D01*
X192577200Y-185242914D01*
X192648628Y-185100057D01*
X192791485Y-184957200D01*
X193005771Y-184885771D01*
X193148628Y-184885771D01*
X193362914Y-184957200D01*
X193434342Y-185028628D01*
X194291485Y-186385771D02*
X194148628Y-186314342D01*
X194077200Y-186171485D01*
X194077200Y-184885771D01*
X195077200Y-186385771D02*
X194934342Y-186314342D01*
X194862914Y-186242914D01*
X194791485Y-186100057D01*
X194791485Y-185671485D01*
X194862914Y-185528628D01*
X194934342Y-185457200D01*
X195077200Y-185385771D01*
X195291485Y-185385771D01*
X195434342Y-185457200D01*
X195505771Y-185528628D01*
X195577200Y-185671485D01*
X195577200Y-186100057D01*
X195505771Y-186242914D01*
X195434342Y-186314342D01*
X195291485Y-186385771D01*
X195077200Y-186385771D01*
X196862914Y-186314342D02*
X196720057Y-186385771D01*
X196434342Y-186385771D01*
X196291485Y-186314342D01*
X196220057Y-186242914D01*
X196148628Y-186100057D01*
X196148628Y-185671485D01*
X196220057Y-185528628D01*
X196291485Y-185457200D01*
X196434342Y-185385771D01*
X196720057Y-185385771D01*
X196862914Y-185457200D01*
X197505771Y-186385771D02*
X197505771Y-184885771D01*
X197648628Y-185814342D02*
X198077200Y-186385771D01*
X198077200Y-185385771D02*
X197505771Y-185957200D01*
X198720057Y-186242914D02*
X198791485Y-186314342D01*
X198720057Y-186385771D01*
X198648628Y-186314342D01*
X198720057Y-186242914D01*
X198720057Y-186385771D01*
X199434342Y-186385771D02*
X199434342Y-184885771D01*
X199577200Y-185814342D02*
X200005771Y-186385771D01*
X200005771Y-185385771D02*
X199434342Y-185957200D01*
X200648628Y-186385771D02*
X200648628Y-185385771D01*
X200648628Y-184885771D02*
X200577200Y-184957200D01*
X200648628Y-185028628D01*
X200720057Y-184957200D01*
X200648628Y-184885771D01*
X200648628Y-185028628D01*
X202005771Y-186314342D02*
X201862914Y-186385771D01*
X201577200Y-186385771D01*
X201434342Y-186314342D01*
X201362914Y-186242914D01*
X201291485Y-186100057D01*
X201291485Y-185671485D01*
X201362914Y-185528628D01*
X201434342Y-185457200D01*
X201577200Y-185385771D01*
X201862914Y-185385771D01*
X202005771Y-185457200D01*
X203291485Y-186385771D02*
X203291485Y-185600057D01*
X203220057Y-185457200D01*
X203077200Y-185385771D01*
X202791485Y-185385771D01*
X202648628Y-185457200D01*
X203291485Y-186314342D02*
X203148628Y-186385771D01*
X202791485Y-186385771D01*
X202648628Y-186314342D01*
X202577200Y-186171485D01*
X202577200Y-186028628D01*
X202648628Y-185885771D01*
X202791485Y-185814342D01*
X203148628Y-185814342D01*
X203291485Y-185742914D01*
X204648628Y-186385771D02*
X204648628Y-184885771D01*
X204648628Y-186314342D02*
X204505771Y-186385771D01*
X204220057Y-186385771D01*
X204077200Y-186314342D01*
X204005771Y-186242914D01*
X203934342Y-186100057D01*
X203934342Y-185671485D01*
X204005771Y-185528628D01*
X204077200Y-185457200D01*
X204220057Y-185385771D01*
X204505771Y-185385771D01*
X204648628Y-185457200D01*
X205005771Y-186528628D02*
X206148628Y-186528628D01*
X206505771Y-185385771D02*
X206505771Y-186885771D01*
X206505771Y-185457200D02*
X206648628Y-185385771D01*
X206934342Y-185385771D01*
X207077200Y-185457200D01*
X207148628Y-185528628D01*
X207220057Y-185671485D01*
X207220057Y-186100057D01*
X207148628Y-186242914D01*
X207077200Y-186314342D01*
X206934342Y-186385771D01*
X206648628Y-186385771D01*
X206505771Y-186314342D01*
X208505771Y-186314342D02*
X208362914Y-186385771D01*
X208077200Y-186385771D01*
X207934342Y-186314342D01*
X207862914Y-186242914D01*
X207791485Y-186100057D01*
X207791485Y-185671485D01*
X207862914Y-185528628D01*
X207934342Y-185457200D01*
X208077200Y-185385771D01*
X208362914Y-185385771D01*
X208505771Y-185457200D01*
X209148628Y-186385771D02*
X209148628Y-184885771D01*
X209148628Y-185457200D02*
X209291485Y-185385771D01*
X209577200Y-185385771D01*
X209720057Y-185457200D01*
X209791485Y-185528628D01*
X209862914Y-185671485D01*
X209862914Y-186100057D01*
X209791485Y-186242914D01*
X209720057Y-186314342D01*
X209577200Y-186385771D01*
X209291485Y-186385771D01*
X209148628Y-186314342D01*
D10*
D11*
X177002200Y-181507200D02*
X285002200Y-181507200D01*
D10*
D11*
X178362914Y-183614342D02*
X178577200Y-183685771D01*
X178934342Y-183685771D01*
X179077200Y-183614342D01*
X179148628Y-183542914D01*
X179220057Y-183400057D01*
X179220057Y-183257200D01*
X179148628Y-183114342D01*
X179077200Y-183042914D01*
X178934342Y-182971485D01*
X178648628Y-182900057D01*
X178505771Y-182828628D01*
X178434342Y-182757200D01*
X178362914Y-182614342D01*
X178362914Y-182471485D01*
X178434342Y-182328628D01*
X178505771Y-182257200D01*
X178648628Y-182185771D01*
X179005771Y-182185771D01*
X179220057Y-182257200D01*
X179862914Y-183685771D02*
X179862914Y-182185771D01*
X180505771Y-183685771D02*
X180505771Y-182900057D01*
X180434342Y-182757200D01*
X180291485Y-182685771D01*
X180077200Y-182685771D01*
X179934342Y-182757200D01*
X179862914Y-182828628D01*
X181791485Y-183614342D02*
X181648628Y-183685771D01*
X181362914Y-183685771D01*
X181220057Y-183614342D01*
X181148628Y-183471485D01*
X181148628Y-182900057D01*
X181220057Y-182757200D01*
X181362914Y-182685771D01*
X181648628Y-182685771D01*
X181791485Y-182757200D01*
X181862914Y-182900057D01*
X181862914Y-183042914D01*
X181148628Y-183185771D01*
X183077200Y-183614342D02*
X182934342Y-183685771D01*
X182648628Y-183685771D01*
X182505771Y-183614342D01*
X182434342Y-183471485D01*
X182434342Y-182900057D01*
X182505771Y-182757200D01*
X182648628Y-182685771D01*
X182934342Y-182685771D01*
X183077200Y-182757200D01*
X183148628Y-182900057D01*
X183148628Y-183042914D01*
X182434342Y-183185771D01*
X183577200Y-182685771D02*
X184148628Y-182685771D01*
X183791485Y-182185771D02*
X183791485Y-183471485D01*
X183862914Y-183614342D01*
X184005771Y-183685771D01*
X184148628Y-183685771D01*
X184648628Y-183542914D02*
X184720057Y-183614342D01*
X184648628Y-183685771D01*
X184577200Y-183614342D01*
X184648628Y-183542914D01*
X184648628Y-183685771D01*
X184648628Y-182757200D02*
X184720057Y-182828628D01*
X184648628Y-182900057D01*
X184577200Y-182828628D01*
X184648628Y-182757200D01*
X184648628Y-182900057D01*
D10*
D11*
X197002200Y-191507200D02*
X197002200Y-194507200D01*
D10*
D11*
X261002200Y-191507200D02*
X261002200Y-198007200D01*
D14*
%TO.C,Q1*%
X132410100Y-123604100D02*
X132410100Y-117508100D01*
X128092100Y-123604100D02*
X128092100Y-117508100D01*
D15*
X131902100Y-123604100D02*
X131902100Y-117508100D01*
X128600100Y-117508100D02*
X128600100Y-123604100D01*
X129489100Y-120810100D02*
X129489100Y-120302100D01*
X129489100Y-120302100D02*
X131013100Y-120302100D01*
X131013100Y-120302100D02*
X131013100Y-120810100D01*
X131013100Y-120810100D02*
X129489100Y-120810100D01*
X129489100Y-119921100D02*
X130251100Y-119921100D01*
X130251100Y-119921100D02*
X131013100Y-119921100D01*
X129489100Y-121191100D02*
X130251100Y-121191100D01*
X130251100Y-121191100D02*
X131013100Y-121191100D01*
X130251100Y-119921100D02*
X130251100Y-119286100D01*
X130251100Y-121191100D02*
X130251100Y-121826100D01*
X128600100Y-117508100D02*
G75*
G02*
X131902100Y-117508100I1651000J0D01*
G01*
X131902100Y-123604100D02*
G75*
G02*
X128600100Y-123604100I-1651000J0D01*
G01*
D14*
X128092100Y-117508100D02*
G75*
G02*
X132410100Y-117508100I2159000J0D01*
G01*
X132410100Y-123604100D02*
G75*
G02*
X128092100Y-123604100I-2159000J0D01*
G01*
D15*
%TO.C,IC1*%
X141376100Y-109431100D02*
X141376100Y-116441100D01*
X141376100Y-116441100D02*
X134366100Y-116441100D01*
X134366100Y-116441100D02*
X134366100Y-109786100D01*
X134721100Y-109431100D02*
X141376100Y-109431100D01*
X134721100Y-109431100D02*
X134366100Y-109786100D01*
X135487100Y-110192900D02*
G75*
G03*
X135487100Y-110192900I-359200J0D01*
G01*
%TO.C,R1*%
X131521100Y-104554100D02*
X131521100Y-106078100D01*
X131267100Y-106332100D02*
X130886100Y-106332100D01*
X130759100Y-106205100D02*
X130886100Y-106332100D01*
X131267100Y-104300100D02*
X130886100Y-104300100D01*
X130759100Y-104427100D02*
X130886100Y-104300100D01*
X127203100Y-106205100D02*
X127076100Y-106332100D01*
X127203100Y-106205100D02*
X130759100Y-106205100D01*
X127203100Y-104427100D02*
X127076100Y-104300100D01*
X127203100Y-104427100D02*
X130759100Y-104427100D01*
X126695100Y-106332100D02*
X127076100Y-106332100D01*
X126695100Y-104300100D02*
X127076100Y-104300100D01*
X126441100Y-104554100D02*
X126441100Y-106078100D01*
D10*
G36*
X126441100Y-105062100D02*
G01*
X126060100Y-105062100D01*
X126060100Y-105570100D01*
X126441100Y-105570100D01*
X126441100Y-105062100D01*
G37*
G36*
X131902100Y-105062100D02*
G01*
X131521100Y-105062100D01*
X131521100Y-105570100D01*
X131902100Y-105570100D01*
X131902100Y-105062100D01*
G37*
D15*
X126441100Y-106078100D02*
G75*
G03*
X126695100Y-106332100I254000J0D01*
G01*
X126441100Y-104554100D02*
G75*
G02*
X126695100Y-104300100I254000J0D01*
G01*
X131267100Y-104300100D02*
G75*
G02*
X131521100Y-104554100I0J-254000D01*
G01*
X131267100Y-106332100D02*
G75*
G03*
X131521100Y-106078100I0J254000D01*
G01*
%TO.C,R2*%
X121234100Y-106903600D02*
X122758100Y-106903600D01*
X123012100Y-107157600D02*
X123012100Y-107538600D01*
X122885100Y-107665600D02*
X123012100Y-107538600D01*
X120980100Y-107157600D02*
X120980100Y-107538600D01*
X121107100Y-107665600D02*
X120980100Y-107538600D01*
X122885100Y-111221600D02*
X123012100Y-111348600D01*
X122885100Y-111221600D02*
X122885100Y-107665600D01*
X121107100Y-111221600D02*
X120980100Y-111348600D01*
X121107100Y-111221600D02*
X121107100Y-107665600D01*
X123012100Y-111729600D02*
X123012100Y-111348600D01*
X120980100Y-111729600D02*
X120980100Y-111348600D01*
X121234100Y-111983600D02*
X122758100Y-111983600D01*
D10*
G36*
X121742100Y-111983600D02*
G01*
X121742100Y-112364600D01*
X122250100Y-112364600D01*
X122250100Y-111983600D01*
X121742100Y-111983600D01*
G37*
G36*
X121742100Y-106522600D02*
G01*
X121742100Y-106903600D01*
X122250100Y-106903600D01*
X122250100Y-106522600D01*
X121742100Y-106522600D01*
G37*
D15*
X122758100Y-111983600D02*
G75*
G03*
X123012100Y-111729600I0J254000D01*
G01*
X121234100Y-111983600D02*
G75*
G02*
X120980100Y-111729600I0J254000D01*
G01*
X120980100Y-107157600D02*
G75*
G02*
X121234100Y-106903600I254000J0D01*
G01*
X123012100Y-107157600D02*
G75*
G03*
X122758100Y-106903600I-254000J0D01*
G01*
%TO.C,R3*%
X126060100Y-107602100D02*
X126060100Y-107856100D01*
X125933100Y-107983100D02*
X126060100Y-107856100D01*
X124282100Y-107602100D02*
X124282100Y-107856100D01*
X124409100Y-107983100D02*
X124282100Y-107856100D01*
X125933100Y-110269100D02*
X126060100Y-110396100D01*
X125933100Y-110269100D02*
X125933100Y-107983100D01*
X124409100Y-110269100D02*
X124282100Y-110396100D01*
X124409100Y-110269100D02*
X124409100Y-107983100D01*
X126060100Y-110650100D02*
X126060100Y-110396100D01*
X124282100Y-110650100D02*
X124282100Y-110396100D01*
X125806100Y-110904100D02*
G75*
G03*
X126060100Y-110650100I0J254000D01*
G01*
X124536100Y-110904100D02*
G75*
G02*
X124282100Y-110650100I0J254000D01*
G01*
X124282100Y-107602100D02*
G75*
G02*
X124536100Y-107348100I254000J0D01*
G01*
X126060100Y-107602100D02*
G75*
G03*
X125806100Y-107348100I-254000J0D01*
G01*
%TO.C,R4*%
X128981100Y-113444100D02*
X128981100Y-114968100D01*
X128727100Y-115222100D02*
X128346100Y-115222100D01*
X128219100Y-115095100D02*
X128346100Y-115222100D01*
X128727100Y-113190100D02*
X128346100Y-113190100D01*
X128219100Y-113317100D02*
X128346100Y-113190100D01*
X124663100Y-115095100D02*
X124536100Y-115222100D01*
X124663100Y-115095100D02*
X128219100Y-115095100D01*
X124663100Y-113317100D02*
X124536100Y-113190100D01*
X124663100Y-113317100D02*
X128219100Y-113317100D01*
X124155100Y-115222100D02*
X124536100Y-115222100D01*
X124155100Y-113190100D02*
X124536100Y-113190100D01*
X123901100Y-113444100D02*
X123901100Y-114968100D01*
D10*
G36*
X123901100Y-113952100D02*
G01*
X123520100Y-113952100D01*
X123520100Y-114460100D01*
X123901100Y-114460100D01*
X123901100Y-113952100D01*
G37*
G36*
X129362100Y-113952100D02*
G01*
X128981100Y-113952100D01*
X128981100Y-114460100D01*
X129362100Y-114460100D01*
X129362100Y-113952100D01*
G37*
D15*
X123901100Y-114968100D02*
G75*
G03*
X124155100Y-115222100I254000J0D01*
G01*
X123901100Y-113444100D02*
G75*
G02*
X124155100Y-113190100I254000J0D01*
G01*
X128727100Y-113190100D02*
G75*
G02*
X128981100Y-113444100I0J-254000D01*
G01*
X128727100Y-115222100D02*
G75*
G03*
X128981100Y-114968100I0J254000D01*
G01*
%TO.C,D1*%
X121996100Y-120556100D02*
X121361100Y-120556100D01*
X120345100Y-121191100D02*
X120345100Y-119921100D01*
X120345100Y-119921100D02*
X121361100Y-120556100D01*
X121361100Y-120556100D02*
X119837100Y-120556100D01*
X121361100Y-120556100D02*
X120345100Y-121191100D01*
X121361100Y-121191100D02*
X121361100Y-120556100D01*
X121361100Y-120556100D02*
X121361100Y-119921100D01*
X119075100Y-121318100D02*
X119075100Y-119794100D01*
X123393100Y-119540100D02*
X119329100Y-119540100D01*
X123647100Y-121318100D02*
X123647100Y-119794100D01*
X123393100Y-121572100D02*
X119329100Y-121572100D01*
D10*
G36*
X123266100Y-119540100D02*
G01*
X122758100Y-119540100D01*
X122758100Y-121572100D01*
X123266100Y-121572100D01*
X123266100Y-119540100D01*
G37*
G36*
X119075100Y-120302100D02*
G01*
X118440100Y-120302100D01*
X118440100Y-120810100D01*
X119075100Y-120810100D01*
X119075100Y-120302100D01*
G37*
G36*
X124282100Y-120302100D02*
G01*
X123647100Y-120302100D01*
X123647100Y-120810100D01*
X124282100Y-120810100D01*
X124282100Y-120302100D01*
G37*
D15*
X123393100Y-119540100D02*
G75*
G02*
X123647100Y-119794100I0J-254000D01*
G01*
X123393100Y-121572100D02*
G75*
G03*
X123647100Y-121318100I0J254000D01*
G01*
X119075100Y-119794100D02*
G75*
G02*
X119329100Y-119540100I254000J0D01*
G01*
X119075100Y-121318100D02*
G75*
G03*
X119329100Y-121572100I254000J0D01*
G01*
%TO.C,D2*%
X118186100Y-118016100D02*
X117551100Y-118016100D01*
X116535100Y-118651100D02*
X116535100Y-117381100D01*
X116535100Y-117381100D02*
X117551100Y-118016100D01*
X117551100Y-118016100D02*
X116027100Y-118016100D01*
X117551100Y-118016100D02*
X116535100Y-118651100D01*
X117551100Y-118651100D02*
X117551100Y-118016100D01*
X117551100Y-118016100D02*
X117551100Y-117381100D01*
X115265100Y-118778100D02*
X115265100Y-117254100D01*
X119583100Y-117000100D02*
X115519100Y-117000100D01*
X119837100Y-118778100D02*
X119837100Y-117254100D01*
X119583100Y-119032100D02*
X115519100Y-119032100D01*
D10*
G36*
X119456100Y-117000100D02*
G01*
X118948100Y-117000100D01*
X118948100Y-119032100D01*
X119456100Y-119032100D01*
X119456100Y-117000100D01*
G37*
G36*
X115265100Y-117762100D02*
G01*
X114630100Y-117762100D01*
X114630100Y-118270100D01*
X115265100Y-118270100D01*
X115265100Y-117762100D01*
G37*
G36*
X120472100Y-117762100D02*
G01*
X119837100Y-117762100D01*
X119837100Y-118270100D01*
X120472100Y-118270100D01*
X120472100Y-117762100D01*
G37*
D15*
X119583100Y-117000100D02*
G75*
G02*
X119837100Y-117254100I0J-254000D01*
G01*
X119583100Y-119032100D02*
G75*
G03*
X119837100Y-118778100I0J254000D01*
G01*
X115265100Y-117254100D02*
G75*
G02*
X115519100Y-117000100I254000J0D01*
G01*
X115265100Y-118778100D02*
G75*
G03*
X115519100Y-119032100I254000J0D01*
G01*
%TO.C,C1*%
X127330100Y-122461100D02*
X127330100Y-123731100D01*
X123520100Y-124239100D02*
X126822100Y-124239100D01*
X123012100Y-122461100D02*
X123012100Y-123731100D01*
X123520100Y-121953100D02*
X126822100Y-121953100D01*
D16*
X125475900Y-123858100D02*
X125475900Y-122334100D01*
X124840900Y-123858100D02*
X124840900Y-122334100D01*
D15*
X123012100Y-122461100D02*
G75*
G02*
X123520100Y-121953100I508000J0D01*
G01*
X123012100Y-123731100D02*
G75*
G03*
X123520100Y-124239100I508000J0D01*
G01*
X126822100Y-121953100D02*
G75*
G02*
X127330100Y-122461100I0J-508000D01*
G01*
X126822100Y-124239100D02*
G75*
G03*
X127330100Y-123731100I0J508000D01*
G01*
%TO.C,C2*%
X127330100Y-117381100D02*
X127330100Y-118651100D01*
X123520100Y-119159100D02*
X126822100Y-119159100D01*
X123012100Y-117381100D02*
X123012100Y-118651100D01*
X123520100Y-116873100D02*
X126822100Y-116873100D01*
D16*
X125475900Y-118778100D02*
X125475900Y-117254100D01*
X124840900Y-118778100D02*
X124840900Y-117254100D01*
D15*
X123012100Y-117381100D02*
G75*
G02*
X123520100Y-116873100I508000J0D01*
G01*
X123012100Y-118651100D02*
G75*
G03*
X123520100Y-119159100I508000J0D01*
G01*
X126822100Y-116873100D02*
G75*
G02*
X127330100Y-117381100I0J-508000D01*
G01*
X126822100Y-119159100D02*
G75*
G03*
X127330100Y-118651100I0J508000D01*
G01*
%TO.C,R5*%
X120345100Y-123985100D02*
X120091100Y-123985100D01*
X119964100Y-123858100D02*
X120091100Y-123985100D01*
X120345100Y-122207100D02*
X120091100Y-122207100D01*
X119964100Y-122334100D02*
X120091100Y-122207100D01*
X117678100Y-123858100D02*
X117551100Y-123985100D01*
X117678100Y-123858100D02*
X119964100Y-123858100D01*
X117678100Y-122334100D02*
X117551100Y-122207100D01*
X117678100Y-122334100D02*
X119964100Y-122334100D01*
X117297100Y-123985100D02*
X117551100Y-123985100D01*
X117297100Y-122207100D02*
X117551100Y-122207100D01*
X117043100Y-123731100D02*
G75*
G03*
X117297100Y-123985100I254000J0D01*
G01*
X117043100Y-122461100D02*
G75*
G02*
X117297100Y-122207100I254000J0D01*
G01*
X120345100Y-122207100D02*
G75*
G02*
X120599100Y-122461100I0J-254000D01*
G01*
X120345100Y-123985100D02*
G75*
G03*
X120599100Y-123731100I0J254000D01*
G01*
D17*
%TO.C,X1*%
X100728600Y-116714500D02*
X103037700Y-116714500D01*
X102830100Y-116506900D02*
X102830100Y-116351100D01*
X96392900Y-124397600D02*
X96392900Y-124397500D01*
X96392900Y-124397500D02*
X96392900Y-116714500D01*
X100494000Y-117597000D02*
X97742600Y-117804700D01*
X97742600Y-118791000D02*
X100494000Y-119050600D01*
X100494000Y-119050600D02*
X100494000Y-118842900D01*
X100494000Y-118842900D02*
X98106000Y-118583400D01*
X98106000Y-118583400D02*
X98106000Y-118064200D01*
X98106000Y-118064200D02*
X100494000Y-117804700D01*
X100494000Y-117804700D02*
X100494000Y-117597000D01*
X105373800Y-117545100D02*
X105737200Y-117545100D01*
X102882000Y-118791000D02*
X102882000Y-122321100D01*
X103349200Y-122373000D02*
X103349200Y-118739100D01*
X103141600Y-118531500D02*
X103141500Y-118531500D01*
X103868400Y-122580700D02*
X105737200Y-122580700D01*
X97742700Y-119310200D02*
X101791900Y-119517800D01*
X97535000Y-119517800D02*
X97535000Y-119517900D01*
X97742600Y-119725500D02*
X101168900Y-119933100D01*
X102830100Y-124605100D02*
X102830100Y-124760900D01*
X100494000Y-123515000D02*
X97742600Y-123307300D01*
X97742600Y-122321000D02*
X100494000Y-122061400D01*
X100494000Y-122061400D02*
X100494000Y-122269100D01*
X100494000Y-122269100D02*
X98106000Y-122528600D01*
X98106000Y-122528600D02*
X98106000Y-123047800D01*
X98106000Y-123047800D02*
X100494000Y-123307300D01*
X100494000Y-123307300D02*
X100494000Y-123515000D01*
X105373800Y-123566900D02*
X105737200Y-123566900D01*
X103868400Y-118531300D02*
X105737200Y-118531300D01*
X97742700Y-121801800D02*
X101791900Y-121594200D01*
X101999500Y-121386500D02*
X101999500Y-119725400D01*
X97742600Y-121386500D02*
X101168900Y-121178900D01*
X101168900Y-121178900D02*
X101168900Y-119932900D01*
X100728500Y-124397500D02*
X103037800Y-124397600D01*
X96392900Y-124397500D02*
X97896500Y-124397500D01*
X96392900Y-116714500D02*
X97896400Y-116714600D01*
X105789200Y-122580600D02*
X105789200Y-123567000D01*
X105789300Y-117545100D02*
X105789300Y-118531500D01*
X97742600Y-121386500D02*
G75*
G03*
X97535000Y-121594100I0J-207600D01*
G01*
X97535000Y-121594200D02*
G75*
G03*
X97742600Y-121801800I207600J0D01*
G01*
X101999501Y-121386499D02*
G75*
G02*
X101791900Y-121594200I-219701J11994D01*
G01*
X102881999Y-122320999D02*
G75*
G03*
X103141500Y-122580500I259801J300D01*
G01*
X103141600Y-122580500D02*
G75*
G03*
X103349200Y-122372900I100J207500D01*
G01*
X97742599Y-122320999D02*
G75*
G03*
X97483100Y-122528600I22331J-293900D01*
G01*
X97483100Y-122528600D02*
G75*
G03*
X97483100Y-123099700I931100J-285550D01*
G01*
X97483100Y-123099700D02*
G75*
G03*
X97742600Y-123307300I281830J86300D01*
G01*
X102830100Y-124605100D02*
G75*
G02*
X103037700Y-124397500I207600J0D01*
G01*
X97742600Y-119725500D02*
G75*
G02*
X97535000Y-119517900I0J207600D01*
G01*
X97535000Y-119517800D02*
G75*
G02*
X97742600Y-119310200I207600J0D01*
G01*
X101999502Y-119725500D02*
G75*
G03*
X101791900Y-119517800I-219601J-11895D01*
G01*
X102881999Y-118791001D02*
G75*
G02*
X103141500Y-118531500I259601J-100D01*
G01*
X103141600Y-118531500D02*
G75*
G02*
X103349200Y-118739100I100J-207500D01*
G01*
X97742599Y-118791001D02*
G75*
G02*
X97483100Y-118583400I22331J293900D01*
G01*
X97483100Y-118583400D02*
G75*
G02*
X97483100Y-118012300I931100J285550D01*
G01*
X97483100Y-118012300D02*
G75*
G02*
X97742600Y-117804700I281830J-86300D01*
G01*
X102830100Y-116506900D02*
G75*
G03*
X103037700Y-116714500I207600J0D01*
G01*
D15*
%TO.C,JP1*%
X190576100Y-121826100D02*
X191846100Y-121826100D01*
X191846100Y-121826100D02*
X192481100Y-122461100D01*
X192481100Y-122461100D02*
X192481100Y-123731100D01*
X192481100Y-123731100D02*
X191846100Y-124366100D01*
X187401100Y-122461100D02*
X188036100Y-121826100D01*
X188036100Y-121826100D02*
X189306100Y-121826100D01*
X189306100Y-121826100D02*
X189941100Y-122461100D01*
X189941100Y-122461100D02*
X189941100Y-123731100D01*
X189941100Y-123731100D02*
X189306100Y-124366100D01*
X189306100Y-124366100D02*
X188036100Y-124366100D01*
X188036100Y-124366100D02*
X187401100Y-123731100D01*
X190576100Y-121826100D02*
X189941100Y-122461100D01*
X189941100Y-123731100D02*
X190576100Y-124366100D01*
X191846100Y-124366100D02*
X190576100Y-124366100D01*
X182956100Y-121826100D02*
X184226100Y-121826100D01*
X184226100Y-121826100D02*
X184861100Y-122461100D01*
X184861100Y-122461100D02*
X184861100Y-123731100D01*
X184861100Y-123731100D02*
X184226100Y-124366100D01*
X184861100Y-122461100D02*
X185496100Y-121826100D01*
X185496100Y-121826100D02*
X186766100Y-121826100D01*
X186766100Y-121826100D02*
X187401100Y-122461100D01*
X187401100Y-122461100D02*
X187401100Y-123731100D01*
X187401100Y-123731100D02*
X186766100Y-124366100D01*
X186766100Y-124366100D02*
X185496100Y-124366100D01*
X185496100Y-124366100D02*
X184861100Y-123731100D01*
X179781100Y-122461100D02*
X180416100Y-121826100D01*
X180416100Y-121826100D02*
X181686100Y-121826100D01*
X181686100Y-121826100D02*
X182321100Y-122461100D01*
X182321100Y-122461100D02*
X182321100Y-123731100D01*
X182321100Y-123731100D02*
X181686100Y-124366100D01*
X181686100Y-124366100D02*
X180416100Y-124366100D01*
X180416100Y-124366100D02*
X179781100Y-123731100D01*
X182956100Y-121826100D02*
X182321100Y-122461100D01*
X182321100Y-123731100D02*
X182956100Y-124366100D01*
X184226100Y-124366100D02*
X182956100Y-124366100D01*
X175336100Y-121826100D02*
X176606100Y-121826100D01*
X176606100Y-121826100D02*
X177241100Y-122461100D01*
X177241100Y-122461100D02*
X177241100Y-123731100D01*
X177241100Y-123731100D02*
X176606100Y-124366100D01*
X177241100Y-122461100D02*
X177876100Y-121826100D01*
X177876100Y-121826100D02*
X179146100Y-121826100D01*
X179146100Y-121826100D02*
X179781100Y-122461100D01*
X179781100Y-122461100D02*
X179781100Y-123731100D01*
X179781100Y-123731100D02*
X179146100Y-124366100D01*
X179146100Y-124366100D02*
X177876100Y-124366100D01*
X177876100Y-124366100D02*
X177241100Y-123731100D01*
X174701100Y-122461100D02*
X174701100Y-123731100D01*
X175336100Y-121826100D02*
X174701100Y-122461100D01*
X174701100Y-123731100D02*
X175336100Y-124366100D01*
X176606100Y-124366100D02*
X175336100Y-124366100D01*
X193116100Y-121826100D02*
X194386100Y-121826100D01*
X194386100Y-121826100D02*
X195021100Y-122461100D01*
X195021100Y-122461100D02*
X195021100Y-123731100D01*
X195021100Y-123731100D02*
X194386100Y-124366100D01*
X193116100Y-121826100D02*
X192481100Y-122461100D01*
X192481100Y-123731100D02*
X193116100Y-124366100D01*
X194386100Y-124366100D02*
X193116100Y-124366100D01*
%TO.C,JP2*%
X190576100Y-104046100D02*
X191846100Y-104046100D01*
X191846100Y-104046100D02*
X192481100Y-104681100D01*
X192481100Y-104681100D02*
X192481100Y-105951100D01*
X192481100Y-105951100D02*
X191846100Y-106586100D01*
X187401100Y-104681100D02*
X188036100Y-104046100D01*
X188036100Y-104046100D02*
X189306100Y-104046100D01*
X189306100Y-104046100D02*
X189941100Y-104681100D01*
X189941100Y-104681100D02*
X189941100Y-105951100D01*
X189941100Y-105951100D02*
X189306100Y-106586100D01*
X189306100Y-106586100D02*
X188036100Y-106586100D01*
X188036100Y-106586100D02*
X187401100Y-105951100D01*
X190576100Y-104046100D02*
X189941100Y-104681100D01*
X189941100Y-105951100D02*
X190576100Y-106586100D01*
X191846100Y-106586100D02*
X190576100Y-106586100D01*
X182956100Y-104046100D02*
X184226100Y-104046100D01*
X184226100Y-104046100D02*
X184861100Y-104681100D01*
X184861100Y-104681100D02*
X184861100Y-105951100D01*
X184861100Y-105951100D02*
X184226100Y-106586100D01*
X184861100Y-104681100D02*
X185496100Y-104046100D01*
X185496100Y-104046100D02*
X186766100Y-104046100D01*
X186766100Y-104046100D02*
X187401100Y-104681100D01*
X187401100Y-104681100D02*
X187401100Y-105951100D01*
X187401100Y-105951100D02*
X186766100Y-106586100D01*
X186766100Y-106586100D02*
X185496100Y-106586100D01*
X185496100Y-106586100D02*
X184861100Y-105951100D01*
X179781100Y-104681100D02*
X180416100Y-104046100D01*
X180416100Y-104046100D02*
X181686100Y-104046100D01*
X181686100Y-104046100D02*
X182321100Y-104681100D01*
X182321100Y-104681100D02*
X182321100Y-105951100D01*
X182321100Y-105951100D02*
X181686100Y-106586100D01*
X181686100Y-106586100D02*
X180416100Y-106586100D01*
X180416100Y-106586100D02*
X179781100Y-105951100D01*
X182956100Y-104046100D02*
X182321100Y-104681100D01*
X182321100Y-105951100D02*
X182956100Y-106586100D01*
X184226100Y-106586100D02*
X182956100Y-106586100D01*
X175336100Y-104046100D02*
X176606100Y-104046100D01*
X176606100Y-104046100D02*
X177241100Y-104681100D01*
X177241100Y-104681100D02*
X177241100Y-105951100D01*
X177241100Y-105951100D02*
X176606100Y-106586100D01*
X177241100Y-104681100D02*
X177876100Y-104046100D01*
X177876100Y-104046100D02*
X179146100Y-104046100D01*
X179146100Y-104046100D02*
X179781100Y-104681100D01*
X179781100Y-104681100D02*
X179781100Y-105951100D01*
X179781100Y-105951100D02*
X179146100Y-106586100D01*
X179146100Y-106586100D02*
X177876100Y-106586100D01*
X177876100Y-106586100D02*
X177241100Y-105951100D01*
X174701100Y-104681100D02*
X174701100Y-105951100D01*
X175336100Y-104046100D02*
X174701100Y-104681100D01*
X174701100Y-105951100D02*
X175336100Y-106586100D01*
X176606100Y-106586100D02*
X175336100Y-106586100D01*
X193116100Y-104046100D02*
X194386100Y-104046100D01*
X194386100Y-104046100D02*
X195021100Y-104681100D01*
X195021100Y-104681100D02*
X195021100Y-105951100D01*
X195021100Y-105951100D02*
X194386100Y-106586100D01*
X193116100Y-104046100D02*
X192481100Y-104681100D01*
X192481100Y-105951100D02*
X193116100Y-106586100D01*
X194386100Y-106586100D02*
X193116100Y-106586100D01*
%TO.C,S1*%
X124663100Y-81948100D02*
X124409100Y-81948100D01*
X124663100Y-81948100D02*
X124663100Y-80424100D01*
X124409100Y-80424100D02*
X124663100Y-80424100D01*
X118059100Y-80424100D02*
X118313100Y-80424100D01*
X118059100Y-80424100D02*
X118059100Y-81948100D01*
X118313100Y-81948100D02*
X118059100Y-81948100D01*
D18*
X120091100Y-78138100D02*
X120091100Y-78392100D01*
X122631100Y-78392100D02*
X120091100Y-78392100D01*
X122631100Y-78392100D02*
X122631100Y-78138100D01*
X122504100Y-83980100D02*
X120091100Y-83980100D01*
X122504100Y-83980100D02*
X122504100Y-84234100D01*
X120091100Y-83980100D02*
X120091100Y-84234100D01*
D15*
X119202100Y-84234100D02*
X120091100Y-84234100D01*
X123520100Y-78138100D02*
X122631100Y-78138100D01*
X122631100Y-78138100D02*
X120091100Y-78138100D01*
X120091100Y-78138100D02*
X119202100Y-78138100D01*
X120091100Y-84234100D02*
X122504100Y-84234100D01*
X122504100Y-84234100D02*
X123520100Y-84234100D01*
X124409100Y-81948100D02*
X124409100Y-82202100D01*
X124409100Y-80424100D02*
X124409100Y-80170100D01*
X118313100Y-81948100D02*
X118313100Y-82202100D01*
X118313100Y-80424100D02*
X118313100Y-80170100D01*
X123139100Y-81186100D02*
G75*
G03*
X123139100Y-81186100I-1778000J0D01*
G01*
X121615100Y-81186100D02*
G75*
G03*
X121615100Y-81186100I-254000J0D01*
G01*
%TO.C,S2*%
X141173100Y-81948100D02*
X140919100Y-81948100D01*
X141173100Y-81948100D02*
X141173100Y-80424100D01*
X140919100Y-80424100D02*
X141173100Y-80424100D01*
X134569100Y-80424100D02*
X134823100Y-80424100D01*
X134569100Y-80424100D02*
X134569100Y-81948100D01*
X134823100Y-81948100D02*
X134569100Y-81948100D01*
D18*
X136601100Y-78138100D02*
X136601100Y-78392100D01*
X139141100Y-78392100D02*
X136601100Y-78392100D01*
X139141100Y-78392100D02*
X139141100Y-78138100D01*
X139014100Y-83980100D02*
X136601100Y-83980100D01*
X139014100Y-83980100D02*
X139014100Y-84234100D01*
X136601100Y-83980100D02*
X136601100Y-84234100D01*
D15*
X135712100Y-84234100D02*
X136601100Y-84234100D01*
X140030100Y-78138100D02*
X139141100Y-78138100D01*
X139141100Y-78138100D02*
X136601100Y-78138100D01*
X136601100Y-78138100D02*
X135712100Y-78138100D01*
X136601100Y-84234100D02*
X139014100Y-84234100D01*
X139014100Y-84234100D02*
X140030100Y-84234100D01*
X140919100Y-81948100D02*
X140919100Y-82202100D01*
X140919100Y-80424100D02*
X140919100Y-80170100D01*
X134823100Y-81948100D02*
X134823100Y-82202100D01*
X134823100Y-80424100D02*
X134823100Y-80170100D01*
X139649100Y-81186100D02*
G75*
G03*
X139649100Y-81186100I-1778000J0D01*
G01*
X138125100Y-81186100D02*
G75*
G03*
X138125100Y-81186100I-254000J0D01*
G01*
%TO.C,S3*%
X157683100Y-81948100D02*
X157429100Y-81948100D01*
X157683100Y-81948100D02*
X157683100Y-80424100D01*
X157429100Y-80424100D02*
X157683100Y-80424100D01*
X151079100Y-80424100D02*
X151333100Y-80424100D01*
X151079100Y-80424100D02*
X151079100Y-81948100D01*
X151333100Y-81948100D02*
X151079100Y-81948100D01*
D18*
X153111100Y-78138100D02*
X153111100Y-78392100D01*
X155651100Y-78392100D02*
X153111100Y-78392100D01*
X155651100Y-78392100D02*
X155651100Y-78138100D01*
X155524100Y-83980100D02*
X153111100Y-83980100D01*
X155524100Y-83980100D02*
X155524100Y-84234100D01*
X153111100Y-83980100D02*
X153111100Y-84234100D01*
D15*
X152222100Y-84234100D02*
X153111100Y-84234100D01*
X156540100Y-78138100D02*
X155651100Y-78138100D01*
X155651100Y-78138100D02*
X153111100Y-78138100D01*
X153111100Y-78138100D02*
X152222100Y-78138100D01*
X153111100Y-84234100D02*
X155524100Y-84234100D01*
X155524100Y-84234100D02*
X156540100Y-84234100D01*
X157429100Y-81948100D02*
X157429100Y-82202100D01*
X157429100Y-80424100D02*
X157429100Y-80170100D01*
X151333100Y-81948100D02*
X151333100Y-82202100D01*
X151333100Y-80424100D02*
X151333100Y-80170100D01*
X156159100Y-81186100D02*
G75*
G03*
X156159100Y-81186100I-1778000J0D01*
G01*
X154635100Y-81186100D02*
G75*
G03*
X154635100Y-81186100I-254000J0D01*
G01*
%TO.C,S4*%
X174193100Y-81948100D02*
X173939100Y-81948100D01*
X174193100Y-81948100D02*
X174193100Y-80424100D01*
X173939100Y-80424100D02*
X174193100Y-80424100D01*
X167589100Y-80424100D02*
X167843100Y-80424100D01*
X167589100Y-80424100D02*
X167589100Y-81948100D01*
X167843100Y-81948100D02*
X167589100Y-81948100D01*
D18*
X169621100Y-78138100D02*
X169621100Y-78392100D01*
X172161100Y-78392100D02*
X169621100Y-78392100D01*
X172161100Y-78392100D02*
X172161100Y-78138100D01*
X172034100Y-83980100D02*
X169621100Y-83980100D01*
X172034100Y-83980100D02*
X172034100Y-84234100D01*
X169621100Y-83980100D02*
X169621100Y-84234100D01*
D15*
X168732100Y-84234100D02*
X169621100Y-84234100D01*
X173050100Y-78138100D02*
X172161100Y-78138100D01*
X172161100Y-78138100D02*
X169621100Y-78138100D01*
X169621100Y-78138100D02*
X168732100Y-78138100D01*
X169621100Y-84234100D02*
X172034100Y-84234100D01*
X172034100Y-84234100D02*
X173050100Y-84234100D01*
X173939100Y-81948100D02*
X173939100Y-82202100D01*
X173939100Y-80424100D02*
X173939100Y-80170100D01*
X167843100Y-81948100D02*
X167843100Y-82202100D01*
X167843100Y-80424100D02*
X167843100Y-80170100D01*
X172669100Y-81186100D02*
G75*
G03*
X172669100Y-81186100I-1778000J0D01*
G01*
X171145100Y-81186100D02*
G75*
G03*
X171145100Y-81186100I-254000J0D01*
G01*
%TO.C,JP4*%
X168986100Y-125001100D02*
X169621100Y-124366100D01*
X169621100Y-124366100D02*
X170891100Y-124366100D01*
X170891100Y-124366100D02*
X171526100Y-125001100D01*
X171526100Y-125001100D02*
X171526100Y-126271100D01*
X171526100Y-126271100D02*
X170891100Y-126906100D01*
X170891100Y-126906100D02*
X169621100Y-126906100D01*
X169621100Y-126906100D02*
X168986100Y-126271100D01*
X164541100Y-124366100D02*
X165811100Y-124366100D01*
X165811100Y-124366100D02*
X166446100Y-125001100D01*
X166446100Y-125001100D02*
X166446100Y-126271100D01*
X166446100Y-126271100D02*
X165811100Y-126906100D01*
X166446100Y-125001100D02*
X167081100Y-124366100D01*
X167081100Y-124366100D02*
X168351100Y-124366100D01*
X168351100Y-124366100D02*
X168986100Y-125001100D01*
X168986100Y-125001100D02*
X168986100Y-126271100D01*
X168986100Y-126271100D02*
X168351100Y-126906100D01*
X168351100Y-126906100D02*
X167081100Y-126906100D01*
X167081100Y-126906100D02*
X166446100Y-126271100D01*
X161366100Y-125001100D02*
X162001100Y-124366100D01*
X162001100Y-124366100D02*
X163271100Y-124366100D01*
X163271100Y-124366100D02*
X163906100Y-125001100D01*
X163906100Y-125001100D02*
X163906100Y-126271100D01*
X163906100Y-126271100D02*
X163271100Y-126906100D01*
X163271100Y-126906100D02*
X162001100Y-126906100D01*
X162001100Y-126906100D02*
X161366100Y-126271100D01*
X164541100Y-124366100D02*
X163906100Y-125001100D01*
X163906100Y-126271100D02*
X164541100Y-126906100D01*
X165811100Y-126906100D02*
X164541100Y-126906100D01*
X156921100Y-124366100D02*
X158191100Y-124366100D01*
X158191100Y-124366100D02*
X158826100Y-125001100D01*
X158826100Y-125001100D02*
X158826100Y-126271100D01*
X158826100Y-126271100D02*
X158191100Y-126906100D01*
X158826100Y-125001100D02*
X159461100Y-124366100D01*
X159461100Y-124366100D02*
X160731100Y-124366100D01*
X160731100Y-124366100D02*
X161366100Y-125001100D01*
X161366100Y-125001100D02*
X161366100Y-126271100D01*
X161366100Y-126271100D02*
X160731100Y-126906100D01*
X160731100Y-126906100D02*
X159461100Y-126906100D01*
X159461100Y-126906100D02*
X158826100Y-126271100D01*
X153746100Y-125001100D02*
X154381100Y-124366100D01*
X154381100Y-124366100D02*
X155651100Y-124366100D01*
X155651100Y-124366100D02*
X156286100Y-125001100D01*
X156286100Y-125001100D02*
X156286100Y-126271100D01*
X156286100Y-126271100D02*
X155651100Y-126906100D01*
X155651100Y-126906100D02*
X154381100Y-126906100D01*
X154381100Y-126906100D02*
X153746100Y-126271100D01*
X156921100Y-124366100D02*
X156286100Y-125001100D01*
X156286100Y-126271100D02*
X156921100Y-126906100D01*
X158191100Y-126906100D02*
X156921100Y-126906100D01*
X149301100Y-124366100D02*
X150571100Y-124366100D01*
X150571100Y-124366100D02*
X151206100Y-125001100D01*
X151206100Y-125001100D02*
X151206100Y-126271100D01*
X151206100Y-126271100D02*
X150571100Y-126906100D01*
X151206100Y-125001100D02*
X151841100Y-124366100D01*
X151841100Y-124366100D02*
X153111100Y-124366100D01*
X153111100Y-124366100D02*
X153746100Y-125001100D01*
X153746100Y-125001100D02*
X153746100Y-126271100D01*
X153746100Y-126271100D02*
X153111100Y-126906100D01*
X153111100Y-126906100D02*
X151841100Y-126906100D01*
X151841100Y-126906100D02*
X151206100Y-126271100D01*
X148666100Y-125001100D02*
X148666100Y-126271100D01*
X149301100Y-124366100D02*
X148666100Y-125001100D01*
X148666100Y-126271100D02*
X149301100Y-126906100D01*
X150571100Y-126906100D02*
X149301100Y-126906100D01*
X172161100Y-124366100D02*
X173431100Y-124366100D01*
X173431100Y-124366100D02*
X174066100Y-125001100D01*
X174066100Y-125001100D02*
X174066100Y-126271100D01*
X174066100Y-126271100D02*
X173431100Y-126906100D01*
X172161100Y-124366100D02*
X171526100Y-125001100D01*
X171526100Y-126271100D02*
X172161100Y-126906100D01*
X173431100Y-126906100D02*
X172161100Y-126906100D01*
%TO.C,JP7*%
X134378600Y-93886100D02*
X135648600Y-93886100D01*
X135648600Y-93886100D02*
X136283600Y-94521100D01*
X136283600Y-94521100D02*
X136283600Y-95791100D01*
X136283600Y-95791100D02*
X135648600Y-96426100D01*
X133743600Y-94521100D02*
X133743600Y-95791100D01*
X134378600Y-93886100D02*
X133743600Y-94521100D01*
X133743600Y-95791100D02*
X134378600Y-96426100D01*
X135648600Y-96426100D02*
X134378600Y-96426100D01*
%TO.C,R6*%
X143903600Y-133700600D02*
X143903600Y-132176600D01*
X144157600Y-131922600D02*
X144538600Y-131922600D01*
X144665600Y-132049600D02*
X144538600Y-131922600D01*
X144157600Y-133954600D02*
X144538600Y-133954600D01*
X144665600Y-133827600D02*
X144538600Y-133954600D01*
X148221600Y-132049600D02*
X148348600Y-131922600D01*
X148221600Y-132049600D02*
X144665600Y-132049600D01*
X148221600Y-133827600D02*
X148348600Y-133954600D01*
X148221600Y-133827600D02*
X144665600Y-133827600D01*
X148729600Y-131922600D02*
X148348600Y-131922600D01*
X148729600Y-133954600D02*
X148348600Y-133954600D01*
X148983600Y-133700600D02*
X148983600Y-132176600D01*
D10*
G36*
X148983600Y-133192600D02*
G01*
X149364600Y-133192600D01*
X149364600Y-132684600D01*
X148983600Y-132684600D01*
X148983600Y-133192600D01*
G37*
G36*
X143522600Y-133192600D02*
G01*
X143903600Y-133192600D01*
X143903600Y-132684600D01*
X143522600Y-132684600D01*
X143522600Y-133192600D01*
G37*
D15*
X148983600Y-132176600D02*
G75*
G03*
X148729600Y-131922600I-254000J0D01*
G01*
X148983600Y-133700600D02*
G75*
G02*
X148729600Y-133954600I-254000J0D01*
G01*
X144157600Y-133954600D02*
G75*
G02*
X143903600Y-133700600I0J254000D01*
G01*
X144157600Y-131922600D02*
G75*
G03*
X143903600Y-132176600I0J-254000D01*
G01*
%TO.C,JP8*%
X103263600Y-81503600D02*
X104533600Y-81503600D01*
X104533600Y-81503600D02*
X105168600Y-82138600D01*
X105168600Y-82138600D02*
X105168600Y-83408600D01*
X105168600Y-83408600D02*
X104533600Y-84043600D01*
X102628600Y-82138600D02*
X102628600Y-83408600D01*
X103263600Y-81503600D02*
X102628600Y-82138600D01*
X102628600Y-83408600D02*
X103263600Y-84043600D01*
X104533600Y-84043600D02*
X103263600Y-84043600D01*
%TO.C,JP9*%
X107073600Y-89123600D02*
X108343600Y-89123600D01*
X108343600Y-89123600D02*
X108978600Y-89758600D01*
X108978600Y-89758600D02*
X108978600Y-91028600D01*
X108978600Y-91028600D02*
X108343600Y-91663600D01*
X106438600Y-89758600D02*
X106438600Y-91028600D01*
X107073600Y-89123600D02*
X106438600Y-89758600D01*
X106438600Y-91028600D02*
X107073600Y-91663600D01*
X108343600Y-91663600D02*
X107073600Y-91663600D01*
%TO.C,JP11*%
X103898600Y-89758600D02*
X104533600Y-89123600D01*
X104533600Y-89123600D02*
X105803600Y-89123600D01*
X105803600Y-89123600D02*
X106438600Y-89758600D01*
X106438600Y-89758600D02*
X106438600Y-91028600D01*
X106438600Y-91028600D02*
X105803600Y-91663600D01*
X105803600Y-91663600D02*
X104533600Y-91663600D01*
X104533600Y-91663600D02*
X103898600Y-91028600D01*
X99453600Y-89123600D02*
X100723600Y-89123600D01*
X100723600Y-89123600D02*
X101358600Y-89758600D01*
X101358600Y-89758600D02*
X101358600Y-91028600D01*
X101358600Y-91028600D02*
X100723600Y-91663600D01*
X101358600Y-89758600D02*
X101993600Y-89123600D01*
X101993600Y-89123600D02*
X103263600Y-89123600D01*
X103263600Y-89123600D02*
X103898600Y-89758600D01*
X103898600Y-89758600D02*
X103898600Y-91028600D01*
X103898600Y-91028600D02*
X103263600Y-91663600D01*
X103263600Y-91663600D02*
X101993600Y-91663600D01*
X101993600Y-91663600D02*
X101358600Y-91028600D01*
X98818600Y-89758600D02*
X98818600Y-91028600D01*
X99453600Y-89123600D02*
X98818600Y-89758600D01*
X98818600Y-91028600D02*
X99453600Y-91663600D01*
X100723600Y-91663600D02*
X99453600Y-91663600D01*
X107073600Y-89123600D02*
X108343600Y-89123600D01*
X108343600Y-89123600D02*
X108978600Y-89758600D01*
X108978600Y-89758600D02*
X108978600Y-91028600D01*
X108978600Y-91028600D02*
X108343600Y-91663600D01*
X107073600Y-89123600D02*
X106438600Y-89758600D01*
X106438600Y-91028600D02*
X107073600Y-91663600D01*
X108343600Y-91663600D02*
X107073600Y-91663600D01*
%TO.C,JP13*%
X99136100Y-81503600D02*
X100406100Y-81503600D01*
X100406100Y-81503600D02*
X101041100Y-82138600D01*
X101041100Y-82138600D02*
X101041100Y-83408600D01*
X101041100Y-83408600D02*
X100406100Y-84043600D01*
X98501100Y-82138600D02*
X98501100Y-83408600D01*
X99136100Y-81503600D02*
X98501100Y-82138600D01*
X98501100Y-83408600D02*
X99136100Y-84043600D01*
X100406100Y-84043600D02*
X99136100Y-84043600D01*
%TO.C,Q1*%
D19*
X127526647Y-124232145D02*
X127584100Y-124117240D01*
X127699004Y-124002335D01*
X127871361Y-123829978D01*
X127928814Y-123715073D01*
X127928814Y-123600169D01*
X127641552Y-123657621D02*
X127699004Y-123542716D01*
X127813909Y-123427811D01*
X128043719Y-123370359D01*
X128445885Y-123370359D01*
X128675695Y-123427811D01*
X128790600Y-123542716D01*
X128848052Y-123657621D01*
X128848052Y-123887430D01*
X128790600Y-124002335D01*
X128675695Y-124117240D01*
X128445885Y-124174692D01*
X128043719Y-124174692D01*
X127813909Y-124117240D01*
X127699004Y-124002335D01*
X127641552Y-123887430D01*
X127641552Y-123657621D01*
X127641552Y-125323740D02*
X127641552Y-124634311D01*
X127641552Y-124979026D02*
X128848052Y-124979026D01*
X128675695Y-124864121D01*
X128560790Y-124749216D01*
X128503338Y-124634311D01*
%TO.C,IC1*%
D20*
X135328613Y-107819330D02*
X135328613Y-107047170D01*
X136137542Y-107745791D02*
X136100773Y-107782560D01*
X135990464Y-107819330D01*
X135916925Y-107819330D01*
X135806617Y-107782560D01*
X135733077Y-107709021D01*
X135696308Y-107635482D01*
X135659538Y-107488404D01*
X135659538Y-107378096D01*
X135696308Y-107231018D01*
X135733077Y-107157479D01*
X135806617Y-107083940D01*
X135916925Y-107047170D01*
X135990464Y-107047170D01*
X136100773Y-107083940D01*
X136137542Y-107120709D01*
X136872933Y-107819330D02*
X136431698Y-107819330D01*
X136652316Y-107819330D02*
X136652316Y-107047170D01*
X136578777Y-107157479D01*
X136505237Y-107231018D01*
X136431698Y-107267787D01*
%TO.C,R1*%
D21*
X130381202Y-107507757D02*
X130067512Y-107059628D01*
X129843448Y-107507757D02*
X129843448Y-106566687D01*
X130201951Y-106566687D01*
X130291576Y-106611500D01*
X130336389Y-106656312D01*
X130381202Y-106745938D01*
X130381202Y-106880377D01*
X130336389Y-106970002D01*
X130291576Y-107014815D01*
X130201951Y-107059628D01*
X129843448Y-107059628D01*
X131277459Y-107507757D02*
X130739705Y-107507757D01*
X131008582Y-107507757D02*
X131008582Y-106566687D01*
X130918956Y-106701125D01*
X130829331Y-106790751D01*
X130739705Y-106835564D01*
%TO.C,R2*%
X124187757Y-108043497D02*
X123739628Y-108357187D01*
X124187757Y-108581251D02*
X123246687Y-108581251D01*
X123246687Y-108222749D01*
X123291500Y-108133123D01*
X123336312Y-108088310D01*
X123425938Y-108043497D01*
X123560377Y-108043497D01*
X123650002Y-108088310D01*
X123694815Y-108133123D01*
X123739628Y-108222749D01*
X123739628Y-108581251D01*
X123336312Y-107684994D02*
X123291500Y-107640181D01*
X123246687Y-107550556D01*
X123246687Y-107326491D01*
X123291500Y-107236866D01*
X123336312Y-107192053D01*
X123425938Y-107147240D01*
X123515564Y-107147240D01*
X123650002Y-107192053D01*
X124187757Y-107729807D01*
X124187757Y-107147240D01*
%TO.C,R3*%
X127235757Y-108259397D02*
X126787628Y-108573087D01*
X127235757Y-108797151D02*
X126294687Y-108797151D01*
X126294687Y-108438649D01*
X126339500Y-108349023D01*
X126384312Y-108304210D01*
X126473938Y-108259397D01*
X126608377Y-108259397D01*
X126698002Y-108304210D01*
X126742815Y-108349023D01*
X126787628Y-108438649D01*
X126787628Y-108797151D01*
X126294687Y-107945707D02*
X126294687Y-107363140D01*
X126653190Y-107676830D01*
X126653190Y-107542391D01*
X126698002Y-107452766D01*
X126742815Y-107407953D01*
X126832441Y-107363140D01*
X127056505Y-107363140D01*
X127146131Y-107407953D01*
X127190944Y-107452766D01*
X127235757Y-107542391D01*
X127235757Y-107811269D01*
X127190944Y-107900894D01*
X127146131Y-107945707D01*
%TO.C,R4*%
X127841202Y-116397757D02*
X127527512Y-115949628D01*
X127303448Y-116397757D02*
X127303448Y-115456687D01*
X127661951Y-115456687D01*
X127751576Y-115501500D01*
X127796389Y-115546312D01*
X127841202Y-115635938D01*
X127841202Y-115770377D01*
X127796389Y-115860002D01*
X127751576Y-115904815D01*
X127661951Y-115949628D01*
X127303448Y-115949628D01*
X128647833Y-115770377D02*
X128647833Y-116397757D01*
X128423769Y-115411874D02*
X128199705Y-116084067D01*
X128782272Y-116084067D01*
%TO.C,D1*%
D19*
X121496264Y-122975147D02*
X121496264Y-121768647D01*
X121783526Y-121768647D01*
X121955883Y-121826100D01*
X122070788Y-121941004D01*
X122128240Y-122055909D01*
X122185692Y-122285719D01*
X122185692Y-122458076D01*
X122128240Y-122687885D01*
X122070788Y-122802790D01*
X121955883Y-122917695D01*
X121783526Y-122975147D01*
X121496264Y-122975147D01*
X123334740Y-122975147D02*
X122645311Y-122975147D01*
X122990026Y-122975147D02*
X122990026Y-121768647D01*
X122875121Y-121941004D01*
X122760216Y-122055909D01*
X122645311Y-122113361D01*
%TO.C,D2*%
X117686264Y-120435147D02*
X117686264Y-119228647D01*
X117973526Y-119228647D01*
X118145883Y-119286100D01*
X118260788Y-119401004D01*
X118318240Y-119515909D01*
X118375692Y-119745719D01*
X118375692Y-119918076D01*
X118318240Y-120147885D01*
X118260788Y-120262790D01*
X118145883Y-120377695D01*
X117973526Y-120435147D01*
X117686264Y-120435147D01*
X118835311Y-119343552D02*
X118892764Y-119286100D01*
X119007669Y-119228647D01*
X119294930Y-119228647D01*
X119409835Y-119286100D01*
X119467288Y-119343552D01*
X119524740Y-119458457D01*
X119524740Y-119573361D01*
X119467288Y-119745719D01*
X118777859Y-120435147D01*
X119524740Y-120435147D01*
%TO.C,C1*%
X125487692Y-125527242D02*
X125430240Y-125584695D01*
X125257883Y-125642147D01*
X125142978Y-125642147D01*
X124970621Y-125584695D01*
X124855716Y-125469790D01*
X124798264Y-125354885D01*
X124740811Y-125125076D01*
X124740811Y-124952719D01*
X124798264Y-124722909D01*
X124855716Y-124608004D01*
X124970621Y-124493100D01*
X125142978Y-124435647D01*
X125257883Y-124435647D01*
X125430240Y-124493100D01*
X125487692Y-124550552D01*
X126636740Y-125642147D02*
X125947311Y-125642147D01*
X126292026Y-125642147D02*
X126292026Y-124435647D01*
X126177121Y-124608004D01*
X126062216Y-124722909D01*
X125947311Y-124780361D01*
%TO.C,C2*%
X125487692Y-120447242D02*
X125430240Y-120504695D01*
X125257883Y-120562147D01*
X125142978Y-120562147D01*
X124970621Y-120504695D01*
X124855716Y-120389790D01*
X124798264Y-120274885D01*
X124740811Y-120045076D01*
X124740811Y-119872719D01*
X124798264Y-119642909D01*
X124855716Y-119528004D01*
X124970621Y-119413100D01*
X125142978Y-119355647D01*
X125257883Y-119355647D01*
X125430240Y-119413100D01*
X125487692Y-119470552D01*
X125947311Y-119470552D02*
X126004764Y-119413100D01*
X126119669Y-119355647D01*
X126406930Y-119355647D01*
X126521835Y-119413100D01*
X126579288Y-119470552D01*
X126636740Y-119585457D01*
X126636740Y-119700361D01*
X126579288Y-119872719D01*
X125889859Y-120562147D01*
X126636740Y-120562147D01*
%TO.C,R5*%
D21*
X119687802Y-125160757D02*
X119374112Y-124712628D01*
X119150048Y-125160757D02*
X119150048Y-124219687D01*
X119508551Y-124219687D01*
X119598176Y-124264500D01*
X119642989Y-124309312D01*
X119687802Y-124398938D01*
X119687802Y-124533377D01*
X119642989Y-124623002D01*
X119598176Y-124667815D01*
X119508551Y-124712628D01*
X119150048Y-124712628D01*
X120539246Y-124219687D02*
X120091118Y-124219687D01*
X120046305Y-124667815D01*
X120091118Y-124623002D01*
X120180743Y-124578190D01*
X120404808Y-124578190D01*
X120494433Y-124623002D01*
X120539246Y-124667815D01*
X120584059Y-124757441D01*
X120584059Y-124981505D01*
X120539246Y-125071131D01*
X120494433Y-125115944D01*
X120404808Y-125160757D01*
X120180743Y-125160757D01*
X120091118Y-125115944D01*
X120046305Y-125071131D01*
%TO.C,X1*%
D17*
X98104497Y-113577147D02*
X98908830Y-114783647D01*
X98908830Y-113577147D02*
X98104497Y-114783647D01*
X100000425Y-114783647D02*
X99310997Y-114783647D01*
X99655711Y-114783647D02*
X99655711Y-113577147D01*
X99540806Y-113749504D01*
X99425901Y-113864409D01*
X99310997Y-113921861D01*
%TO.C,JP1*%
D19*
X175339426Y-120003347D02*
X175339426Y-120865133D01*
X175281973Y-121037490D01*
X175167069Y-121152395D01*
X174994711Y-121209847D01*
X174879807Y-121209847D01*
X175913950Y-121209847D02*
X175913950Y-120003347D01*
X176373569Y-120003347D01*
X176488473Y-120060800D01*
X176545926Y-120118252D01*
X176603378Y-120233157D01*
X176603378Y-120405514D01*
X176545926Y-120520419D01*
X176488473Y-120577871D01*
X176373569Y-120635323D01*
X175913950Y-120635323D01*
X177752426Y-121209847D02*
X177062997Y-121209847D01*
X177407711Y-121209847D02*
X177407711Y-120003347D01*
X177292807Y-120175704D01*
X177177902Y-120290609D01*
X177062997Y-120348061D01*
%TO.C,JP2*%
X175339426Y-102223347D02*
X175339426Y-103085133D01*
X175281973Y-103257490D01*
X175167069Y-103372395D01*
X174994711Y-103429847D01*
X174879807Y-103429847D01*
X175913950Y-103429847D02*
X175913950Y-102223347D01*
X176373569Y-102223347D01*
X176488473Y-102280800D01*
X176545926Y-102338252D01*
X176603378Y-102453157D01*
X176603378Y-102625514D01*
X176545926Y-102740419D01*
X176488473Y-102797871D01*
X176373569Y-102855323D01*
X175913950Y-102855323D01*
X177062997Y-102338252D02*
X177120450Y-102280800D01*
X177235354Y-102223347D01*
X177522616Y-102223347D01*
X177637521Y-102280800D01*
X177694973Y-102338252D01*
X177752426Y-102453157D01*
X177752426Y-102568061D01*
X177694973Y-102740419D01*
X177005545Y-103429847D01*
X177752426Y-103429847D01*
%TO.C,S1*%
X118625459Y-77388195D02*
X118797816Y-77445647D01*
X119085078Y-77445647D01*
X119199983Y-77388195D01*
X119257435Y-77330742D01*
X119314888Y-77215838D01*
X119314888Y-77100933D01*
X119257435Y-76986028D01*
X119199983Y-76928576D01*
X119085078Y-76871123D01*
X118855269Y-76813671D01*
X118740364Y-76756219D01*
X118682911Y-76698766D01*
X118625459Y-76583861D01*
X118625459Y-76468957D01*
X118682911Y-76354052D01*
X118740364Y-76296600D01*
X118855269Y-76239147D01*
X119142530Y-76239147D01*
X119314888Y-76296600D01*
X120463935Y-77445647D02*
X119774507Y-77445647D01*
X120119221Y-77445647D02*
X120119221Y-76239147D01*
X120004316Y-76411504D01*
X119889411Y-76526409D01*
X119774507Y-76583861D01*
%TO.C,S2*%
X135135459Y-77388195D02*
X135307816Y-77445647D01*
X135595078Y-77445647D01*
X135709983Y-77388195D01*
X135767435Y-77330742D01*
X135824888Y-77215838D01*
X135824888Y-77100933D01*
X135767435Y-76986028D01*
X135709983Y-76928576D01*
X135595078Y-76871123D01*
X135365269Y-76813671D01*
X135250364Y-76756219D01*
X135192911Y-76698766D01*
X135135459Y-76583861D01*
X135135459Y-76468957D01*
X135192911Y-76354052D01*
X135250364Y-76296600D01*
X135365269Y-76239147D01*
X135652530Y-76239147D01*
X135824888Y-76296600D01*
X136284507Y-76354052D02*
X136341959Y-76296600D01*
X136456864Y-76239147D01*
X136744126Y-76239147D01*
X136859030Y-76296600D01*
X136916483Y-76354052D01*
X136973935Y-76468957D01*
X136973935Y-76583861D01*
X136916483Y-76756219D01*
X136227054Y-77445647D01*
X136973935Y-77445647D01*
%TO.C,S3*%
X151645459Y-77388195D02*
X151817816Y-77445647D01*
X152105078Y-77445647D01*
X152219983Y-77388195D01*
X152277435Y-77330742D01*
X152334888Y-77215838D01*
X152334888Y-77100933D01*
X152277435Y-76986028D01*
X152219983Y-76928576D01*
X152105078Y-76871123D01*
X151875269Y-76813671D01*
X151760364Y-76756219D01*
X151702911Y-76698766D01*
X151645459Y-76583861D01*
X151645459Y-76468957D01*
X151702911Y-76354052D01*
X151760364Y-76296600D01*
X151875269Y-76239147D01*
X152162530Y-76239147D01*
X152334888Y-76296600D01*
X152737054Y-76239147D02*
X153483935Y-76239147D01*
X153081769Y-76698766D01*
X153254126Y-76698766D01*
X153369030Y-76756219D01*
X153426483Y-76813671D01*
X153483935Y-76928576D01*
X153483935Y-77215838D01*
X153426483Y-77330742D01*
X153369030Y-77388195D01*
X153254126Y-77445647D01*
X152909411Y-77445647D01*
X152794507Y-77388195D01*
X152737054Y-77330742D01*
%TO.C,S4*%
X168155459Y-77388195D02*
X168327816Y-77445647D01*
X168615078Y-77445647D01*
X168729983Y-77388195D01*
X168787435Y-77330742D01*
X168844888Y-77215838D01*
X168844888Y-77100933D01*
X168787435Y-76986028D01*
X168729983Y-76928576D01*
X168615078Y-76871123D01*
X168385269Y-76813671D01*
X168270364Y-76756219D01*
X168212911Y-76698766D01*
X168155459Y-76583861D01*
X168155459Y-76468957D01*
X168212911Y-76354052D01*
X168270364Y-76296600D01*
X168385269Y-76239147D01*
X168672530Y-76239147D01*
X168844888Y-76296600D01*
X169879030Y-76641314D02*
X169879030Y-77445647D01*
X169591769Y-76181695D02*
X169304507Y-77043480D01*
X170051388Y-77043480D01*
%TO.C,JP4*%
X149304426Y-122543347D02*
X149304426Y-123405133D01*
X149246973Y-123577490D01*
X149132069Y-123692395D01*
X148959711Y-123749847D01*
X148844807Y-123749847D01*
X149878950Y-123749847D02*
X149878950Y-122543347D01*
X150338569Y-122543347D01*
X150453473Y-122600800D01*
X150510926Y-122658252D01*
X150568378Y-122773157D01*
X150568378Y-122945514D01*
X150510926Y-123060419D01*
X150453473Y-123117871D01*
X150338569Y-123175323D01*
X149878950Y-123175323D01*
X151602521Y-122945514D02*
X151602521Y-123749847D01*
X151315259Y-122485895D02*
X151027997Y-123347680D01*
X151774878Y-123347680D01*
%TO.C,JP7*%
X134381926Y-92063347D02*
X134381926Y-92925133D01*
X134324473Y-93097490D01*
X134209569Y-93212395D01*
X134037211Y-93269847D01*
X133922307Y-93269847D01*
X134956450Y-93269847D02*
X134956450Y-92063347D01*
X135416069Y-92063347D01*
X135530973Y-92120800D01*
X135588426Y-92178252D01*
X135645878Y-92293157D01*
X135645878Y-92465514D01*
X135588426Y-92580419D01*
X135530973Y-92637871D01*
X135416069Y-92695323D01*
X134956450Y-92695323D01*
X136048045Y-92063347D02*
X136852378Y-92063347D01*
X136335307Y-93269847D01*
%TO.C,R6*%
D21*
X144729807Y-131598387D02*
X144416117Y-131150258D01*
X144192053Y-131598387D02*
X144192053Y-130657317D01*
X144550556Y-130657317D01*
X144640181Y-130702130D01*
X144684994Y-130746942D01*
X144729807Y-130836568D01*
X144729807Y-130971007D01*
X144684994Y-131060632D01*
X144640181Y-131105445D01*
X144550556Y-131150258D01*
X144192053Y-131150258D01*
X145536439Y-130657317D02*
X145357187Y-130657317D01*
X145267561Y-130702130D01*
X145222749Y-130746942D01*
X145133123Y-130881381D01*
X145088310Y-131060632D01*
X145088310Y-131419135D01*
X145133123Y-131508761D01*
X145177936Y-131553574D01*
X145267561Y-131598387D01*
X145446813Y-131598387D01*
X145536439Y-131553574D01*
X145581251Y-131508761D01*
X145626064Y-131419135D01*
X145626064Y-131195071D01*
X145581251Y-131105445D01*
X145536439Y-131060632D01*
X145446813Y-131015820D01*
X145267561Y-131015820D01*
X145177936Y-131060632D01*
X145133123Y-131105445D01*
X145088310Y-131195071D01*
%TO.C,JP8*%
D19*
X103266926Y-79680847D02*
X103266926Y-80542633D01*
X103209473Y-80714990D01*
X103094569Y-80829895D01*
X102922211Y-80887347D01*
X102807307Y-80887347D01*
X103841450Y-80887347D02*
X103841450Y-79680847D01*
X104301069Y-79680847D01*
X104415973Y-79738300D01*
X104473426Y-79795752D01*
X104530878Y-79910657D01*
X104530878Y-80083014D01*
X104473426Y-80197919D01*
X104415973Y-80255371D01*
X104301069Y-80312823D01*
X103841450Y-80312823D01*
X105220307Y-80197919D02*
X105105402Y-80140466D01*
X105047950Y-80083014D01*
X104990497Y-79968109D01*
X104990497Y-79910657D01*
X105047950Y-79795752D01*
X105105402Y-79738300D01*
X105220307Y-79680847D01*
X105450116Y-79680847D01*
X105565021Y-79738300D01*
X105622473Y-79795752D01*
X105679926Y-79910657D01*
X105679926Y-79968109D01*
X105622473Y-80083014D01*
X105565021Y-80140466D01*
X105450116Y-80197919D01*
X105220307Y-80197919D01*
X105105402Y-80255371D01*
X105047950Y-80312823D01*
X104990497Y-80427728D01*
X104990497Y-80657538D01*
X105047950Y-80772442D01*
X105105402Y-80829895D01*
X105220307Y-80887347D01*
X105450116Y-80887347D01*
X105565021Y-80829895D01*
X105622473Y-80772442D01*
X105679926Y-80657538D01*
X105679926Y-80427728D01*
X105622473Y-80312823D01*
X105565021Y-80255371D01*
X105450116Y-80197919D01*
%TO.C,JP9*%
X107076926Y-87300847D02*
X107076926Y-88162633D01*
X107019473Y-88334990D01*
X106904569Y-88449895D01*
X106732211Y-88507347D01*
X106617307Y-88507347D01*
X107651450Y-88507347D02*
X107651450Y-87300847D01*
X108111069Y-87300847D01*
X108225973Y-87358300D01*
X108283426Y-87415752D01*
X108340878Y-87530657D01*
X108340878Y-87703014D01*
X108283426Y-87817919D01*
X108225973Y-87875371D01*
X108111069Y-87932823D01*
X107651450Y-87932823D01*
X108915402Y-88507347D02*
X109145211Y-88507347D01*
X109260116Y-88449895D01*
X109317569Y-88392442D01*
X109432473Y-88220085D01*
X109489926Y-87990276D01*
X109489926Y-87530657D01*
X109432473Y-87415752D01*
X109375021Y-87358300D01*
X109260116Y-87300847D01*
X109030307Y-87300847D01*
X108915402Y-87358300D01*
X108857950Y-87415752D01*
X108800497Y-87530657D01*
X108800497Y-87817919D01*
X108857950Y-87932823D01*
X108915402Y-87990276D01*
X109030307Y-88047728D01*
X109260116Y-88047728D01*
X109375021Y-87990276D01*
X109432473Y-87932823D01*
X109489926Y-87817919D01*
%TO.C,JP11*%
X99456926Y-87300847D02*
X99456926Y-88162633D01*
X99399473Y-88334990D01*
X99284569Y-88449895D01*
X99112211Y-88507347D01*
X98997307Y-88507347D01*
X100031450Y-88507347D02*
X100031450Y-87300847D01*
X100491069Y-87300847D01*
X100605973Y-87358300D01*
X100663426Y-87415752D01*
X100720878Y-87530657D01*
X100720878Y-87703014D01*
X100663426Y-87817919D01*
X100605973Y-87875371D01*
X100491069Y-87932823D01*
X100031450Y-87932823D01*
X101869926Y-88507347D02*
X101180497Y-88507347D01*
X101525211Y-88507347D02*
X101525211Y-87300847D01*
X101410307Y-87473204D01*
X101295402Y-87588109D01*
X101180497Y-87645561D01*
X103018973Y-88507347D02*
X102329545Y-88507347D01*
X102674259Y-88507347D02*
X102674259Y-87300847D01*
X102559354Y-87473204D01*
X102444450Y-87588109D01*
X102329545Y-87645561D01*
%TO.C,JP13*%
X99139426Y-79680847D02*
X99139426Y-80542633D01*
X99081973Y-80714990D01*
X98967069Y-80829895D01*
X98794711Y-80887347D01*
X98679807Y-80887347D01*
X99713950Y-80887347D02*
X99713950Y-79680847D01*
X100173569Y-79680847D01*
X100288473Y-79738300D01*
X100345926Y-79795752D01*
X100403378Y-79910657D01*
X100403378Y-80083014D01*
X100345926Y-80197919D01*
X100288473Y-80255371D01*
X100173569Y-80312823D01*
X99713950Y-80312823D01*
X101552426Y-80887347D02*
X100862997Y-80887347D01*
X101207711Y-80887347D02*
X101207711Y-79680847D01*
X101092807Y-79853204D01*
X100977902Y-79968109D01*
X100862997Y-80025561D01*
X101954592Y-79680847D02*
X102701473Y-79680847D01*
X102299307Y-80140466D01*
X102471664Y-80140466D01*
X102586569Y-80197919D01*
X102644021Y-80255371D01*
X102701473Y-80370276D01*
X102701473Y-80657538D01*
X102644021Y-80772442D01*
X102586569Y-80829895D01*
X102471664Y-80887347D01*
X102126950Y-80887347D01*
X102012045Y-80829895D01*
X101954592Y-80772442D01*
%TD*%
M02*
