%TF.GenerationSoftware,KiCad,Pcbnew,(5.1.10)-1*%
%TF.CreationDate,2021-11-24T23:11:51+01:00*%
%TF.ProjectId,Alarm-Clock,416c6172-6d2d-4436-9c6f-636b2e6b6963,rev?*%
%TF.SameCoordinates,Original*%
%TF.FileFunction,Copper,L1,Top*%
%TF.FilePolarity,Positive*%
%FSLAX46Y46*%
G04 Gerber Fmt 4.6, Leading zero omitted, Abs format (unit mm)*
G04 Created by KiCad (PCBNEW (5.1.10)-1) date 2021-11-24 23:11:51*
%MOMM*%
%LPD*%
G01*
G04 APERTURE LIST*
%ADD10C,0.100000*%
%ADD11C,0.150000*%
%ADD12C,0.300000*%
%ADD13C,0.400000*%
%TA.AperFunction,ComponentPad*%
%ADD14C,1.676400*%
%TD*%
%TA.AperFunction,ComponentPad*%
%ADD15C,1.320800*%
%TD*%
%TA.AperFunction,SMDPad,CuDef*%
%ADD16R,0.558800X1.270000*%
%TD*%
%TA.AperFunction,SMDPad,CuDef*%
%ADD17R,1.270000X0.558800*%
%TD*%
%TA.AperFunction,ComponentPad*%
%ADD18O,2.641600X1.320800*%
%TD*%
%TA.AperFunction,SMDPad,CuDef*%
%ADD19R,3.100000X0.500000*%
%TD*%
%TA.AperFunction,SMDPad,CuDef*%
%ADD20R,3.300000X2.000000*%
%TD*%
%TA.AperFunction,SMDPad,CuDef*%
%ADD21R,2.500000X2.000000*%
%TD*%
%TA.AperFunction,ComponentPad*%
%ADD22O,1.524000X3.048000*%
%TD*%
%TA.AperFunction,ComponentPad*%
%ADD23O,3.048000X1.524000*%
%TD*%
%TA.AperFunction,ComponentPad*%
%ADD24C,1.524000*%
%TD*%
%TA.AperFunction,ViaPad*%
%ADD25C,24.400000*%
%TD*%
%TA.AperFunction,ViaPad*%
%ADD26C,1.400000*%
%TD*%
%TA.AperFunction,ViaPad*%
%ADD27C,1.406400*%
%TD*%
%TA.AperFunction,ViaPad*%
%ADD28C,1.306400*%
%TD*%
%TA.AperFunction,Conductor*%
%ADD29C,0.406400*%
%TD*%
%TA.AperFunction,Conductor*%
%ADD30C,1.422400*%
%TD*%
%TA.AperFunction,Conductor*%
%ADD31C,0.600000*%
%TD*%
%TA.AperFunction,Conductor*%
%ADD32C,1.930400*%
%TD*%
%TA.AperFunction,Conductor*%
%ADD33C,0.609600*%
%TD*%
G04 APERTURE END LIST*
D10*
D11*
X177002200Y-166007200D02*
X177002200Y-198007200D01*
X285002200Y-198007200D01*
X285002200Y-166007200D01*
X177002200Y-166007200D01*
D10*
D11*
X10000000Y-10000000D02*
X10000000Y-200007200D01*
X287002200Y-200007200D01*
X287002200Y-10000000D01*
X10000000Y-10000000D01*
D10*
D11*
X12000000Y-12000000D02*
X12000000Y-198007200D01*
X285002200Y-198007200D01*
X285002200Y-12000000D01*
X12000000Y-12000000D01*
D10*
D11*
X60000000Y-12000000D02*
X60000000Y-10000000D01*
D10*
D11*
X110000000Y-12000000D02*
X110000000Y-10000000D01*
D10*
D11*
X160000000Y-12000000D02*
X160000000Y-10000000D01*
D10*
D11*
X210000000Y-12000000D02*
X210000000Y-10000000D01*
D10*
D11*
X260000000Y-12000000D02*
X260000000Y-10000000D01*
D10*
D11*
X36065476Y-11588095D02*
X35322619Y-11588095D01*
X35694047Y-11588095D02*
X35694047Y-10288095D01*
X35570238Y-10473809D01*
X35446428Y-10597619D01*
X35322619Y-10659523D01*
D10*
D11*
X85322619Y-10411904D02*
X85384523Y-10350000D01*
X85508333Y-10288095D01*
X85817857Y-10288095D01*
X85941666Y-10350000D01*
X86003571Y-10411904D01*
X86065476Y-10535714D01*
X86065476Y-10659523D01*
X86003571Y-10845238D01*
X85260714Y-11588095D01*
X86065476Y-11588095D01*
D10*
D11*
X135260714Y-10288095D02*
X136065476Y-10288095D01*
X135632142Y-10783333D01*
X135817857Y-10783333D01*
X135941666Y-10845238D01*
X136003571Y-10907142D01*
X136065476Y-11030952D01*
X136065476Y-11340476D01*
X136003571Y-11464285D01*
X135941666Y-11526190D01*
X135817857Y-11588095D01*
X135446428Y-11588095D01*
X135322619Y-11526190D01*
X135260714Y-11464285D01*
D10*
D11*
X185941666Y-10721428D02*
X185941666Y-11588095D01*
X185632142Y-10226190D02*
X185322619Y-11154761D01*
X186127380Y-11154761D01*
D10*
D11*
X236003571Y-10288095D02*
X235384523Y-10288095D01*
X235322619Y-10907142D01*
X235384523Y-10845238D01*
X235508333Y-10783333D01*
X235817857Y-10783333D01*
X235941666Y-10845238D01*
X236003571Y-10907142D01*
X236065476Y-11030952D01*
X236065476Y-11340476D01*
X236003571Y-11464285D01*
X235941666Y-11526190D01*
X235817857Y-11588095D01*
X235508333Y-11588095D01*
X235384523Y-11526190D01*
X235322619Y-11464285D01*
D10*
D11*
X285941666Y-10288095D02*
X285694047Y-10288095D01*
X285570238Y-10350000D01*
X285508333Y-10411904D01*
X285384523Y-10597619D01*
X285322619Y-10845238D01*
X285322619Y-11340476D01*
X285384523Y-11464285D01*
X285446428Y-11526190D01*
X285570238Y-11588095D01*
X285817857Y-11588095D01*
X285941666Y-11526190D01*
X286003571Y-11464285D01*
X286065476Y-11340476D01*
X286065476Y-11030952D01*
X286003571Y-10907142D01*
X285941666Y-10845238D01*
X285817857Y-10783333D01*
X285570238Y-10783333D01*
X285446428Y-10845238D01*
X285384523Y-10907142D01*
X285322619Y-11030952D01*
D10*
D11*
X60000000Y-198007200D02*
X60000000Y-200007200D01*
D10*
D11*
X110000000Y-198007200D02*
X110000000Y-200007200D01*
D10*
D11*
X160000000Y-198007200D02*
X160000000Y-200007200D01*
D10*
D11*
X210000000Y-198007200D02*
X210000000Y-200007200D01*
D10*
D11*
X260000000Y-198007200D02*
X260000000Y-200007200D01*
D10*
D11*
X36065476Y-199595295D02*
X35322619Y-199595295D01*
X35694047Y-199595295D02*
X35694047Y-198295295D01*
X35570238Y-198481009D01*
X35446428Y-198604819D01*
X35322619Y-198666723D01*
D10*
D11*
X85322619Y-198419104D02*
X85384523Y-198357200D01*
X85508333Y-198295295D01*
X85817857Y-198295295D01*
X85941666Y-198357200D01*
X86003571Y-198419104D01*
X86065476Y-198542914D01*
X86065476Y-198666723D01*
X86003571Y-198852438D01*
X85260714Y-199595295D01*
X86065476Y-199595295D01*
D10*
D11*
X135260714Y-198295295D02*
X136065476Y-198295295D01*
X135632142Y-198790533D01*
X135817857Y-198790533D01*
X135941666Y-198852438D01*
X136003571Y-198914342D01*
X136065476Y-199038152D01*
X136065476Y-199347676D01*
X136003571Y-199471485D01*
X135941666Y-199533390D01*
X135817857Y-199595295D01*
X135446428Y-199595295D01*
X135322619Y-199533390D01*
X135260714Y-199471485D01*
D10*
D11*
X185941666Y-198728628D02*
X185941666Y-199595295D01*
X185632142Y-198233390D02*
X185322619Y-199161961D01*
X186127380Y-199161961D01*
D10*
D11*
X236003571Y-198295295D02*
X235384523Y-198295295D01*
X235322619Y-198914342D01*
X235384523Y-198852438D01*
X235508333Y-198790533D01*
X235817857Y-198790533D01*
X235941666Y-198852438D01*
X236003571Y-198914342D01*
X236065476Y-199038152D01*
X236065476Y-199347676D01*
X236003571Y-199471485D01*
X235941666Y-199533390D01*
X235817857Y-199595295D01*
X235508333Y-199595295D01*
X235384523Y-199533390D01*
X235322619Y-199471485D01*
D10*
D11*
X285941666Y-198295295D02*
X285694047Y-198295295D01*
X285570238Y-198357200D01*
X285508333Y-198419104D01*
X285384523Y-198604819D01*
X285322619Y-198852438D01*
X285322619Y-199347676D01*
X285384523Y-199471485D01*
X285446428Y-199533390D01*
X285570238Y-199595295D01*
X285817857Y-199595295D01*
X285941666Y-199533390D01*
X286003571Y-199471485D01*
X286065476Y-199347676D01*
X286065476Y-199038152D01*
X286003571Y-198914342D01*
X285941666Y-198852438D01*
X285817857Y-198790533D01*
X285570238Y-198790533D01*
X285446428Y-198852438D01*
X285384523Y-198914342D01*
X285322619Y-199038152D01*
D10*
D11*
X10000000Y-60000000D02*
X12000000Y-60000000D01*
D10*
D11*
X10000000Y-110000000D02*
X12000000Y-110000000D01*
D10*
D11*
X10000000Y-160000000D02*
X12000000Y-160000000D01*
D10*
D11*
X10690476Y-35216666D02*
X11309523Y-35216666D01*
X10566666Y-35588095D02*
X11000000Y-34288095D01*
X11433333Y-35588095D01*
D10*
D11*
X11092857Y-84907142D02*
X11278571Y-84969047D01*
X11340476Y-85030952D01*
X11402380Y-85154761D01*
X11402380Y-85340476D01*
X11340476Y-85464285D01*
X11278571Y-85526190D01*
X11154761Y-85588095D01*
X10659523Y-85588095D01*
X10659523Y-84288095D01*
X11092857Y-84288095D01*
X11216666Y-84350000D01*
X11278571Y-84411904D01*
X11340476Y-84535714D01*
X11340476Y-84659523D01*
X11278571Y-84783333D01*
X11216666Y-84845238D01*
X11092857Y-84907142D01*
X10659523Y-84907142D01*
D10*
D11*
X11402380Y-135464285D02*
X11340476Y-135526190D01*
X11154761Y-135588095D01*
X11030952Y-135588095D01*
X10845238Y-135526190D01*
X10721428Y-135402380D01*
X10659523Y-135278571D01*
X10597619Y-135030952D01*
X10597619Y-134845238D01*
X10659523Y-134597619D01*
X10721428Y-134473809D01*
X10845238Y-134350000D01*
X11030952Y-134288095D01*
X11154761Y-134288095D01*
X11340476Y-134350000D01*
X11402380Y-134411904D01*
D10*
D11*
X10659523Y-185588095D02*
X10659523Y-184288095D01*
X10969047Y-184288095D01*
X11154761Y-184350000D01*
X11278571Y-184473809D01*
X11340476Y-184597619D01*
X11402380Y-184845238D01*
X11402380Y-185030952D01*
X11340476Y-185278571D01*
X11278571Y-185402380D01*
X11154761Y-185526190D01*
X10969047Y-185588095D01*
X10659523Y-185588095D01*
D10*
D11*
X287002200Y-60000000D02*
X285002200Y-60000000D01*
D10*
D11*
X287002200Y-110000000D02*
X285002200Y-110000000D01*
D10*
D11*
X287002200Y-160000000D02*
X285002200Y-160000000D01*
D10*
D11*
X285692676Y-35216666D02*
X286311723Y-35216666D01*
X285568866Y-35588095D02*
X286002200Y-34288095D01*
X286435533Y-35588095D01*
D10*
D11*
X286095057Y-84907142D02*
X286280771Y-84969047D01*
X286342676Y-85030952D01*
X286404580Y-85154761D01*
X286404580Y-85340476D01*
X286342676Y-85464285D01*
X286280771Y-85526190D01*
X286156961Y-85588095D01*
X285661723Y-85588095D01*
X285661723Y-84288095D01*
X286095057Y-84288095D01*
X286218866Y-84350000D01*
X286280771Y-84411904D01*
X286342676Y-84535714D01*
X286342676Y-84659523D01*
X286280771Y-84783333D01*
X286218866Y-84845238D01*
X286095057Y-84907142D01*
X285661723Y-84907142D01*
D10*
D11*
X286404580Y-135464285D02*
X286342676Y-135526190D01*
X286156961Y-135588095D01*
X286033152Y-135588095D01*
X285847438Y-135526190D01*
X285723628Y-135402380D01*
X285661723Y-135278571D01*
X285599819Y-135030952D01*
X285599819Y-134845238D01*
X285661723Y-134597619D01*
X285723628Y-134473809D01*
X285847438Y-134350000D01*
X286033152Y-134288095D01*
X286156961Y-134288095D01*
X286342676Y-134350000D01*
X286404580Y-134411904D01*
D10*
D11*
X285661723Y-185588095D02*
X285661723Y-184288095D01*
X285971247Y-184288095D01*
X286156961Y-184350000D01*
X286280771Y-184473809D01*
X286342676Y-184597619D01*
X286404580Y-184845238D01*
X286404580Y-185030952D01*
X286342676Y-185278571D01*
X286280771Y-185402380D01*
X286156961Y-185526190D01*
X285971247Y-185588095D01*
X285661723Y-185588095D01*
D10*
D11*
X200434342Y-193785771D02*
X200434342Y-192285771D01*
X200791485Y-192285771D01*
X201005771Y-192357200D01*
X201148628Y-192500057D01*
X201220057Y-192642914D01*
X201291485Y-192928628D01*
X201291485Y-193142914D01*
X201220057Y-193428628D01*
X201148628Y-193571485D01*
X201005771Y-193714342D01*
X200791485Y-193785771D01*
X200434342Y-193785771D01*
X202577200Y-193785771D02*
X202577200Y-193000057D01*
X202505771Y-192857200D01*
X202362914Y-192785771D01*
X202077200Y-192785771D01*
X201934342Y-192857200D01*
X202577200Y-193714342D02*
X202434342Y-193785771D01*
X202077200Y-193785771D01*
X201934342Y-193714342D01*
X201862914Y-193571485D01*
X201862914Y-193428628D01*
X201934342Y-193285771D01*
X202077200Y-193214342D01*
X202434342Y-193214342D01*
X202577200Y-193142914D01*
X203077200Y-192785771D02*
X203648628Y-192785771D01*
X203291485Y-192285771D02*
X203291485Y-193571485D01*
X203362914Y-193714342D01*
X203505771Y-193785771D01*
X203648628Y-193785771D01*
X204720057Y-193714342D02*
X204577200Y-193785771D01*
X204291485Y-193785771D01*
X204148628Y-193714342D01*
X204077200Y-193571485D01*
X204077200Y-193000057D01*
X204148628Y-192857200D01*
X204291485Y-192785771D01*
X204577200Y-192785771D01*
X204720057Y-192857200D01*
X204791485Y-193000057D01*
X204791485Y-193142914D01*
X204077200Y-193285771D01*
X205434342Y-193642914D02*
X205505771Y-193714342D01*
X205434342Y-193785771D01*
X205362914Y-193714342D01*
X205434342Y-193642914D01*
X205434342Y-193785771D01*
X205434342Y-192857200D02*
X205505771Y-192928628D01*
X205434342Y-193000057D01*
X205362914Y-192928628D01*
X205434342Y-192857200D01*
X205434342Y-193000057D01*
D10*
D11*
X177002200Y-194507200D02*
X285002200Y-194507200D01*
D10*
D11*
X178434342Y-196585771D02*
X178434342Y-195085771D01*
X179291485Y-196585771D02*
X178648628Y-195728628D01*
X179291485Y-195085771D02*
X178434342Y-195942914D01*
X179934342Y-196585771D02*
X179934342Y-195585771D01*
X179934342Y-195085771D02*
X179862914Y-195157200D01*
X179934342Y-195228628D01*
X180005771Y-195157200D01*
X179934342Y-195085771D01*
X179934342Y-195228628D01*
X181505771Y-196442914D02*
X181434342Y-196514342D01*
X181220057Y-196585771D01*
X181077200Y-196585771D01*
X180862914Y-196514342D01*
X180720057Y-196371485D01*
X180648628Y-196228628D01*
X180577200Y-195942914D01*
X180577200Y-195728628D01*
X180648628Y-195442914D01*
X180720057Y-195300057D01*
X180862914Y-195157200D01*
X181077200Y-195085771D01*
X181220057Y-195085771D01*
X181434342Y-195157200D01*
X181505771Y-195228628D01*
X182791485Y-196585771D02*
X182791485Y-195800057D01*
X182720057Y-195657200D01*
X182577200Y-195585771D01*
X182291485Y-195585771D01*
X182148628Y-195657200D01*
X182791485Y-196514342D02*
X182648628Y-196585771D01*
X182291485Y-196585771D01*
X182148628Y-196514342D01*
X182077200Y-196371485D01*
X182077200Y-196228628D01*
X182148628Y-196085771D01*
X182291485Y-196014342D01*
X182648628Y-196014342D01*
X182791485Y-195942914D01*
X184148628Y-196585771D02*
X184148628Y-195085771D01*
X184148628Y-196514342D02*
X184005771Y-196585771D01*
X183720057Y-196585771D01*
X183577200Y-196514342D01*
X183505771Y-196442914D01*
X183434342Y-196300057D01*
X183434342Y-195871485D01*
X183505771Y-195728628D01*
X183577200Y-195657200D01*
X183720057Y-195585771D01*
X184005771Y-195585771D01*
X184148628Y-195657200D01*
X186005771Y-195800057D02*
X186505771Y-195800057D01*
X186720057Y-196585771D02*
X186005771Y-196585771D01*
X186005771Y-195085771D01*
X186720057Y-195085771D01*
X187362914Y-196442914D02*
X187434342Y-196514342D01*
X187362914Y-196585771D01*
X187291485Y-196514342D01*
X187362914Y-196442914D01*
X187362914Y-196585771D01*
X188077200Y-196585771D02*
X188077200Y-195085771D01*
X188434342Y-195085771D01*
X188648628Y-195157200D01*
X188791485Y-195300057D01*
X188862914Y-195442914D01*
X188934342Y-195728628D01*
X188934342Y-195942914D01*
X188862914Y-196228628D01*
X188791485Y-196371485D01*
X188648628Y-196514342D01*
X188434342Y-196585771D01*
X188077200Y-196585771D01*
X189577200Y-196442914D02*
X189648628Y-196514342D01*
X189577200Y-196585771D01*
X189505771Y-196514342D01*
X189577200Y-196442914D01*
X189577200Y-196585771D01*
X190220057Y-196157200D02*
X190934342Y-196157200D01*
X190077200Y-196585771D02*
X190577200Y-195085771D01*
X191077200Y-196585771D01*
X191577200Y-196442914D02*
X191648628Y-196514342D01*
X191577200Y-196585771D01*
X191505771Y-196514342D01*
X191577200Y-196442914D01*
X191577200Y-196585771D01*
X194577200Y-196585771D02*
X194577200Y-195085771D01*
X194720057Y-196014342D02*
X195148628Y-196585771D01*
X195148628Y-195585771D02*
X194577200Y-196157200D01*
X195791485Y-196585771D02*
X195791485Y-195585771D01*
X195791485Y-195085771D02*
X195720057Y-195157200D01*
X195791485Y-195228628D01*
X195862914Y-195157200D01*
X195791485Y-195085771D01*
X195791485Y-195228628D01*
X197148628Y-196514342D02*
X197005771Y-196585771D01*
X196720057Y-196585771D01*
X196577200Y-196514342D01*
X196505771Y-196442914D01*
X196434342Y-196300057D01*
X196434342Y-195871485D01*
X196505771Y-195728628D01*
X196577200Y-195657200D01*
X196720057Y-195585771D01*
X197005771Y-195585771D01*
X197148628Y-195657200D01*
X198434342Y-196585771D02*
X198434342Y-195800057D01*
X198362914Y-195657200D01*
X198220057Y-195585771D01*
X197934342Y-195585771D01*
X197791485Y-195657200D01*
X198434342Y-196514342D02*
X198291485Y-196585771D01*
X197934342Y-196585771D01*
X197791485Y-196514342D01*
X197720057Y-196371485D01*
X197720057Y-196228628D01*
X197791485Y-196085771D01*
X197934342Y-196014342D01*
X198291485Y-196014342D01*
X198434342Y-195942914D01*
X199791485Y-196585771D02*
X199791485Y-195085771D01*
X199791485Y-196514342D02*
X199648628Y-196585771D01*
X199362914Y-196585771D01*
X199220057Y-196514342D01*
X199148628Y-196442914D01*
X199077200Y-196300057D01*
X199077200Y-195871485D01*
X199148628Y-195728628D01*
X199220057Y-195657200D01*
X199362914Y-195585771D01*
X199648628Y-195585771D01*
X199791485Y-195657200D01*
X202077200Y-197157200D02*
X202005771Y-197085771D01*
X201862914Y-196871485D01*
X201791485Y-196728628D01*
X201720057Y-196514342D01*
X201648628Y-196157200D01*
X201648628Y-195871485D01*
X201720057Y-195514342D01*
X201791485Y-195300057D01*
X201862914Y-195157200D01*
X202005771Y-194942914D01*
X202077200Y-194871485D01*
X203362914Y-195085771D02*
X202648628Y-195085771D01*
X202577200Y-195800057D01*
X202648628Y-195728628D01*
X202791485Y-195657200D01*
X203148628Y-195657200D01*
X203291485Y-195728628D01*
X203362914Y-195800057D01*
X203434342Y-195942914D01*
X203434342Y-196300057D01*
X203362914Y-196442914D01*
X203291485Y-196514342D01*
X203148628Y-196585771D01*
X202791485Y-196585771D01*
X202648628Y-196514342D01*
X202577200Y-196442914D01*
X204077200Y-196442914D02*
X204148628Y-196514342D01*
X204077200Y-196585771D01*
X204005771Y-196514342D01*
X204077200Y-196442914D01*
X204077200Y-196585771D01*
X205577200Y-196585771D02*
X204720057Y-196585771D01*
X205148628Y-196585771D02*
X205148628Y-195085771D01*
X205005771Y-195300057D01*
X204862914Y-195442914D01*
X204720057Y-195514342D01*
X206220057Y-196442914D02*
X206291485Y-196514342D01*
X206220057Y-196585771D01*
X206148628Y-196514342D01*
X206220057Y-196442914D01*
X206220057Y-196585771D01*
X207720057Y-196585771D02*
X206862914Y-196585771D01*
X207291485Y-196585771D02*
X207291485Y-195085771D01*
X207148628Y-195300057D01*
X207005771Y-195442914D01*
X206862914Y-195514342D01*
X208648628Y-195085771D02*
X208791485Y-195085771D01*
X208934342Y-195157200D01*
X209005771Y-195228628D01*
X209077200Y-195371485D01*
X209148628Y-195657200D01*
X209148628Y-196014342D01*
X209077200Y-196300057D01*
X209005771Y-196442914D01*
X208934342Y-196514342D01*
X208791485Y-196585771D01*
X208648628Y-196585771D01*
X208505771Y-196514342D01*
X208434342Y-196442914D01*
X208362914Y-196300057D01*
X208291485Y-196014342D01*
X208291485Y-195657200D01*
X208362914Y-195371485D01*
X208434342Y-195228628D01*
X208505771Y-195157200D01*
X208648628Y-195085771D01*
X209648628Y-197157200D02*
X209720057Y-197085771D01*
X209862914Y-196871485D01*
X209934342Y-196728628D01*
X210005771Y-196514342D01*
X210077200Y-196157200D01*
X210077200Y-195871485D01*
X210005771Y-195514342D01*
X209934342Y-195300057D01*
X209862914Y-195157200D01*
X209720057Y-194942914D01*
X209648628Y-194871485D01*
X210791485Y-196014342D02*
X211934342Y-196014342D01*
X213434342Y-196585771D02*
X212577200Y-196585771D01*
X213005771Y-196585771D02*
X213005771Y-195085771D01*
X212862914Y-195300057D01*
X212720057Y-195442914D01*
X212577200Y-195514342D01*
D10*
D11*
X177002200Y-191507200D02*
X285002200Y-191507200D01*
D10*
D12*
X264411485Y-193785771D02*
X263911485Y-193071485D01*
X263554342Y-193785771D02*
X263554342Y-192285771D01*
X264125771Y-192285771D01*
X264268628Y-192357200D01*
X264340057Y-192428628D01*
X264411485Y-192571485D01*
X264411485Y-192785771D01*
X264340057Y-192928628D01*
X264268628Y-193000057D01*
X264125771Y-193071485D01*
X263554342Y-193071485D01*
X265625771Y-193714342D02*
X265482914Y-193785771D01*
X265197200Y-193785771D01*
X265054342Y-193714342D01*
X264982914Y-193571485D01*
X264982914Y-193000057D01*
X265054342Y-192857200D01*
X265197200Y-192785771D01*
X265482914Y-192785771D01*
X265625771Y-192857200D01*
X265697200Y-193000057D01*
X265697200Y-193142914D01*
X264982914Y-193285771D01*
X266197200Y-192785771D02*
X266554342Y-193785771D01*
X266911485Y-192785771D01*
X267482914Y-193642914D02*
X267554342Y-193714342D01*
X267482914Y-193785771D01*
X267411485Y-193714342D01*
X267482914Y-193642914D01*
X267482914Y-193785771D01*
X267482914Y-192857200D02*
X267554342Y-192928628D01*
X267482914Y-193000057D01*
X267411485Y-192928628D01*
X267482914Y-192857200D01*
X267482914Y-193000057D01*
D10*
D11*
X178362914Y-193714342D02*
X178577200Y-193785771D01*
X178934342Y-193785771D01*
X179077200Y-193714342D01*
X179148628Y-193642914D01*
X179220057Y-193500057D01*
X179220057Y-193357200D01*
X179148628Y-193214342D01*
X179077200Y-193142914D01*
X178934342Y-193071485D01*
X178648628Y-193000057D01*
X178505771Y-192928628D01*
X178434342Y-192857200D01*
X178362914Y-192714342D01*
X178362914Y-192571485D01*
X178434342Y-192428628D01*
X178505771Y-192357200D01*
X178648628Y-192285771D01*
X179005771Y-192285771D01*
X179220057Y-192357200D01*
X179862914Y-193785771D02*
X179862914Y-192785771D01*
X179862914Y-192285771D02*
X179791485Y-192357200D01*
X179862914Y-192428628D01*
X179934342Y-192357200D01*
X179862914Y-192285771D01*
X179862914Y-192428628D01*
X180434342Y-192785771D02*
X181220057Y-192785771D01*
X180434342Y-193785771D01*
X181220057Y-193785771D01*
X182362914Y-193714342D02*
X182220057Y-193785771D01*
X181934342Y-193785771D01*
X181791485Y-193714342D01*
X181720057Y-193571485D01*
X181720057Y-193000057D01*
X181791485Y-192857200D01*
X181934342Y-192785771D01*
X182220057Y-192785771D01*
X182362914Y-192857200D01*
X182434342Y-193000057D01*
X182434342Y-193142914D01*
X181720057Y-193285771D01*
X183077200Y-193642914D02*
X183148628Y-193714342D01*
X183077200Y-193785771D01*
X183005771Y-193714342D01*
X183077200Y-193642914D01*
X183077200Y-193785771D01*
X183077200Y-192857200D02*
X183148628Y-192928628D01*
X183077200Y-193000057D01*
X183005771Y-192928628D01*
X183077200Y-192857200D01*
X183077200Y-193000057D01*
X184862914Y-193357200D02*
X185577200Y-193357200D01*
X184720057Y-193785771D02*
X185220057Y-192285771D01*
X185720057Y-193785771D01*
X186862914Y-192785771D02*
X186862914Y-193785771D01*
X186505771Y-192214342D02*
X186148628Y-193285771D01*
X187077200Y-193285771D01*
D10*
D11*
X263434342Y-196585771D02*
X263434342Y-195085771D01*
X264791485Y-196585771D02*
X264791485Y-195085771D01*
X264791485Y-196514342D02*
X264648628Y-196585771D01*
X264362914Y-196585771D01*
X264220057Y-196514342D01*
X264148628Y-196442914D01*
X264077200Y-196300057D01*
X264077200Y-195871485D01*
X264148628Y-195728628D01*
X264220057Y-195657200D01*
X264362914Y-195585771D01*
X264648628Y-195585771D01*
X264791485Y-195657200D01*
X265505771Y-196442914D02*
X265577200Y-196514342D01*
X265505771Y-196585771D01*
X265434342Y-196514342D01*
X265505771Y-196442914D01*
X265505771Y-196585771D01*
X265505771Y-195657200D02*
X265577200Y-195728628D01*
X265505771Y-195800057D01*
X265434342Y-195728628D01*
X265505771Y-195657200D01*
X265505771Y-195800057D01*
X268148628Y-196585771D02*
X267291485Y-196585771D01*
X267720057Y-196585771D02*
X267720057Y-195085771D01*
X267577200Y-195300057D01*
X267434342Y-195442914D01*
X267291485Y-195514342D01*
X269862914Y-195014342D02*
X268577200Y-196942914D01*
X271148628Y-196585771D02*
X270291485Y-196585771D01*
X270720057Y-196585771D02*
X270720057Y-195085771D01*
X270577200Y-195300057D01*
X270434342Y-195442914D01*
X270291485Y-195514342D01*
D10*
D11*
X177002200Y-187507200D02*
X285002200Y-187507200D01*
D10*
D13*
X178714580Y-188211961D02*
X179857438Y-188211961D01*
X179036009Y-190211961D02*
X179286009Y-188211961D01*
X180274104Y-190211961D02*
X180440771Y-188878628D01*
X180524104Y-188211961D02*
X180416961Y-188307200D01*
X180500295Y-188402438D01*
X180607438Y-188307200D01*
X180524104Y-188211961D01*
X180500295Y-188402438D01*
X181107438Y-188878628D02*
X181869342Y-188878628D01*
X181476485Y-188211961D02*
X181262200Y-189926247D01*
X181333628Y-190116723D01*
X181512200Y-190211961D01*
X181702676Y-190211961D01*
X182655057Y-190211961D02*
X182476485Y-190116723D01*
X182405057Y-189926247D01*
X182619342Y-188211961D01*
X184190771Y-190116723D02*
X183988390Y-190211961D01*
X183607438Y-190211961D01*
X183428866Y-190116723D01*
X183357438Y-189926247D01*
X183452676Y-189164342D01*
X183571723Y-188973866D01*
X183774104Y-188878628D01*
X184155057Y-188878628D01*
X184333628Y-188973866D01*
X184405057Y-189164342D01*
X184381247Y-189354819D01*
X183405057Y-189545295D01*
X185155057Y-190021485D02*
X185238390Y-190116723D01*
X185131247Y-190211961D01*
X185047914Y-190116723D01*
X185155057Y-190021485D01*
X185131247Y-190211961D01*
X185286009Y-188973866D02*
X185369342Y-189069104D01*
X185262200Y-189164342D01*
X185178866Y-189069104D01*
X185286009Y-188973866D01*
X185262200Y-189164342D01*
D10*
D11*
X178934342Y-185600057D02*
X178434342Y-185600057D01*
X178434342Y-186385771D02*
X178434342Y-184885771D01*
X179148628Y-184885771D01*
X179720057Y-186385771D02*
X179720057Y-185385771D01*
X179720057Y-184885771D02*
X179648628Y-184957200D01*
X179720057Y-185028628D01*
X179791485Y-184957200D01*
X179720057Y-184885771D01*
X179720057Y-185028628D01*
X180648628Y-186385771D02*
X180505771Y-186314342D01*
X180434342Y-186171485D01*
X180434342Y-184885771D01*
X181791485Y-186314342D02*
X181648628Y-186385771D01*
X181362914Y-186385771D01*
X181220057Y-186314342D01*
X181148628Y-186171485D01*
X181148628Y-185600057D01*
X181220057Y-185457200D01*
X181362914Y-185385771D01*
X181648628Y-185385771D01*
X181791485Y-185457200D01*
X181862914Y-185600057D01*
X181862914Y-185742914D01*
X181148628Y-185885771D01*
X182505771Y-186242914D02*
X182577200Y-186314342D01*
X182505771Y-186385771D01*
X182434342Y-186314342D01*
X182505771Y-186242914D01*
X182505771Y-186385771D01*
X182505771Y-185457200D02*
X182577200Y-185528628D01*
X182505771Y-185600057D01*
X182434342Y-185528628D01*
X182505771Y-185457200D01*
X182505771Y-185600057D01*
X184291485Y-185957200D02*
X185005771Y-185957200D01*
X184148628Y-186385771D02*
X184648628Y-184885771D01*
X185148628Y-186385771D01*
X185862914Y-186385771D02*
X185720057Y-186314342D01*
X185648628Y-186171485D01*
X185648628Y-184885771D01*
X187077200Y-186385771D02*
X187077200Y-185600057D01*
X187005771Y-185457200D01*
X186862914Y-185385771D01*
X186577200Y-185385771D01*
X186434342Y-185457200D01*
X187077200Y-186314342D02*
X186934342Y-186385771D01*
X186577200Y-186385771D01*
X186434342Y-186314342D01*
X186362914Y-186171485D01*
X186362914Y-186028628D01*
X186434342Y-185885771D01*
X186577200Y-185814342D01*
X186934342Y-185814342D01*
X187077200Y-185742914D01*
X187791485Y-186385771D02*
X187791485Y-185385771D01*
X187791485Y-185671485D02*
X187862914Y-185528628D01*
X187934342Y-185457200D01*
X188077200Y-185385771D01*
X188220057Y-185385771D01*
X188720057Y-186385771D02*
X188720057Y-185385771D01*
X188720057Y-185528628D02*
X188791485Y-185457200D01*
X188934342Y-185385771D01*
X189148628Y-185385771D01*
X189291485Y-185457200D01*
X189362914Y-185600057D01*
X189362914Y-186385771D01*
X189362914Y-185600057D02*
X189434342Y-185457200D01*
X189577200Y-185385771D01*
X189791485Y-185385771D01*
X189934342Y-185457200D01*
X190005771Y-185600057D01*
X190005771Y-186385771D01*
X190720057Y-185814342D02*
X191862914Y-185814342D01*
X193434342Y-186242914D02*
X193362914Y-186314342D01*
X193148628Y-186385771D01*
X193005771Y-186385771D01*
X192791485Y-186314342D01*
X192648628Y-186171485D01*
X192577200Y-186028628D01*
X192505771Y-185742914D01*
X192505771Y-185528628D01*
X192577200Y-185242914D01*
X192648628Y-185100057D01*
X192791485Y-184957200D01*
X193005771Y-184885771D01*
X193148628Y-184885771D01*
X193362914Y-184957200D01*
X193434342Y-185028628D01*
X194291485Y-186385771D02*
X194148628Y-186314342D01*
X194077200Y-186171485D01*
X194077200Y-184885771D01*
X195077200Y-186385771D02*
X194934342Y-186314342D01*
X194862914Y-186242914D01*
X194791485Y-186100057D01*
X194791485Y-185671485D01*
X194862914Y-185528628D01*
X194934342Y-185457200D01*
X195077200Y-185385771D01*
X195291485Y-185385771D01*
X195434342Y-185457200D01*
X195505771Y-185528628D01*
X195577200Y-185671485D01*
X195577200Y-186100057D01*
X195505771Y-186242914D01*
X195434342Y-186314342D01*
X195291485Y-186385771D01*
X195077200Y-186385771D01*
X196862914Y-186314342D02*
X196720057Y-186385771D01*
X196434342Y-186385771D01*
X196291485Y-186314342D01*
X196220057Y-186242914D01*
X196148628Y-186100057D01*
X196148628Y-185671485D01*
X196220057Y-185528628D01*
X196291485Y-185457200D01*
X196434342Y-185385771D01*
X196720057Y-185385771D01*
X196862914Y-185457200D01*
X197505771Y-186385771D02*
X197505771Y-184885771D01*
X197648628Y-185814342D02*
X198077200Y-186385771D01*
X198077200Y-185385771D02*
X197505771Y-185957200D01*
X198720057Y-186242914D02*
X198791485Y-186314342D01*
X198720057Y-186385771D01*
X198648628Y-186314342D01*
X198720057Y-186242914D01*
X198720057Y-186385771D01*
X199434342Y-186385771D02*
X199434342Y-184885771D01*
X199577200Y-185814342D02*
X200005771Y-186385771D01*
X200005771Y-185385771D02*
X199434342Y-185957200D01*
X200648628Y-186385771D02*
X200648628Y-185385771D01*
X200648628Y-184885771D02*
X200577200Y-184957200D01*
X200648628Y-185028628D01*
X200720057Y-184957200D01*
X200648628Y-184885771D01*
X200648628Y-185028628D01*
X202005771Y-186314342D02*
X201862914Y-186385771D01*
X201577200Y-186385771D01*
X201434342Y-186314342D01*
X201362914Y-186242914D01*
X201291485Y-186100057D01*
X201291485Y-185671485D01*
X201362914Y-185528628D01*
X201434342Y-185457200D01*
X201577200Y-185385771D01*
X201862914Y-185385771D01*
X202005771Y-185457200D01*
X203291485Y-186385771D02*
X203291485Y-185600057D01*
X203220057Y-185457200D01*
X203077200Y-185385771D01*
X202791485Y-185385771D01*
X202648628Y-185457200D01*
X203291485Y-186314342D02*
X203148628Y-186385771D01*
X202791485Y-186385771D01*
X202648628Y-186314342D01*
X202577200Y-186171485D01*
X202577200Y-186028628D01*
X202648628Y-185885771D01*
X202791485Y-185814342D01*
X203148628Y-185814342D01*
X203291485Y-185742914D01*
X204648628Y-186385771D02*
X204648628Y-184885771D01*
X204648628Y-186314342D02*
X204505771Y-186385771D01*
X204220057Y-186385771D01*
X204077200Y-186314342D01*
X204005771Y-186242914D01*
X203934342Y-186100057D01*
X203934342Y-185671485D01*
X204005771Y-185528628D01*
X204077200Y-185457200D01*
X204220057Y-185385771D01*
X204505771Y-185385771D01*
X204648628Y-185457200D01*
X205005771Y-186528628D02*
X206148628Y-186528628D01*
X206505771Y-185385771D02*
X206505771Y-186885771D01*
X206505771Y-185457200D02*
X206648628Y-185385771D01*
X206934342Y-185385771D01*
X207077200Y-185457200D01*
X207148628Y-185528628D01*
X207220057Y-185671485D01*
X207220057Y-186100057D01*
X207148628Y-186242914D01*
X207077200Y-186314342D01*
X206934342Y-186385771D01*
X206648628Y-186385771D01*
X206505771Y-186314342D01*
X208505771Y-186314342D02*
X208362914Y-186385771D01*
X208077200Y-186385771D01*
X207934342Y-186314342D01*
X207862914Y-186242914D01*
X207791485Y-186100057D01*
X207791485Y-185671485D01*
X207862914Y-185528628D01*
X207934342Y-185457200D01*
X208077200Y-185385771D01*
X208362914Y-185385771D01*
X208505771Y-185457200D01*
X209148628Y-186385771D02*
X209148628Y-184885771D01*
X209148628Y-185457200D02*
X209291485Y-185385771D01*
X209577200Y-185385771D01*
X209720057Y-185457200D01*
X209791485Y-185528628D01*
X209862914Y-185671485D01*
X209862914Y-186100057D01*
X209791485Y-186242914D01*
X209720057Y-186314342D01*
X209577200Y-186385771D01*
X209291485Y-186385771D01*
X209148628Y-186314342D01*
D10*
D11*
X177002200Y-181507200D02*
X285002200Y-181507200D01*
D10*
D11*
X178362914Y-183614342D02*
X178577200Y-183685771D01*
X178934342Y-183685771D01*
X179077200Y-183614342D01*
X179148628Y-183542914D01*
X179220057Y-183400057D01*
X179220057Y-183257200D01*
X179148628Y-183114342D01*
X179077200Y-183042914D01*
X178934342Y-182971485D01*
X178648628Y-182900057D01*
X178505771Y-182828628D01*
X178434342Y-182757200D01*
X178362914Y-182614342D01*
X178362914Y-182471485D01*
X178434342Y-182328628D01*
X178505771Y-182257200D01*
X178648628Y-182185771D01*
X179005771Y-182185771D01*
X179220057Y-182257200D01*
X179862914Y-183685771D02*
X179862914Y-182185771D01*
X180505771Y-183685771D02*
X180505771Y-182900057D01*
X180434342Y-182757200D01*
X180291485Y-182685771D01*
X180077200Y-182685771D01*
X179934342Y-182757200D01*
X179862914Y-182828628D01*
X181791485Y-183614342D02*
X181648628Y-183685771D01*
X181362914Y-183685771D01*
X181220057Y-183614342D01*
X181148628Y-183471485D01*
X181148628Y-182900057D01*
X181220057Y-182757200D01*
X181362914Y-182685771D01*
X181648628Y-182685771D01*
X181791485Y-182757200D01*
X181862914Y-182900057D01*
X181862914Y-183042914D01*
X181148628Y-183185771D01*
X183077200Y-183614342D02*
X182934342Y-183685771D01*
X182648628Y-183685771D01*
X182505771Y-183614342D01*
X182434342Y-183471485D01*
X182434342Y-182900057D01*
X182505771Y-182757200D01*
X182648628Y-182685771D01*
X182934342Y-182685771D01*
X183077200Y-182757200D01*
X183148628Y-182900057D01*
X183148628Y-183042914D01*
X182434342Y-183185771D01*
X183577200Y-182685771D02*
X184148628Y-182685771D01*
X183791485Y-182185771D02*
X183791485Y-183471485D01*
X183862914Y-183614342D01*
X184005771Y-183685771D01*
X184148628Y-183685771D01*
X184648628Y-183542914D02*
X184720057Y-183614342D01*
X184648628Y-183685771D01*
X184577200Y-183614342D01*
X184648628Y-183542914D01*
X184648628Y-183685771D01*
X184648628Y-182757200D02*
X184720057Y-182828628D01*
X184648628Y-182900057D01*
X184577200Y-182828628D01*
X184648628Y-182757200D01*
X184648628Y-182900057D01*
D10*
D11*
X197002200Y-191507200D02*
X197002200Y-194507200D01*
D10*
D11*
X261002200Y-191507200D02*
X261002200Y-198007200D01*
D14*
%TO.P,DIS1,16*%
%TO.N,Net-(C1-Pad2)*%
X152861100Y-129706100D03*
%TO.P,DIS1,15*%
%TO.N,Net-(DIS1-Pad15)*%
X150321100Y-129706100D03*
%TO.P,DIS1,14*%
%TO.N,Net-(DIS1-Pad14)*%
X147781100Y-129706100D03*
%TO.P,DIS1,13*%
%TO.N,Net-(DIS1-Pad13)*%
X145241100Y-129706100D03*
%TO.P,DIS1,12*%
%TO.N,Net-(DIS1-Pad12)*%
X142701100Y-129706100D03*
%TO.P,DIS1,11*%
%TO.N,Net-(DIS1-Pad11)*%
X140161100Y-129706100D03*
%TO.P,DIS1,10*%
%TO.N,Net-(DIS1-Pad10)*%
X137621100Y-129706100D03*
%TO.P,DIS1,9*%
%TO.N,Net-(DIS1-Pad9)*%
X135081100Y-129706100D03*
%TO.P,DIS1,8*%
%TO.N,Net-(DIS1-Pad8)*%
X132541100Y-129706100D03*
%TO.P,DIS1,7*%
%TO.N,Net-(DIS1-Pad7)*%
X130001100Y-129706100D03*
%TO.P,DIS1,6*%
%TO.N,Net-(DIS1-Pad6)*%
X127461100Y-129706100D03*
%TO.P,DIS1,5*%
%TO.N,Net-(C1-Pad2)*%
X124921100Y-129706100D03*
%TO.P,DIS1,4*%
%TO.N,Net-(DIS1-Pad4)*%
X122381100Y-129706100D03*
%TO.P,DIS1,3*%
%TO.N,Net-(DIS1-Pad3)*%
X119841100Y-129706100D03*
%TO.P,DIS1,2*%
%TO.N,Net-(D2-PadA)*%
X117301100Y-129706100D03*
%TO.P,DIS1,1*%
%TO.N,Net-(C1-Pad2)*%
X114761100Y-129706100D03*
%TD*%
D15*
%TO.P,Q1,2*%
%TO.N,Net-(C1-Pad1)*%
X130251100Y-118143100D03*
%TO.P,Q1,1*%
%TO.N,Net-(C2-Pad1)*%
X130251100Y-122969100D03*
%TD*%
D16*
%TO.P,IC1,32*%
%TO.N,Net-(IC1-Pad32)*%
X135071100Y-108643500D03*
%TO.P,IC1,31*%
%TO.N,Net-(IC1-Pad31)*%
X135871100Y-108643500D03*
%TO.P,IC1,30*%
%TO.N,Net-(IC1-Pad30)*%
X136671100Y-108643500D03*
%TO.P,IC1,29*%
%TO.N,Net-(IC1-Pad29)*%
X137471100Y-108643500D03*
%TO.P,IC1,28*%
%TO.N,Net-(IC1-Pad28)*%
X138271100Y-108643500D03*
%TO.P,IC1,27*%
%TO.N,Net-(IC1-Pad27)*%
X139071100Y-108643500D03*
%TO.P,IC1,26*%
%TO.N,Net-(IC1-Pad26)*%
X139871100Y-108643500D03*
%TO.P,IC1,25*%
%TO.N,Net-(IC1-Pad25)*%
X140671100Y-108643500D03*
D17*
%TO.P,IC1,24*%
%TO.N,Net-(IC1-Pad24)*%
X142163700Y-110136100D03*
%TO.P,IC1,23*%
%TO.N,Net-(IC1-Pad23)*%
X142163700Y-110936100D03*
%TO.P,IC1,22*%
%TO.N,Net-(IC1-Pad22)*%
X142163700Y-111736100D03*
%TO.P,IC1,21*%
%TO.N,GND*%
X142163700Y-112536100D03*
%TO.P,IC1,20*%
%TO.N,Net-(IC1-Pad20)*%
X142163700Y-113336100D03*
%TO.P,IC1,19*%
%TO.N,Net-(IC1-Pad19)*%
X142163700Y-114136100D03*
%TO.P,IC1,18*%
%TO.N,Net-(D1-PadC)*%
X142163700Y-114936100D03*
%TO.P,IC1,17*%
%TO.N,Net-(DIS1-Pad4)*%
X142163700Y-115736100D03*
D16*
%TO.P,IC1,16*%
%TO.N,Net-(DIS1-Pad6)*%
X140671100Y-117228700D03*
%TO.P,IC1,15*%
%TO.N,Net-(DIS1-Pad14)*%
X139871100Y-117228700D03*
%TO.P,IC1,14*%
%TO.N,Net-(DIS1-Pad13)*%
X139071100Y-117228700D03*
%TO.P,IC1,13*%
%TO.N,Net-(DIS1-Pad12)*%
X138271100Y-117228700D03*
%TO.P,IC1,12*%
%TO.N,Net-(DIS1-Pad11)*%
X137471100Y-117228700D03*
%TO.P,IC1,11*%
%TO.N,Net-(IC1-Pad11)*%
X136671100Y-117228700D03*
%TO.P,IC1,10*%
%TO.N,Net-(IC1-Pad10)*%
X135871100Y-117228700D03*
%TO.P,IC1,9*%
%TO.N,Net-(IC1-Pad9)*%
X135071100Y-117228700D03*
D17*
%TO.P,IC1,8*%
%TO.N,Net-(C1-Pad1)*%
X133578500Y-115736100D03*
%TO.P,IC1,7*%
%TO.N,Net-(C2-Pad1)*%
X133578500Y-114936100D03*
%TO.P,IC1,6*%
%TO.N,Net-(D1-PadC)*%
X133578500Y-114136100D03*
%TO.P,IC1,5*%
%TO.N,Net-(C1-Pad2)*%
X133578500Y-113336100D03*
%TO.P,IC1,4*%
%TO.N,Net-(D1-PadC)*%
X133578500Y-112536100D03*
%TO.P,IC1,3*%
%TO.N,Net-(C1-Pad2)*%
X133578500Y-111736100D03*
%TO.P,IC1,2*%
%TO.N,Net-(IC1-Pad2)*%
X133578500Y-110936100D03*
%TO.P,IC1,1*%
%TO.N,Net-(IC1-Pad1)*%
X133578500Y-110136100D03*
%TD*%
D15*
%TO.P,R1,2*%
%TO.N,Net-(R1-Pad2)*%
X125171100Y-105316100D03*
%TO.P,R1,1*%
%TO.N,Net-(IC1-Pad32)*%
X132791100Y-105316100D03*
%TD*%
%TO.P,R2,2*%
%TO.N,Net-(R2-Pad2)*%
X121996100Y-113253600D03*
%TO.P,R2,1*%
%TO.N,Net-(IC1-Pad1)*%
X121996100Y-105633600D03*
%TD*%
%TO.P,R3,2*%
%TO.N,Net-(C1-Pad2)*%
X125171100Y-111666100D03*
%TO.P,R3,1*%
%TO.N,Net-(R1-Pad2)*%
X125171100Y-106586100D03*
%TD*%
%TO.P,R4,2*%
%TO.N,Net-(R2-Pad2)*%
X122631100Y-114206100D03*
%TO.P,R4,1*%
%TO.N,Net-(D1-PadC)*%
X130251100Y-114206100D03*
%TD*%
D18*
%TO.P,D1,A*%
%TO.N,Net-(D1-PadA)*%
X117551100Y-120556100D03*
%TO.P,D1,C*%
%TO.N,Net-(D1-PadC)*%
X125171100Y-120556100D03*
%TD*%
%TO.P,D2,A*%
%TO.N,Net-(D2-PadA)*%
X113741100Y-118016100D03*
%TO.P,D2,C*%
%TO.N,Net-(D1-PadA)*%
X121361100Y-118016100D03*
%TD*%
D15*
%TO.P,C1,2*%
%TO.N,Net-(C1-Pad2)*%
X123901100Y-123096100D03*
%TO.P,C1,1*%
%TO.N,Net-(C1-Pad1)*%
X126441100Y-123096100D03*
%TD*%
%TO.P,C2,2*%
%TO.N,Net-(C1-Pad2)*%
X123901100Y-118016100D03*
%TO.P,C2,1*%
%TO.N,Net-(C2-Pad1)*%
X126441100Y-118016100D03*
%TD*%
%TO.P,R5,2*%
%TO.N,Net-(D2-PadA)*%
X116281100Y-123096100D03*
%TO.P,R5,1*%
%TO.N,Net-(DIS1-Pad3)*%
X121361100Y-123096100D03*
%TD*%
D19*
%TO.P,X1,5*%
%TO.N,Net-(C1-Pad2)*%
X105311100Y-122156100D03*
%TO.P,X1,4*%
%TO.N,Net-(X1-Pad4)*%
X105311100Y-121356100D03*
%TO.P,X1,3*%
%TO.N,Net-(R1-Pad2)*%
X105311100Y-120556100D03*
%TO.P,X1,2*%
%TO.N,Net-(R2-Pad2)*%
X105311100Y-119756100D03*
%TO.P,X1,1*%
%TO.N,Net-(D2-PadA)*%
X105311100Y-118956100D03*
D20*
%TO.P,X1,M3*%
%TO.N,N/C*%
X105211100Y-116106100D03*
%TO.P,X1,M4*%
X105211100Y-125006100D03*
D21*
%TO.P,X1,M2*%
X99311100Y-116106100D03*
%TO.P,X1,M1*%
X99311100Y-125006100D03*
%TD*%
D22*
%TO.P,JP1,8*%
%TO.N,Net-(JP1-Pad8)*%
X193751100Y-123096100D03*
%TO.P,JP1,7*%
%TO.N,Net-(JP1-Pad7)*%
X191211100Y-123096100D03*
%TO.P,JP1,6*%
%TO.N,Net-(JP1-Pad6)*%
X188671100Y-123096100D03*
%TO.P,JP1,5*%
%TO.N,Net-(JP1-Pad5)*%
X186131100Y-123096100D03*
%TO.P,JP1,4*%
%TO.N,Net-(JP1-Pad4)*%
X183591100Y-123096100D03*
%TO.P,JP1,3*%
%TO.N,Net-(JP1-Pad3)*%
X181051100Y-123096100D03*
%TO.P,JP1,2*%
%TO.N,Net-(JP1-Pad2)*%
X178511100Y-123096100D03*
%TO.P,JP1,1*%
%TO.N,Net-(IC1-Pad2)*%
X175971100Y-123096100D03*
%TD*%
%TO.P,JP2,8*%
%TO.N,Net-(JP2-Pad8)*%
X193751100Y-105316100D03*
%TO.P,JP2,7*%
%TO.N,Net-(C1-Pad2)*%
X191211100Y-105316100D03*
%TO.P,JP2,6*%
%TO.N,Net-(JP2-Pad6)*%
X188671100Y-105316100D03*
%TO.P,JP2,5*%
%TO.N,Net-(JP2-Pad5)*%
X186131100Y-105316100D03*
%TO.P,JP2,4*%
%TO.N,Net-(JP2-Pad4)*%
X183591100Y-105316100D03*
%TO.P,JP2,3*%
%TO.N,Net-(IC1-Pad30)*%
X181051100Y-105316100D03*
%TO.P,JP2,2*%
%TO.N,Net-(IC1-Pad31)*%
X178511100Y-105316100D03*
%TO.P,JP2,1*%
%TO.N,Net-(D2-PadA)*%
X175971100Y-105316100D03*
%TD*%
D23*
%TO.P,S1,4*%
%TO.N,Net-(IC1-Pad26)*%
X124612300Y-83446700D03*
%TO.P,S1,2*%
%TO.N,Net-(C1-Pad2)*%
X124612300Y-78925500D03*
%TO.P,S1,3*%
%TO.N,Net-(IC1-Pad26)*%
X118109900Y-83446700D03*
%TO.P,S1,1*%
%TO.N,Net-(C1-Pad2)*%
X118109900Y-78925500D03*
%TD*%
%TO.P,S2,4*%
%TO.N,Net-(IC1-Pad25)*%
X141122300Y-83446700D03*
%TO.P,S2,2*%
%TO.N,Net-(C1-Pad2)*%
X141122300Y-78925500D03*
%TO.P,S2,3*%
%TO.N,Net-(IC1-Pad25)*%
X134619900Y-83446700D03*
%TO.P,S2,1*%
%TO.N,Net-(C1-Pad2)*%
X134619900Y-78925500D03*
%TD*%
%TO.P,S3,4*%
%TO.N,Net-(IC1-Pad24)*%
X157632300Y-83446700D03*
%TO.P,S3,2*%
%TO.N,Net-(C1-Pad2)*%
X157632300Y-78925500D03*
%TO.P,S3,3*%
%TO.N,Net-(IC1-Pad24)*%
X151129900Y-83446700D03*
%TO.P,S3,1*%
%TO.N,Net-(C1-Pad2)*%
X151129900Y-78925500D03*
%TD*%
%TO.P,S4,4*%
%TO.N,Net-(IC1-Pad23)*%
X174142300Y-83446700D03*
%TO.P,S4,2*%
%TO.N,Net-(C1-Pad2)*%
X174142300Y-78925500D03*
%TO.P,S4,3*%
%TO.N,Net-(IC1-Pad23)*%
X167639900Y-83446700D03*
%TO.P,S4,1*%
%TO.N,Net-(C1-Pad2)*%
X167639900Y-78925500D03*
%TD*%
D22*
%TO.P,JP4,10*%
%TO.N,Net-(JP4-Pad10)*%
X172796100Y-125636100D03*
%TO.P,JP4,9*%
%TO.N,Net-(JP4-Pad9)*%
X170256100Y-125636100D03*
%TO.P,JP4,8*%
%TO.N,Net-(JP4-Pad8)*%
X167716100Y-125636100D03*
%TO.P,JP4,7*%
%TO.N,Net-(JP4-Pad7)*%
X165176100Y-125636100D03*
%TO.P,JP4,6*%
%TO.N,Net-(IC1-Pad28)*%
X162636100Y-125636100D03*
%TO.P,JP4,5*%
%TO.N,Net-(IC1-Pad27)*%
X160096100Y-125636100D03*
%TO.P,JP4,4*%
%TO.N,Net-(D2-PadA)*%
X157556100Y-125636100D03*
%TO.P,JP4,3*%
%TO.N,Net-(C1-Pad2)*%
X155016100Y-125636100D03*
%TO.P,JP4,2*%
%TO.N,Net-(JP4-Pad2)*%
X152476100Y-125636100D03*
%TO.P,JP4,1*%
%TO.N,Net-(JP4-Pad1)*%
X149936100Y-125636100D03*
%TD*%
D24*
%TO.P,JP7,1*%
%TO.N,Net-(IC1-Pad29)*%
X135013600Y-95156100D03*
%TD*%
D15*
%TO.P,R6,2*%
%TO.N,Net-(DIS1-Pad15)*%
X150253600Y-132938600D03*
%TO.P,R6,1*%
%TO.N,Net-(D2-PadA)*%
X142633600Y-132938600D03*
%TD*%
D24*
%TO.P,JP8,1*%
%TO.N,Net-(JP2-Pad4)*%
X103898600Y-82773600D03*
%TD*%
%TO.P,JP9,1*%
%TO.N,Net-(JP2-Pad5)*%
X107708600Y-90393600D03*
%TD*%
D22*
%TO.P,JP11,4*%
%TO.N,Net-(JP11-Pad4)*%
X107708600Y-90393600D03*
%TO.P,JP11,3*%
%TO.N,Net-(JP11-Pad3)*%
X105168600Y-90393600D03*
%TO.P,JP11,2*%
%TO.N,Net-(JP11-Pad2)*%
X102628600Y-90393600D03*
%TO.P,JP11,1*%
%TO.N,Net-(JP11-Pad1)*%
X100088600Y-90393600D03*
%TD*%
D24*
%TO.P,JP13,1*%
%TO.N,Net-(C1-Pad2)*%
X99771100Y-82773600D03*
%TD*%
D25*
%TO.N,*%
X161290000Y-104902000D03*
D26*
%TO.N,N$56*%
X135648600Y-121508600D03*
D27*
%TO.N,Net-(IC1-Pad31)*%
X178511100Y-104998600D03*
%TO.N,Net-(IC1-Pad30)*%
X181051100Y-104998600D03*
D28*
%TO.N,Net-(IC1-Pad28)*%
X137871100Y-96108600D03*
X147396100Y-96426100D03*
D27*
X162953600Y-125636100D03*
D28*
%TO.N,Net-(IC1-Pad27)*%
X138506100Y-93886100D03*
X146761100Y-93886100D03*
D27*
X160413600Y-125636100D03*
%TO.N,Net-(D1-PadC)*%
X125171100Y-120524350D03*
X130314600Y-114237850D03*
%TO.N,Net-(DIS1-Pad4)*%
X122313600Y-129763600D03*
D26*
X134061100Y-127541100D03*
X142951100Y-123096100D03*
D27*
%TO.N,Net-(DIS1-Pad6)*%
X127393600Y-129763600D03*
D26*
X133426100Y-125636100D03*
X141363600Y-121508600D03*
D27*
%TO.N,Net-(DIS1-Pad14)*%
X147713600Y-129763600D03*
%TO.N,Net-(DIS1-Pad13)*%
X145173600Y-129763600D03*
%TO.N,Net-(DIS1-Pad12)*%
X142633600Y-129763600D03*
%TO.N,Net-(DIS1-Pad11)*%
X140093600Y-129763600D03*
%TO.N,Net-(IC1-Pad10)*%
X133426100Y-121191100D03*
%TO.N,Net-(IC1-Pad9)*%
X133426100Y-118333600D03*
%TO.N,Net-(C1-Pad1)*%
X126250600Y-123159600D03*
%TO.N,Net-(C1-Pad2)*%
X191211100Y-104998600D03*
X114693600Y-129763600D03*
X124853600Y-129763600D03*
X152793600Y-129763600D03*
X155333600Y-125636100D03*
X123869350Y-123096100D03*
X125139350Y-111793100D03*
X123964600Y-118016100D03*
D26*
X110566100Y-112301100D03*
X110566100Y-121191100D03*
X121361100Y-126906100D03*
X115646100Y-126906100D03*
D28*
%TO.N,Net-(IC1-Pad2)*%
X148666100Y-100236100D03*
X131838600Y-102141100D03*
D27*
X175971100Y-122778600D03*
X131870350Y-102172850D03*
%TO.N,Net-(IC1-Pad1)*%
X122027850Y-105601850D03*
%TO.N,Net-(R1-Pad2)*%
X125234600Y-106649600D03*
X125234600Y-105316100D03*
%TO.N,Net-(R2-Pad2)*%
X121996100Y-113190100D03*
X122662850Y-114237850D03*
%TO.N,Net-(D1-PadA)*%
X117582850Y-120556100D03*
X121265850Y-118016100D03*
%TO.N,Net-(D2-PadA)*%
X117233600Y-129763600D03*
X157873600Y-125636100D03*
X175971100Y-104998600D03*
X116312850Y-123159600D03*
X113709350Y-118047850D03*
D28*
%TO.N,Net-(DIS1-Pad15)*%
X150253600Y-132303600D03*
D27*
X150253600Y-129763600D03*
%TO.N,Net-(DIS1-Pad3)*%
X119773600Y-129763600D03*
%TO.N,Net-(JP1-Pad7)*%
X191211100Y-122778600D03*
%TO.N,Net-(JP2-Pad5)*%
X147396100Y-91028600D03*
X186131100Y-104998600D03*
X127076100Y-92298600D03*
%TO.N,Net-(JP2-Pad4)*%
X147396100Y-88171100D03*
X183591100Y-104998600D03*
X127076100Y-89758600D03*
%TD*%
D29*
%TO.N,N$56*%
X136601100Y-118016100D02*
X136601100Y-119603600D01*
X136601100Y-119603600D02*
X135648600Y-121508600D01*
X135648600Y-121508600D02*
X135648600Y-121508600D01*
D30*
%TO.N,N$57*%
X108978600Y-81821100D02*
X108978600Y-77376100D01*
X108978600Y-77376100D02*
X110248600Y-77376100D01*
X110248600Y-77376100D02*
X110248600Y-83726100D01*
X110248600Y-83726100D02*
X108343600Y-83726100D01*
X108343600Y-83726100D02*
X108343600Y-77376100D01*
%TO.N,N$58*%
X99136100Y-91981100D02*
X99136100Y-93251100D01*
X99136100Y-93251100D02*
X101041100Y-93251100D01*
X101041100Y-93251100D02*
X101041100Y-91663600D01*
X101041100Y-91663600D02*
X100088600Y-92616100D01*
%TO.N,N$59*%
X105168600Y-91663600D02*
X105168600Y-92933600D01*
X105168600Y-92933600D02*
X108026100Y-92933600D01*
X108026100Y-92933600D02*
X108026100Y-92616100D01*
X108026100Y-92616100D02*
X105803600Y-92616100D01*
D29*
%TO.N,Net-(IC1-Pad32)*%
X132791100Y-105316100D02*
X135071100Y-107596100D01*
X135071100Y-108643500D02*
X135071100Y-107596100D01*
%TO.N,Net-(IC1-Pad31)*%
X178511100Y-105316100D02*
X178511100Y-110396100D01*
X178511100Y-110396100D02*
X179781100Y-111666100D01*
X179781100Y-111666100D02*
X195656100Y-111666100D01*
X195656100Y-111666100D02*
X196926100Y-110396100D01*
X196926100Y-110396100D02*
X196926100Y-96426100D01*
X196926100Y-96426100D02*
X194386100Y-93251100D01*
X194386100Y-93251100D02*
X185496100Y-93251100D01*
X185496100Y-93251100D02*
X184226100Y-91981100D01*
X184226100Y-91981100D02*
X184226100Y-78328600D01*
X184226100Y-78328600D02*
X182956100Y-77058600D01*
X182956100Y-77058600D02*
X121678600Y-77058600D01*
X121678600Y-77058600D02*
X120408600Y-78328600D01*
X120408600Y-78328600D02*
X120408600Y-85313600D01*
X120408600Y-85313600D02*
X121996100Y-86901100D01*
X121996100Y-86901100D02*
X135966100Y-86901100D01*
X135966100Y-86901100D02*
X137236100Y-87853600D01*
X137236100Y-87853600D02*
X137236100Y-89441100D01*
X137236100Y-89441100D02*
X136601100Y-90076100D01*
X136601100Y-90076100D02*
X133426100Y-90076100D01*
X133426100Y-90076100D02*
X131521100Y-91981100D01*
X131521100Y-91981100D02*
X131521100Y-97696100D01*
X131521100Y-97696100D02*
X134378600Y-99601100D01*
X134378600Y-99601100D02*
X135871100Y-106808600D01*
X135871100Y-108643500D02*
X135871100Y-106808600D01*
%TO.N,Net-(IC1-Pad30)*%
X181051100Y-105316100D02*
X181051100Y-108173600D01*
X181051100Y-108173600D02*
X182003600Y-109126100D01*
X182003600Y-109126100D02*
X187718600Y-109126100D01*
X187718600Y-109126100D02*
X188988600Y-107856100D01*
X188988600Y-107856100D02*
X188988600Y-96743600D01*
X188988600Y-96743600D02*
X188036100Y-95791100D01*
X188036100Y-95791100D02*
X179463600Y-95791100D01*
X179463600Y-95791100D02*
X178511100Y-94838600D01*
X178511100Y-94838600D02*
X178511100Y-83091100D01*
X178511100Y-83091100D02*
X177241100Y-81821100D01*
X177241100Y-81821100D02*
X123266100Y-81821100D01*
X123266100Y-81821100D02*
X121996100Y-83091100D01*
X121996100Y-83091100D02*
X121996100Y-84996100D01*
X121996100Y-84996100D02*
X122948600Y-85948600D01*
X122948600Y-85948600D02*
X136918600Y-85948600D01*
X136918600Y-85948600D02*
X138823600Y-87853600D01*
X138823600Y-87853600D02*
X138823600Y-90393600D01*
X138823600Y-90393600D02*
X137871100Y-91346100D01*
X137871100Y-91346100D02*
X133743600Y-91346100D01*
X133743600Y-91346100D02*
X132791100Y-92298600D01*
X132791100Y-92298600D02*
X132791100Y-97061100D01*
X132791100Y-97061100D02*
X135331100Y-98648600D01*
X135331100Y-98648600D02*
X136671100Y-106021100D01*
X136671100Y-108643500D02*
X136671100Y-106021100D01*
%TO.N,Net-(IC1-Pad29)*%
X137471100Y-108643500D02*
X137471100Y-104916100D01*
X137471100Y-104916100D02*
X136918600Y-97696100D01*
X136918600Y-97696100D02*
X135013600Y-95156100D01*
%TO.N,Net-(IC1-Pad28)*%
X162636100Y-125636100D02*
X162636100Y-124683600D01*
X162636100Y-124683600D02*
X162001100Y-123096100D01*
X162001100Y-123096100D02*
X161048600Y-123096100D01*
X161048600Y-123096100D02*
X159778600Y-122461100D01*
X159778600Y-122461100D02*
X149301100Y-122143600D01*
X149301100Y-122143600D02*
X146761100Y-118968600D01*
X146761100Y-118968600D02*
X146761100Y-97696100D01*
X146761100Y-97696100D02*
X147396100Y-96426100D01*
X138271100Y-108643500D02*
X138271100Y-97143600D01*
X138271100Y-97143600D02*
X137871100Y-96108600D01*
%TO.N,Net-(IC1-Pad27)*%
X160096100Y-125636100D02*
X160096100Y-124683600D01*
X160096100Y-124683600D02*
X158826100Y-123413600D01*
X158826100Y-123413600D02*
X147713600Y-123096100D01*
X147713600Y-123096100D02*
X145491100Y-120556100D01*
X145491100Y-120556100D02*
X145491100Y-116111100D01*
X145491100Y-116111100D02*
X145808600Y-115793600D01*
X145808600Y-115793600D02*
X145808600Y-111031100D01*
X145808600Y-111031100D02*
X145491100Y-110713600D01*
X145491100Y-110713600D02*
X145491100Y-95156100D01*
X145491100Y-95156100D02*
X146761100Y-93886100D01*
X139071100Y-108643500D02*
X139071100Y-106656100D01*
X139071100Y-106656100D02*
X139458600Y-106268600D01*
X139458600Y-106268600D02*
X139458600Y-94521100D01*
X139458600Y-94521100D02*
X138506100Y-93886100D01*
%TO.N,Net-(IC1-Pad26)*%
X139871100Y-108643500D02*
X139871100Y-107126100D01*
X139871100Y-107126100D02*
X140411100Y-106586100D01*
X140411100Y-106586100D02*
X140506100Y-86996100D01*
X140506100Y-86996100D02*
X137871100Y-84996100D01*
X137871100Y-84996100D02*
X125806100Y-84996100D01*
X125806100Y-84996100D02*
X124536100Y-84043600D01*
X124536100Y-84043600D02*
X124536100Y-83522900D01*
X124536100Y-83522900D02*
X124612300Y-83446700D01*
%TO.N,Net-(IC1-Pad25)*%
X140671100Y-108643500D02*
X140671100Y-107596100D01*
X140671100Y-107596100D02*
X141681100Y-107221100D01*
X141681100Y-107221100D02*
X141681100Y-86266100D01*
X141681100Y-86266100D02*
X141046100Y-84996100D01*
X141046100Y-84996100D02*
X141046100Y-83522900D01*
X141046100Y-83522900D02*
X141122300Y-83446700D01*
%TO.N,Net-(IC1-Pad24)*%
X142163700Y-110136100D02*
X143211100Y-110136100D01*
X143211100Y-110136100D02*
X143268600Y-110078600D01*
X143268600Y-110078600D02*
X143268600Y-109443600D01*
X143268600Y-109443600D02*
X142951100Y-109126100D01*
X142951100Y-109126100D02*
X142951100Y-85631100D01*
X142951100Y-85631100D02*
X144856100Y-83726100D01*
X144856100Y-83726100D02*
X150850500Y-83726100D01*
X150850500Y-83726100D02*
X151129900Y-83446700D01*
%TO.N,Net-(IC1-Pad23)*%
X142163700Y-110936100D02*
X143681100Y-110936100D01*
X143681100Y-110936100D02*
X144221100Y-110396100D01*
X144221100Y-110396100D02*
X144221100Y-86901100D01*
X144221100Y-86901100D02*
X146126100Y-84996100D01*
X146126100Y-84996100D02*
X166090500Y-84996100D01*
X166090500Y-84996100D02*
X167639900Y-83446700D01*
%TO.N,Net-(IC1-Pad22)*%
X142316100Y-111666100D02*
X144538600Y-111666100D01*
X144538600Y-111666100D02*
X144538600Y-111983600D01*
X144538600Y-111983600D02*
X143586100Y-111983600D01*
%TO.N,Net-(IC1-Pad19)*%
X142316100Y-114206100D02*
X144856100Y-114206100D01*
X144856100Y-114206100D02*
X144856100Y-113888600D01*
X144856100Y-113888600D02*
X143903600Y-113888600D01*
%TO.N,Net-(D1-PadC)*%
X133578500Y-114136100D02*
X130251100Y-114136100D01*
X130251100Y-114136100D02*
X130251100Y-114206100D01*
X125171100Y-120556100D02*
X125171100Y-120524350D01*
X125171100Y-120524350D02*
X125171100Y-116746100D01*
X125171100Y-116746100D02*
X125806100Y-116111100D01*
X125806100Y-116111100D02*
X128346100Y-116111100D01*
X128346100Y-116111100D02*
X130251100Y-114206100D01*
X133578500Y-114136100D02*
X131451100Y-114136100D01*
X131451100Y-114136100D02*
X130886100Y-113571100D01*
X133578500Y-112536100D02*
X131286100Y-112536100D01*
X131286100Y-112536100D02*
X130886100Y-112936100D01*
X130886100Y-112936100D02*
X130886100Y-113571100D01*
X133578500Y-114136100D02*
X137483600Y-114136100D01*
X137483600Y-114136100D02*
X138283600Y-114936100D01*
X142163700Y-114936100D02*
X138283600Y-114936100D01*
%TO.N,Net-(DIS1-Pad4)*%
X142163700Y-115736100D02*
X143211100Y-115736100D01*
X143211100Y-115736100D02*
X143586100Y-116111100D01*
X143586100Y-116111100D02*
X144221100Y-122143600D01*
X144221100Y-122143600D02*
X142951100Y-123096100D01*
X122381100Y-129706100D02*
X122381100Y-131101100D01*
X122381100Y-131101100D02*
X122631100Y-131351100D01*
X122631100Y-131351100D02*
X130568600Y-131351100D01*
X130568600Y-131351100D02*
X131203600Y-130716100D01*
X131203600Y-130716100D02*
X131203600Y-128811100D01*
X131203600Y-128811100D02*
X132156100Y-127858600D01*
X132156100Y-127858600D02*
X134061100Y-127541100D01*
X134061100Y-127541100D02*
X134061100Y-127541100D01*
X142951100Y-123096100D02*
X142951100Y-123096100D01*
%TO.N,Net-(DIS1-Pad6)*%
X140671100Y-117228700D02*
X140671100Y-120816100D01*
X140671100Y-120816100D02*
X141363600Y-121508600D01*
X127461100Y-129706100D02*
X127461100Y-127791100D01*
X127461100Y-127791100D02*
X128346100Y-126906100D01*
X128346100Y-126906100D02*
X131521100Y-126906100D01*
X131521100Y-126906100D02*
X133426100Y-125636100D01*
X133426100Y-125636100D02*
X133426100Y-125636100D01*
X141363600Y-121508600D02*
X141363600Y-121508600D01*
%TO.N,Net-(DIS1-Pad14)*%
X139871100Y-117228700D02*
X139871100Y-122873600D01*
X139871100Y-122873600D02*
X145808600Y-128176100D01*
X145808600Y-128176100D02*
X147396100Y-128493600D01*
X147396100Y-128493600D02*
X147396100Y-129456100D01*
X147396100Y-129456100D02*
X147781100Y-129706100D01*
%TO.N,Net-(DIS1-Pad13)*%
X139071100Y-117228700D02*
X139071100Y-121896100D01*
X139071100Y-121896100D02*
X139141100Y-123731100D01*
X139141100Y-123731100D02*
X144538600Y-128811100D01*
X144538600Y-128811100D02*
X144856100Y-129321100D01*
X144856100Y-129321100D02*
X145241100Y-129706100D01*
%TO.N,Net-(DIS1-Pad12)*%
X138271100Y-117228700D02*
X138271100Y-120791100D01*
X138271100Y-120791100D02*
X138188600Y-122461100D01*
X138188600Y-122461100D02*
X138188600Y-124366100D01*
X138188600Y-124366100D02*
X142316100Y-128811100D01*
X142316100Y-128811100D02*
X142316100Y-129321100D01*
X142316100Y-129321100D02*
X142701100Y-129706100D01*
%TO.N,Net-(DIS1-Pad11)*%
X137471100Y-117228700D02*
X137471100Y-120003600D01*
X137471100Y-120003600D02*
X136918600Y-121826100D01*
X136918600Y-121826100D02*
X136918600Y-124683600D01*
X136918600Y-124683600D02*
X139776100Y-128176100D01*
X139776100Y-128176100D02*
X139776100Y-129321100D01*
X139776100Y-129321100D02*
X140161100Y-129706100D01*
%TO.N,Net-(IC1-Pad10)*%
X135966100Y-117698600D02*
X135966100Y-118651100D01*
X135966100Y-118651100D02*
X133743600Y-120873600D01*
%TO.N,Net-(IC1-Pad9)*%
X135013600Y-117698600D02*
X135013600Y-118016100D01*
X135013600Y-118016100D02*
X134696100Y-118333600D01*
X134696100Y-118333600D02*
X134378600Y-118333600D01*
D31*
X134378600Y-118333600D02*
X133426100Y-118333600D01*
D29*
X133426100Y-118333600D02*
X134061100Y-118333600D01*
%TO.N,Net-(C1-Pad1)*%
X126441100Y-123096100D02*
X130124100Y-123096100D01*
X130124100Y-123096100D02*
X130251100Y-122969100D01*
X133578500Y-115736100D02*
X133166100Y-115736100D01*
X133166100Y-115736100D02*
X131838600Y-117063600D01*
X131838600Y-117063600D02*
X131838600Y-118841600D01*
X131838600Y-118841600D02*
X130251100Y-122969100D01*
%TO.N,Net-(C2-Pad1)*%
X126441100Y-118016100D02*
X130124100Y-118016100D01*
X130124100Y-118016100D02*
X130251100Y-118143100D01*
X133578500Y-114936100D02*
X132061100Y-114936100D01*
X132061100Y-114936100D02*
X130251100Y-116746100D01*
X130251100Y-116746100D02*
X130251100Y-118143100D01*
%TO.N,Net-(C1-Pad2)*%
X133578500Y-111736100D02*
X126441100Y-111736100D01*
X126441100Y-111736100D02*
X125171100Y-111666100D01*
X123901100Y-118016100D02*
X123901100Y-116111100D01*
X123901100Y-116111100D02*
X125171100Y-113571100D01*
X125171100Y-113571100D02*
X125171100Y-111666100D01*
X123901100Y-118016100D02*
X123901100Y-118651100D01*
X123901100Y-118651100D02*
X122631100Y-119921100D01*
X122631100Y-119921100D02*
X122631100Y-121826100D01*
X122631100Y-121826100D02*
X123901100Y-123096100D01*
X133578500Y-113336100D02*
X135566100Y-113336100D01*
X135566100Y-113336100D02*
X135966100Y-112936100D01*
X133578500Y-111736100D02*
X135401100Y-111736100D01*
X135401100Y-111736100D02*
X135966100Y-112301100D01*
X135966100Y-112301100D02*
X135966100Y-112936100D01*
X114761100Y-129706100D02*
X114761100Y-126656100D01*
X114761100Y-125386100D02*
X110896100Y-122156100D01*
X105311100Y-122156100D02*
X110896100Y-122156100D01*
X124921100Y-129706100D02*
X124921100Y-126656100D01*
X124921100Y-126656100D02*
X124853600Y-126588600D01*
X123901100Y-125636100D02*
X123901100Y-123096100D01*
X114761100Y-125386100D02*
X114761100Y-126656100D01*
X114761100Y-126656100D02*
X115011100Y-126906100D01*
X115011100Y-126906100D02*
X115646100Y-126906100D01*
X118109900Y-78925500D02*
X116319200Y-78925500D01*
X116319200Y-78925500D02*
X115328600Y-79916100D01*
X115328600Y-79916100D02*
X115328600Y-85948600D01*
X115328600Y-85948600D02*
X117551100Y-88171100D01*
X117551100Y-88171100D02*
X129616100Y-88171100D01*
X129616100Y-88171100D02*
X130568600Y-89123600D01*
X130568600Y-89123600D02*
X130568600Y-100236100D01*
X130568600Y-100236100D02*
X129616100Y-101506100D01*
X129616100Y-101506100D02*
X118503600Y-101506100D01*
X118503600Y-101506100D02*
X117551100Y-102458600D01*
X117551100Y-102458600D02*
X117551100Y-110713600D01*
X117551100Y-110713600D02*
X116598600Y-111666100D01*
X116598600Y-111666100D02*
X112471100Y-111666100D01*
X110896100Y-122156100D02*
X110896100Y-121496100D01*
X110896100Y-121496100D02*
X110566100Y-121191100D01*
X112471100Y-111666100D02*
X110566100Y-112301100D01*
X124612300Y-78925500D02*
X134619900Y-78925500D01*
X141122300Y-78925500D02*
X151129900Y-78925500D01*
X157632300Y-78925500D02*
X167639900Y-78925500D01*
X191211100Y-95791100D02*
X189941100Y-94521100D01*
X189941100Y-94521100D02*
X182003600Y-94521100D01*
X182003600Y-94521100D02*
X180733600Y-93251100D01*
X180733600Y-93251100D02*
X180416100Y-79916100D01*
X180416100Y-79916100D02*
X179146100Y-78646100D01*
X179146100Y-78646100D02*
X174421700Y-78646100D01*
X174421700Y-78646100D02*
X174142300Y-78925500D01*
X191211100Y-105316100D02*
X191211100Y-104998600D01*
X191211100Y-104998600D02*
X191211100Y-95791100D01*
X152861100Y-129706100D02*
X154766100Y-125886100D01*
X154766100Y-125886100D02*
X155016100Y-125636100D01*
X121361100Y-126906100D02*
X121361100Y-126906100D01*
X122631100Y-126906100D02*
X123901100Y-125636100D01*
X123901100Y-125636100D02*
X124853600Y-126588600D01*
X124853600Y-126588600D02*
X125171100Y-126588600D01*
X125171100Y-126588600D02*
X126123600Y-125636100D01*
X126123600Y-125636100D02*
X130568600Y-125636100D01*
X130568600Y-125636100D02*
X132473600Y-123731100D01*
X132473600Y-123731100D02*
X134061100Y-123731100D01*
X134061100Y-123731100D02*
X136283600Y-125953600D01*
X136283600Y-125953600D02*
X136283600Y-130398600D01*
X136283600Y-130398600D02*
X137236100Y-131351100D01*
X137236100Y-131351100D02*
X145173600Y-131351100D01*
X145173600Y-131351100D02*
X147396100Y-134208600D01*
X147396100Y-134208600D02*
X151841100Y-134208600D01*
X151841100Y-134208600D02*
X153111100Y-132938600D01*
X153111100Y-132938600D02*
X153111100Y-129956100D01*
X153111100Y-129956100D02*
X152861100Y-129706100D01*
D30*
X99771100Y-82773600D02*
X99771100Y-80233600D01*
X99771100Y-80233600D02*
X99136100Y-80233600D01*
X99136100Y-80233600D02*
X99136100Y-84678600D01*
X99136100Y-84678600D02*
X101041100Y-84678600D01*
X101041100Y-84678600D02*
X101041100Y-80233600D01*
X101041100Y-80233600D02*
X100723600Y-80233600D01*
X100723600Y-80233600D02*
X100088600Y-80868600D01*
D32*
X100088600Y-80868600D02*
X100088600Y-91346100D01*
X100088600Y-91346100D02*
X99453600Y-91346100D01*
X99453600Y-91346100D02*
X99453600Y-84996100D01*
X99453600Y-84996100D02*
X100088600Y-84996100D01*
X100088600Y-84996100D02*
X100723600Y-85631100D01*
X100723600Y-85631100D02*
X100723600Y-91346100D01*
D29*
X100723600Y-91346100D02*
X100723600Y-93886100D01*
X100723600Y-93886100D02*
X101358600Y-94521100D01*
X101358600Y-94521100D02*
X117233600Y-94521100D01*
X117233600Y-94521100D02*
X118186100Y-95473600D01*
X118186100Y-95473600D02*
X118186100Y-101188600D01*
X118186100Y-101188600D02*
X118503600Y-101506100D01*
D30*
X101041100Y-80233600D02*
X101041100Y-77376100D01*
X101041100Y-77376100D02*
X99136100Y-77376100D01*
X99136100Y-77376100D02*
X99136100Y-79598600D01*
X99136100Y-79598600D02*
X99771100Y-79598600D01*
X99771100Y-79598600D02*
X100088600Y-79916100D01*
X100088600Y-79916100D02*
X100088600Y-78328600D01*
D29*
X110566100Y-112301100D02*
X110566100Y-112301100D01*
X110566100Y-121191100D02*
X110566100Y-121191100D01*
X121361100Y-126906100D02*
X122631100Y-126906100D01*
X115646100Y-126906100D02*
X115646100Y-126906100D01*
%TO.N,Net-(IC1-Pad2)*%
X175971100Y-123096100D02*
X164858600Y-123096100D01*
X164858600Y-123096100D02*
X161683600Y-121508600D01*
X161683600Y-121508600D02*
X150571100Y-120873600D01*
X150571100Y-120873600D02*
X148031100Y-116111100D01*
X148031100Y-116111100D02*
X148031100Y-100871100D01*
X148031100Y-100871100D02*
X148666100Y-100236100D01*
X133578500Y-110936100D02*
X127298600Y-110936100D01*
X127298600Y-110936100D02*
X126441100Y-110078600D01*
X126441100Y-110078600D02*
X121361100Y-110078600D01*
X121361100Y-110078600D02*
X120408600Y-109126100D01*
X120408600Y-109126100D02*
X120408600Y-104998600D01*
X120408600Y-104998600D02*
X121361100Y-104046100D01*
X121361100Y-104046100D02*
X122948600Y-104046100D01*
X122948600Y-104046100D02*
X123583600Y-104681100D01*
X123583600Y-104681100D02*
X123583600Y-107538600D01*
X123583600Y-107538600D02*
X124218600Y-108173600D01*
X124218600Y-108173600D02*
X127711100Y-108173600D01*
X127711100Y-108173600D02*
X128981100Y-106903600D01*
X128981100Y-106903600D02*
X128981100Y-104998600D01*
X128981100Y-104998600D02*
X131838600Y-102141100D01*
%TO.N,Net-(IC1-Pad1)*%
X121996100Y-105633600D02*
X121996100Y-107856100D01*
X121996100Y-107856100D02*
X123901100Y-109126100D01*
X123901100Y-109126100D02*
X130886100Y-109126100D01*
X133578500Y-110136100D02*
X132531100Y-110136100D01*
X132531100Y-110136100D02*
X130886100Y-109126100D01*
D33*
%TO.N,Net-(R1-Pad2)*%
X125171100Y-105316100D02*
X125171100Y-106586100D01*
D29*
X105311100Y-120556100D02*
X101676100Y-120556100D01*
X101676100Y-120556100D02*
X100406100Y-119286100D01*
X100406100Y-119286100D02*
X100406100Y-118651100D01*
X100406100Y-118651100D02*
X101676100Y-117381100D01*
X101676100Y-117381100D02*
X101676100Y-114841100D01*
X101676100Y-114841100D02*
X102311100Y-114206100D01*
X102311100Y-114206100D02*
X112471100Y-114206100D01*
X112471100Y-114206100D02*
X113741100Y-112936100D01*
X113741100Y-112936100D02*
X117868600Y-112936100D01*
X117868600Y-112936100D02*
X119138600Y-111666100D01*
X119138600Y-111666100D02*
X119138600Y-104046100D01*
X119138600Y-104046100D02*
X119773600Y-102776100D01*
X119773600Y-102776100D02*
X124536100Y-102776100D01*
X124536100Y-102776100D02*
X125171100Y-104046100D01*
X125171100Y-104046100D02*
X125171100Y-105316100D01*
%TO.N,Net-(R2-Pad2)*%
X121996100Y-113253600D02*
X122631100Y-114206100D01*
X105311100Y-119756100D02*
X103416100Y-119756100D01*
X103416100Y-119756100D02*
X102946100Y-119286100D01*
X102946100Y-119286100D02*
X102946100Y-118651100D01*
X102946100Y-118651100D02*
X103581100Y-118016100D01*
X103581100Y-118016100D02*
X110566100Y-118016100D01*
X110566100Y-118016100D02*
X114376100Y-114206100D01*
X114376100Y-114206100D02*
X122631100Y-114206100D01*
%TO.N,Net-(D1-PadA)*%
X121361100Y-118016100D02*
X121361100Y-119286100D01*
X121361100Y-119286100D02*
X120091100Y-120556100D01*
X120091100Y-120556100D02*
X117582850Y-120556100D01*
X117582850Y-120556100D02*
X117551100Y-120556100D01*
%TO.N,Net-(D2-PadA)*%
X116281100Y-123096100D02*
X114376100Y-123096100D01*
X114376100Y-123096100D02*
X113741100Y-122461100D01*
X113741100Y-122461100D02*
X113741100Y-118016100D01*
X117301100Y-129706100D02*
X117301100Y-124116100D01*
X117301100Y-124116100D02*
X116281100Y-123096100D01*
X105311100Y-118956100D02*
X111531100Y-118956100D01*
X111531100Y-118956100D02*
X112471100Y-118016100D01*
X112471100Y-118016100D02*
X113741100Y-118016100D01*
X117301100Y-129706100D02*
X117301100Y-131101100D01*
X117301100Y-131101100D02*
X118821100Y-132621100D01*
X118821100Y-132621100D02*
X141998600Y-132621100D01*
X141998600Y-132621100D02*
X142633600Y-132938600D01*
X142633600Y-132938600D02*
X144856100Y-135161100D01*
X144856100Y-135161100D02*
X156286100Y-135161100D01*
X156286100Y-135161100D02*
X157556100Y-133891100D01*
X157556100Y-133891100D02*
X157556100Y-125636100D01*
X157556100Y-125636100D02*
X157556100Y-127858600D01*
X157556100Y-127858600D02*
X158826100Y-129128600D01*
X158826100Y-129128600D02*
X177876100Y-129128600D01*
X177876100Y-129128600D02*
X179463600Y-127541100D01*
X179463600Y-127541100D02*
X179463600Y-119603600D01*
X179463600Y-119603600D02*
X175971100Y-117698600D01*
X175971100Y-117698600D02*
X175971100Y-105316100D01*
%TO.N,Net-(DIS1-Pad15)*%
X150253600Y-132938600D02*
X150253600Y-132303600D01*
X150253600Y-132303600D02*
X150253600Y-129773600D01*
X150253600Y-129773600D02*
X150321100Y-129706100D01*
%TO.N,Net-(DIS1-Pad3)*%
X119841100Y-129706100D02*
X119841100Y-123981100D01*
X119841100Y-123981100D02*
X120726100Y-123096100D01*
X120726100Y-123096100D02*
X121361100Y-123096100D01*
%TO.N,Net-(JP2-Pad5)*%
X186131100Y-105316100D02*
X186131100Y-104998600D01*
X186131100Y-104998600D02*
X186131100Y-102776100D01*
X186131100Y-102776100D02*
X184861100Y-101506100D01*
X184861100Y-101506100D02*
X178828600Y-101506100D01*
X178828600Y-101506100D02*
X176923600Y-99601100D01*
X176923600Y-99601100D02*
X176923600Y-88171100D01*
X176923600Y-88171100D02*
X175018600Y-86266100D01*
X175018600Y-86266100D02*
X146761100Y-86266100D01*
X146761100Y-86266100D02*
X145491100Y-87536100D01*
X145491100Y-87536100D02*
X145491100Y-90076100D01*
X145491100Y-90076100D02*
X147396100Y-91028600D01*
D30*
X107708600Y-90393600D02*
X105168600Y-90393600D01*
X105168600Y-90393600D02*
X105168600Y-89123600D01*
X105168600Y-89123600D02*
X107391100Y-89123600D01*
X108026100Y-89123600D02*
X107391100Y-89123600D01*
X107391100Y-89123600D02*
X105168600Y-91346100D01*
X105168600Y-91346100D02*
X108026100Y-91346100D01*
X108026100Y-91346100D02*
X108343600Y-91028600D01*
X108343600Y-91028600D02*
X108343600Y-90076100D01*
D29*
X108343600Y-90076100D02*
X110248600Y-90076100D01*
X110248600Y-90076100D02*
X111518600Y-91346100D01*
X111518600Y-91346100D02*
X125806100Y-91346100D01*
X125806100Y-91346100D02*
X127076100Y-92298600D01*
%TO.N,Net-(JP2-Pad4)*%
X183591100Y-105316100D02*
X183591100Y-104998600D01*
X183591100Y-104998600D02*
X183591100Y-103728600D01*
X183591100Y-103728600D02*
X182638600Y-102776100D01*
X182638600Y-102776100D02*
X177241100Y-102776100D01*
X177241100Y-102776100D02*
X175336100Y-100871100D01*
X175336100Y-100871100D02*
X175336100Y-89758600D01*
X175336100Y-89758600D02*
X173748600Y-88171100D01*
X173748600Y-88171100D02*
X147396100Y-88171100D01*
D30*
X103898600Y-82773600D02*
X103898600Y-82138600D01*
X103898600Y-82138600D02*
X104851100Y-81186100D01*
X104851100Y-81186100D02*
X104851100Y-83726100D01*
X104851100Y-83726100D02*
X104216100Y-84361100D01*
X104216100Y-84361100D02*
X103263600Y-84361100D01*
X103263600Y-84361100D02*
X103263600Y-81186100D01*
X103263600Y-81186100D02*
X103581100Y-80868600D01*
X103581100Y-80868600D02*
X103581100Y-84678600D01*
X103581100Y-84678600D02*
X103898600Y-84996100D01*
X103898600Y-84996100D02*
X104851100Y-84996100D01*
D29*
X104851100Y-84996100D02*
X104851100Y-85631100D01*
X104851100Y-85631100D02*
X113423600Y-85631100D01*
X113423600Y-85631100D02*
X117233600Y-89441100D01*
X117233600Y-89441100D02*
X126441100Y-89441100D01*
X126441100Y-89441100D02*
X127076100Y-89758600D01*
D30*
X103263600Y-81186100D02*
X103263600Y-77376100D01*
X103263600Y-77376100D02*
X104851100Y-77376100D01*
X104851100Y-77376100D02*
X104851100Y-80868600D01*
X104851100Y-80868600D02*
X104216100Y-80233600D01*
X104216100Y-80233600D02*
X104216100Y-78328600D01*
%TD*%
M02*
